<?xml version="1.0" encoding="UTF-8"?>
<svg id="Layer_1" xmlns="http://www.w3.org/2000/svg" version="1.1" viewBox="0 0 1024 1024">
  <!-- Generator: Adobe Illustrator 29.5.0, SVG Export Plug-In . SVG Version: 2.1.0 Build 137)  -->
  <path d="M784,261l32.01-3-.05-111.55c1.28-13.86,21.29-14.78,23.05,1.04,1.11,9.96.17,24.59.04,35.05-2.62,216.35,1.18,433.42-1.12,649.88-4.85,10.98-19.8,11.03-21.95-1.91.15-133.49-.36-266.59-.07-399.97-.23-1.05-.37-2.57-1.14-3.32-2.38-2.33-26.26-3.11-30.77-3.23v59.5c0,.47-3.69,6.52-4.48,7.52-16.76,21.36-58.75,7.55-82.03,4.98-50.8-5.61-102.07-8.33-152.91-14.09-16.25-3.44-22.59-18.01-22.59-33.41v-15l-2.04-1.1c-11.99,1.26-24.36,3.13-36.39,3.59-13.57.52-29,1.42-41.55-3.51-2.75-1.08-22.13-11.39-23.01-10.48-6.29,23.33-15.34,46.29-14.01,71,4.9.87,9.91-.9,14.46-1.05,20.66-.66,53.33-2.16,73.04.04,3.68.41,7.99,1.77,9.71,5.29l109.58,373.5c.06,11.91-13.37,16.79-20.66,6.58l-26.13-90.37h-105c7.41,27.75,19.11,54.23,29.55,80.94,3.15,13.5-12.24,20.47-20.78,9.79l-37.78-103.72-27.6,101.89c-4.55,8.07-13.71,9.88-19.39,1.6-5.26-7.67,1.18-14.36,1-22.5h-160c-3.08,5.95-7.77,23.24-13.08,26.42-7.68,4.6-16.89-1.19-16.98-9.88l43.93-112.23-.88-1.8c-8.15-1.97-16.73-7.75-18.55-16.45-2.16-10.32,5.57-44.88,7.85-57.27,5.73-31.06,16.32-68.39,18.69-99.31,2.88-37.62-3.34-76.21,2.26-113.74,13.35-38.44,20.87-80.75,34.04-118.96,9.51-27.58,31.09-49.93,61.71-50.79-16.53-10.65-22.27-29.06-27.5-47l-1.9-.95c-12.15,4.73-14.97-11.72-15.64-20.5-7.3-96.12,124.97-120.21,152.13-30.62l37.46-6.55c10.27-1.28,13.24,16.81,5.38,21.05l-43.5,7.54.77,15.34c1.46,4.76,10.12,1.92,8.69,15.08-1.31,12.05-9.2,8.44-12.66,11.83-.83.82-5.48,13.86-7.4,17.1-8.01,13.53-22.58,24.52-36.82,30.69-1.26,1.71,6.35,5.68,7.95,6.53,23.6,12.55,48.52,23.94,72.52,35.48l37.03-1.02,2.24-1.46c-1.27-11.08-1.32-22.91.3-34,2.56-27.64-3.61-62.13.05-88.95,2.41-17.67,21.32-21.13,35.55-23.45,63.02-10.23,128.53-13.58,191.81-23.18,9.67-.78,22.11,3.04,28.52,10.56,1.22,1.44,5.02,7.56,5.02,8.98v57.5ZM430.01,207c-2.26-14.75-16.55-28.88-29.77-34.73-40.77-18.03-82.51,13.65-81.23,56.73l111-22.01ZM762,477.5V209.5c0-.17-1.54-1.76-2.01-1.98-2.68-1.25-14.58.13-18.48.49-64.44,5.9-128.53,17.13-192.97,23.03-1.06-.11-3.54,1.94-3.54,2.46v122.5l56.87-2.13,4.76-21.41c-19.02-19.56-21.56-52.51.36-70.98,13.25-11.17,23.76-10.83,26.91,8.11,1.67,10.02-3.01,20.69,11.1,20.39.49-9.76-5.35-34.54,9.63-35.95,12.41-1.17,27.13,17.32,30.86,27.97,7.89,22.56-4.25,50.57-26.58,58.62-4.34,13.23-13.76,26.77-18.11,39.65-2.95,8.74-2.83,16.31-7.99,25.01-10.79,18.19-25.26,18.53-44.31,20.69-14.43,1.64-29.1,1.87-43.48,4.02,1.13,7.14-1.65,19.9.2,26.28s23.36,6.05,29.28,6.72c53.96,6.05,113.19,14.16,167.02,16.98,3.37.18,19.42.86,20.49-2.49ZM428.99,228l-90.98,18.01c.75,36.49,40.96,64.68,72.46,38.96,16.38-13.38,21.94-36.66,18.52-56.97ZM816,279l-31.89,4.1.02,119.27c.62,1.82,6.32,2.38,8.38,2.62,7.5.86,15.91.91,23.49,1.01v-127ZM664.01,285c5.63,35.91-55.16,31.66-48.02-2-8.5,7.83-5.34,22.34,1.03,30.48,2.36,3.01,6.64,5.37,8.42,7.58,4.88,6.04-4.64,27.3-4.39,35.55.07,2.44,4.74,3.77,6.46,5.36l17.43-36.52c16.66-4.72,31.66-24.84,19.07-40.44ZM274,461h112c2.22-16.04,7.83-31.21,13.04-46.43-8.24-5.44-23.67-8.03-21.83-20.81,1.26-8.72,8.09-10.06,15.82-8.29l62.7,28.3c33-.19,66.01-4.53,98.78-7.75,16.05-1.58,40.98-1.46,55.75-5.25,13.22-3.39,13.17-20.57,1.46-25.99-45.78-2.34-92.23,5.9-137.92,1.95-34.89-13.96-69.48-39.3-105.59-49.44-36.11-10.15-53.89,2.08-66.48,35.95l-27.74,97.76ZM380.5,482h-112.5l-.02,107.48c-7.21,41.2-16.78,82.06-23.69,123.31-.56,3.36-3.75,20.89-2.84,22.26,1.25,1.89,9.23-.93,12.02-1.09,8.31-.48,38.04,1.68,42.92-1.08,4.26-2.42,3.15-14.71.68-18.19-3.13-4.41-17.08-1.37-17.1-11.18,0-4.14,7.02-24.63,8.78-30.28,8.45-27.15,19.58-53.46,27.05-80.97l-17.84-57.81c.95-11.86,14.5-18.21,20.94-5.84,7.99,15.37,12.43,38.81,18.63,55.37l17.66,149.83,58.32,3.19c1.55.08-.38-13.45-.95-15.06-2.83-7.95-26.03-9.66-27.48-18.51-.92-49.6,1.01-99.38,0-148.92-.2-9.87-1.77-21.08-2.09-30.99-.36-11.03,1.26-24.49.04-35.04-.27-2.33-.69-4.81-2.5-6.5ZM473,514h-68c.61,4.49.53,40.7,2.57,41.04l54.47-.55,10.96-40.49ZM517,624l-26.99-87.99-50.73,198.69,12.22,31.31h104l1.1-2.07-14.57-48.52-71.09.14c-7.23-3.16-10.08-13.35-3.47-18.58.85-.68,5.41-2.98,6.02-2.98h61c.37,0,.94,1.97,2.47-.49l-14.44-47.54c-9.98-4.34-39.46,6.38-38.57-11.43.2-4,4.7-10.54,8.54-10.54h24.5ZM456,576h-49v48h38l11-48ZM439,646l-32.01-1.01,1.14,45.86c4.98.34,14.06,9.82,18.31,4.09l12.55-48.94ZM261.5,767h147.5l2-8.99c-5.47.93-10.24-1.66-15.46-2.04-11.76-.84-26.52,2.09-38.88.96-18.07-1.65-21.27-12.3-24.39-27.7-5.19-25.61-5.73-51.91-9.24-77.76-.2-1.5-.14-3.08-2.01-3.47l-14.9,46.88c14.28,5.42,15.07,21.98,14.3,35.26-1.88,32.2-32.93,25.19-55.78,26l-4.62,11.87c.37.5,1.21-.96,1.49-1ZM403.99,788l-152.34-.05-17.65,47.04,156.33-.16,2.17-2.83,11.49-44Z"/>
</svg>