<?xml version="1.0" encoding="UTF-8"?>
<svg id="Layer_1" xmlns="http://www.w3.org/2000/svg" version="1.1" viewBox="0 0 1024 1024">
  <!-- Generator: Adobe Illustrator 29.5.0, SVG Export Plug-In . SVG Version: 2.1.0 Build 137)  -->
  <path d="M556.23,136.78c.75.76,15.88,7.5,19.08,9.42,41.44,24.77,71.69,64.39,75.13,113.87,5.53,2.61,10.64.94,15.09,5.91,7.73,8.64,9.73,32.23.41,40.47-6.51,5.76-37.47,11.07-38.74,12.77l-1.2,13.8c9.94-.59,24.14,3.27,28.06,13.44,8.49,22.07-.52,61.37-25.78,69.32-3.55,1.12-6.63.81-9.78,2.22-8.09,23.41-20.13,44.91-37,63.05,2.52,20.62,7.47,46.05-9.5,61.95l17.98,1c1.07-9.54,6.7-17.91,10.92-26.34-7.39-9.53-23.44-21.09-13.41-33.65,4.79-6,24.68-25.28,31.1-27.89,13.3-5.42,21.73,16.72,28.48,15.43,5.71-1.09,16.5-10.41,23.77-10.68,3.64-11.22-4.54-30.09,11.65-31.85,11.07-1.21,30.12-1.99,41.04-1.04,17.99,1.57,8.82,20.6,13.45,32.55l25.41,10.36c7.04-7.37,15.58-20.9,26.93-13.7,6.82,4.33,24.93,20.89,29.66,27.34,9.22,12.55-6.27,20.78-11.64,30.99l9.53,24.91c6.99,3.39,26.88-1.38,29.67,7.54-.94,18.29,5.19,38.62-1.81,55.79l-29.56,3.44-6.18,21.23c3.68,9.61,16.12,20.74,12.79,31.88-.51,1.72-16.48,16.92-19.26,19.73-2.63,2.66-6.59,4.1-7.53,8.55,8.34,38.05,15.82,76.39,20.86,115.07,2.42,18.61,5.64,40.26,6.18,58.82.27,9.36-.51,23.22-13.73,17.71-5.57-2.32-5.6-6.03-6.3-11.69-4.81-39.24-7.19-78.6-13.18-117.82-1.34-8.81-8.56-57.8-13.09-61.41-5.96.45-15.2-8.94-19.3-9.23-1.28-.09-17.35,5.66-18.44,6.49-1.19.9-1.7,1.49-1.99,3.01-1.54,8.11,3.77,26.44-7.19,29.81-6.38,1.96-22.76.61-30.38.62-2.63,0-5.1,1.15-7.95,1.13-2.3-.02-10.07-1.2-12.09-2.01-8.9-3.56-5.16-21.86-7.63-29.37l-26.25-12.75c-9.12,4.92-12.13,20.14-24.76,15.75-2.85-.99-17.62-14.2-20.79-17.2-7.07-6.68-17.35-13.95-14.52-24.55,1.79-6.69,14.06-15.89,14.53-20.56.19-1.88-3.12-10.23-4.26-11.15-.83-.67-2.89-.53-4.1-1.38-1.79-1.26-2.93-2.97-4.95-4.08-16.97-9.29-38.56-11.8-56.22-19.79l-16.95,17-.65,258.35c.66,13.11-18.63,17.02-19.92,3.17s.94-27.64,1.09-41c.69-61.68-.86-123.41-.09-185.09.12-9.93,2.95-26.31.84-35.74-.74-3.32-15.7-20.77-18.1-20.55l-68.63,36.39c-5.36,2.17-11.92-1.44-13-7.09-2.97-15.47-3.08-34.73-5.17-50.83-1.16-8.9-2.29-17.92-4.39-26.64-14.21,3.6-27.81,10.06-42.28,12.23l-13.66,21.83c-3.21,9.26,9.46,34.26,10.58,44.83,14.74,1.46,31.82,4.81,34.76,21.73,1.02,5.88,1.32,13.59.11,19.38,19.45,4.99,17.96,22.81,19.01,39.27,5.61,4.5,11.17,8.53,12,16.23.56,5.17-.89,11.92.21,16.79.72,3.18,4,4.8,5.63,7.37,5.14,8.11,4.28,21.74-1.01,29.67-3.41,5.11-19.55,15.1-19.83,18.18,1.28,20.48,16.11,47.49,6.87,66.86-12.05,25.29-48.66,31.83-68.42,11.66-9.6-9.8-8.08-23.1-12.36-34.65-.4-1.07.5-1.71-1.6-1.41-13.79,8.76-19.75,24.81-31.97,36.04-37.32,34.3-98.96,6.58-102.57-42.49-4.1-55.67,19.12-161.14,49.62-208.46,3.7-5.74,8.82-10.37,12.44-15.56.59-.85,1.39-1,.98-2.5-45.87-17.49-71.95-65.39-52.18-112.69,3.1-7.41,10.32-18.35,16.16-23.84,8.71-8.19,17.25-11.2,23.76,1.29l8.2,50.55c7.66,4.22,20.88,16.59,29.81,12.93,2.46-1.01,19.39-18.18,20.04-20.94s.27-5.86-.05-8.54c-1.9-16.11-10.14-34.02-12.78-50.3,2.31-19.33,27.99-5.91,37.77.32,29.2,18.63,42.11,52.26,36.28,86.22,24.71-5.39,46.71-21.7,72.06-23.43l.94-2.06c-1.41-7.13,3.98-22.6,1.47-28.49-.78-1.83-9.26-8.98-11.45-11.54-13.73-16-20.29-30.78-25.17-51.33-25.85-.07-34.44-25.95-35.9-47.6-.32-4.72-.69-19.79.49-23.6,2.56-8.31,18.74-13.46,26.62-13.38l.8-13.43c-14.21-5.43-41.78-5.29-43.87-24.63-1.77-16.34,2.37-34.49,21.96-34.54,1.86-51.55,33.16-90.32,75.75-115.76,3.03-1.81,13.83-6.33,15.27-7.73,1.74-1.69,1.7-7.62,5.65-10.35,7.28-5.02,32.8-11.51,41.89-12.11,12.43-.82,50.48,5.56,57.49,16.48,1.26,1.96,1.71,5.77,2.22,6.29ZM536.9,139.09c-22.08-7.05-46.14-7.32-67.87.96l11,85.47c-.69,10.11-15.63,11.99-19,2.94l-9.04-72.47c-41.67,18.94-71.6,57.81-75.99,103.99,3.57-.28,6.92.84,10.45,1.05,69.88,4.14,143.8-3.24,214.1,0l30.34-2.15c-2.06-32.17-20.6-63.93-45.42-83.86-3.67-2.95-29.7-20.88-32.46-18.03l-7.2,71.3c-8.07,12.38-21.83,5.36-18.79-8.79l9.89-80.42ZM653.86,291.86c.54-5.25,1.14-11.07-5.31-11.91-61.8-.21-123.48.39-185.1.1-30.67-.15-62.24-2.85-92.99-1.09-2.42.14-13.14,1.21-14.06,1.94-1.68,1.33-3.33,10.8-2.29,12,17.22,4.87,34.77,8.5,52.53,10.96,53.35,7.37,112.22,8.24,165.85,3.13,27.41-2.61,55.22-6.62,81.37-15.13ZM636,371.5c.56-5.55-.41-11.85,0-17.5-9.79-2.66-18.6,4.17-28.85,1.86-.6-1.32-1.19-2.87-1.16-4.34.13-7.12,2.83-19.58,2.07-26.05-.16-1.38-.04-2.86-1.7-3.38-1.29-.41-13.07,2.45-15.98,2.8-41.08,4.87-82.6,4.69-123.84,3.08-22.99-.9-45.9-1.56-68.53-5.96l.98,35c-9.83-.7-28.14-14.48-28.07,4.51.03,7.76,2.36,23.36,5.91,30.17,6.13,11.75,19.37,5.11,24.64,11.35,4.87,5.76,9.21,29.37,14.72,39.28,37.32,67.06,144.15,63.53,175.66-6.95,4.88-10.91,6.67-22.26,11.39-33.1,7.28-3.07,16.45-.43,22.78-5.72,4.99-4.17,9.33-18.7,9.97-25.03ZM717,446h-27c-2.9,7.04,1.98,24.25-4.62,28.88-3.24,2.28-13.16,3.64-17.66,5.34-6.69,2.52-18.21,11.15-24.25,10.88-7.02-.32-14.44-11.78-19.97-15.93-7.49,4.98-14.42,10.67-20.47,17.33,5.76,9.32,18.53,16.62,15.75,28.79-.56,2.43-4.85,8.38-6.26,11.74-1.51,3.6-2.77,7.27-4.02,10.98-1.62,4.79-1.84,15.85-8.03,16.97l-24.47,1.03,1,29.99h21.5c.39,0,5.39,4.01,5.7,5.3l13.87,34.21c.52,7.54-10.79,14.51-13.62,21.4-.95,4.3,15.95,15.54,19.04,18.91,6.69-3.65,13.88-15.67,22.02-14.91,3.73.35,14.41,8.45,19.51,10.57,5.51,2.29,15.59,3.63,19.71,6.29,5.73,3.7,4.17,20.07,5.27,26.73.18,1.11.41,1.97,1.58,2.39l25.43-.88c.22-6.41-.27-22.79,3.96-27.54,2.29-2.56,15.99-5.31,20.71-7.29,5.31-2.22,13.21-8.58,17.29-9.71,8.49-2.35,17.9,10.27,24.68,14.37,2.78.56,18.16-15.78,18.41-18.39.6-6.27-16.74-13.22-13.85-25.74,6.17-7.24,10.07-34.67,18.04-37.95.73-.3,6.83-1.75,7.25-1.75h16.5l-1-28h-16.5c-.4,0-6.55-1.45-7.25-1.75-4.93-2.05-6.63-15.83-8.77-21.23s-9.07-14.52-9.44-19.64c-.47-6.45,11.99-19.27,15.94-24.91v-1.46c-7.48-3.65-12.53-11.22-19.61-15.95-2.05-.37-14.92,15.62-19.94,15.93-3.24.2-15.54-7.93-20.16-9.76-5.81-2.29-16.92-3.65-20.98-6.02-6.23-3.63-3.15-22.54-5.28-29.22ZM214.99,484c-26.71,31.12-7.57,79.62,27.66,94.85,7.28,3.15,15.77,3.62,21.84,9.16l18.48,54.57c1.43,1,3.19-.13,4.58-.54,7.15-2.1,24.87-10.02,29.98-15.02,1.23-1.21,3.29-2.64,3.4-4.45.21-3.44-3.98-19.4-5.2-23.79-1.52-5.47-8.78-22.12-8.28-25.84.74-5.4,5.68-7.7,8.53-11.48,22.57-29.96,22.86-66.23-4.42-93.52-1.39-1.39-9.28-8.18-10.54-6.95-.92,4.08-2.69,3.97-1.92,9.42,1.93,13.56,11.89,28.85,7.1,42.26-2.9,8.12-13.02,16.69-19.71,22.29-11.64,9.73-17.71,15.74-33.51,8.57-5.05-2.29-23.99-13.3-26.96-17.04-8.27-10.43-5.25-30.37-11.01-42.5ZM561.01,493.01c-.91,4.44-6.03,6.16-9.75,7.76-26.73,11.45-71.86,11.47-98.53,0-3.39-1.46-6.52-3.21-9.24-5.74-2.79-.02-4.28,24.89-1.28,28.26l61.28,67.69c10.13-8.44,17.11-19.56,25.53-29.45,7.4-8.69,32.49-34.44,34.86-43.14,1.75-6.41,1.14-14.01-.34-20.44-.26-1.15-1.1-4.81-2.54-4.94ZM423.9,529.07l-19.96,5.54,6.07,68.39,50.94-27.49c-3.14-4.6-4.48-9.49-7.97-13.99-8.55-11-23.55-19.39-29.07-32.45ZM559,585v-27l-19,20.99,19,6.01ZM265.95,651.92l-10.96-30.92c-15.56,12.25-21.98,32.67-28.74,50.75-9.39,25.13-21.34,59.35-24.24,85.76-.67,6.15,1.41,12.81-2.01,18.48,2.34.71,1.73-.7,2.29-1.27,17.46-17.79,28.03-37.06,34.98-60.96,6.36-21.85,5.79-50.63,28.69-61.84ZM354.65,655.65c8.69-9.23-5.61-18.91-14.93-16.42-18.9,10.3-41.06,15.87-59.74,26.25-5.21,2.9-12.31,6.54-14.87,12.13-5.23,22.67-9.27,44.73-18.93,66.07-3.66,8.08-8.91,15.36-11.74,23.83,4.27,16.95,9.8,34.35,23.09,46.47,4.28,3.9,19.7,15.06,24.97,15.05,6.12,0,19.08-12,25.19-15.82,18.8-11.76,77.61-37.33,87.05-53.95.84-1.47,3.03-6.88,2.17-8.15-3.6-1.28-8.41-1.68-12.15-.82-5.67,1.3-30.31,18.71-33.57,8.04-5.53-18.1,26.69-19.19,34.25-29.37s-4.32-16.68-14.45-14.45c-7.86,1.73-24.24,14.05-29.67,14.27-7.49.3-11.69-11.29-4.28-17.22,5.27-4.22,19.86-9,26.98-13.02,5.46-3.08,11.63-4.6,10.93-11.9-.59-6.1-10.18-11.95-15.37-11.62-7.81.51-25.7,13.47-34.45,15.48-7.05-.47-9.7-6.82-7.2-13.07,3.85-9.65,28.86-13.42,36.72-21.77ZM218.99,785c-1.39-.27-1.28-.19-2.07.64-1.29,1.35-2.78,4.58-4.4,6.37-10.26,11.32-15.78,10.54-14.5,28.47,1.64,22.92,20.85,43.44,43.74,46.25,8.39,1.03,25.05-7.65,30.07-14.41.85-1.15,3.4-4.68,3.18-5.8-1.68-2.1-4.41-1.33-6.72-2.3-9.74-4.07-33.43-23.12-39.09-31.91-5.1-7.92-8.45-18.07-10.2-27.31ZM370.52,798.11l-39.37,22.48c4.09,10.55,4.39,30.04,13.91,36.84,11.68,8.34,27.41,4.72,34.14-7.73,4.72-8.73,2.01-14.5.11-23.52-.77-3.66-6.55-27.91-8.8-28.07Z"/>
  <path d="M676.71,747.22c6.09-1.39,12.82.25,13.31,7.26v119.04c-1.2,10.28-17.39,10.06-19.07.03l.03-119.07c.08-3.34,2.42-6.51,5.73-7.26Z"/>
  <path d="M549.73,684.23c19.19-3.92,19.72,26.25,1.03,23.55-13.13-1.9-12.79-21.15-1.03-23.55Z"/>
  <path d="M549.73,762.23c16.75-3.42,20.32,20.71,5.53,23.56-15.77,3.04-19.93-20.62-5.53-23.56Z"/>
  <path d="M693.79,496.29c65.59-6.69,109.78,59.41,77.38,117.38-24.32,43.51-84.16,51.12-121.18,18.84-49.36-43.04-20.68-129.64,43.81-136.22ZM694.78,514.28c-73.93,8.91-65.99,124.78,12.71,119.7,80.89-5.22,71.51-129.86-12.71-119.7Z"/>
  <path d="M733.77,548.18c8.71-.94,11.44,8.42,8.1,15.2l-44.13,44.87c-8.53,3.69-14.11-7.48-19.22-12.27-2.88-2.7-14.71-11.78-15.79-14.24-2.54-5.78,3.63-13.1,9.7-12.7s19.59,16.3,21.92,15.89c5.11-4.9,10.25-9.82,15.15-14.92,5.58-5.8,16.39-20.99,24.26-21.84Z"/>
</svg>