<?xml version="1.0" encoding="UTF-8"?>
<svg id="Layer_1" xmlns="http://www.w3.org/2000/svg" version="1.1" viewBox="0 0 1024 1024">
  <!-- Generator: Adobe Illustrator 29.5.0, SVG Export Plug-In . SVG Version: 2.1.0 Build 137)  -->
  <path d="M229,153c-3.45-17.28,412.51-6.13,423.54-9.05,36.79,1.45,64.7,32.04,65.44,68.56,1.05,2.4-2.06,298.1,1.01,299.48,1.3,1.11,7.86,3.96,10,5.01,4.63,4.65,11.36,6.92,17,10,2.28,3.14,5.05,4.18,8,6,1.61,2.89,1.59,4.07,6,4,.39.29.67.75,1,1l15.96,16.55c3.8,1.57,6.49,5.53,9.04,8.45.03,2,.98,3.1,3,3,.27,3.32,4.15,6.44,5.92,9.62.83,1.27,1.11,2.83,3.08,2.38,35.7,59.23,40.34,126.95,9,189-3.58,10.89-16.44,22.98-22.99,33-2.8,1.42-9.53,7.86-10,11-5.21,3.79-11.07,8.17-15.76,13.02-4.05,3.82-11.79,5.97-14.24,10.98-18.84,9.83-37.67,19.18-58.67,23.88-1.81.42-3.92-.97-3.33,2.12-49.76,6.16-106.98.29-146.78-32.97,0,0-6.22-3.03-6.22-3.03-1.06-.88-2.47-2.66-4-4,.04-2.33-4.6-5.21-7-6-4.34-3.46-7.37-8.57-10.55-12.95-7.57-8.96-15.57-17.9-21.37-27.83-1.46-2.49-.77-7.31-5.08-6.21,0,0-241-3-241-3-19.2-6.63-33.32-22.93-39.28-42.22-2.54-8.36-2.69-15.66-3.76-24.24V211.46c1.74-22.79,12.37-46.13,32.04-58.46ZM256,171c-9.43,2.34-15.74,4.11-22,12-6.35,8.43-11.41,14.12-12.04,25.46,0,0-.01,494.08-.01,494.08.6,7.39,3.05,23.98,11.05,26.45.52.56,1.41,1.42,2,2,1.47,5.69,14.71,10.14,19.5,11,0,0,217.5,0,217.5,0-25.02-60.6-7.5-134.27,34-183,3.3-.45,5.89-5.04,7-8,3.8-4.59,11.99-7.01,14-13,.35-.3.62-.72,1-1,58.23-40.39,93.27-46.57,164-37l1,1.5c-.55-90.01.74-180.04-.06-270.04-.12-13.15,1.93-27.27-4.04-39.65-.56-1.16-2.33-1.47-2.91-2.8-.27-.61-.68-1.33-1-2-.16-.34.34-1.42-.12-1.88-3.53-.02-4.76-2.97-6.88-5.12-2.58-3.15-12.36-11.53-17-8-.27-.07-.66-.76-1-1h-404ZM736,550c-53.6-41.71-133.59-43.16-184,0-4.83,3.38-6.81,5.39-11,9l-1.98-.99c-.24,4.21-5.68,4.23-6.02,7.99-10.25,10.26-20.2,20.93-27,34-.46.17-1.38-.15-2,0-31.64,62.64-28.18,131.43,19,185.01,17.99,18.6,32.92,32.71,57.22,43.08.79.35.75,1.89,1.38,1.95,1.52-.21,2.14-1.33,3.39-1.03,53.66,24.67,126.55,10.67,167-31-.64.65,14.99-13.61,15.03-13.47,3.19-5.85,7.42-10.94,10.97-16.53,38.29-48.79,36.5-130.03-2-177-3.68-5.53-7.69-10.26-12-15-.45-4.8-6.5-7.93-10.01-11.49-8.09-11.27-8.39-7.41-17.99-14.51Z"/>
  <path d="M229,153c2.55-22.63,406.73-6.49,422.54-11.05,8.93.31,34.36,6.43,37.46,14.05-11.02-6.63-23.44-11.23-36.45-12.05-13.59,3.13-423.55-8.58-423.55,9.05Z"/>
  <path d="M223,157c-15.61,13.98-24.55,33.6-26.04,54.46,5.16,22.39-13.34,526.84,13.04,530.54-27.85,21.65-8.83-532.29-14.04-537.54,2.3-18.43,11.82-37.17,27.04-47.46Z"/>
  <path d="M800,582c37.97,50.28,40.25,130.43,7,185,30.24-60.57,27.62-126.76-7-185Z"/>
  <path d="M692,158c15.32,10.61,24.93,27.83,26.98,46.52l.02,307.48c-3.07-1.39.04-297.09-1.01-299.5-1.35-21.24-9.51-41.06-25.99-54.5Z"/>
  <path d="M481,768l-227.54.04c-4.26-.78-9.46-1.58-13.46-3.04l241,3Z"/>
  <path d="M557,843c37.27,18.75,82.04,23.88,123,18-40.32,8.87-87.43,3.71-123-18Z"/>
  <path d="M738,838c-7.79,9.69-43.57,21.91-56,23-.59-3.09,1.52-1.7,3.33-2.12,18.77-4.35,35.86-11.86,52.67-20.88Z"/>
  <path d="M729,517c4.08,2.17,12.82,3.73,15,9-4.99-2.68-10.97-4.83-15-9Z"/>
  <path d="M781,557c-3.22-.6-17.53-16.66-20-19,9.27,6.84,12.7,10.63,20,19Z"/>
  <path d="M482,768c3.31-.79,2.8,4.53,4.08,6.21,6.78,12.61,18.61,22.35,25.92,34.79-11.38-12.21-23.86-25.16-30-41Z"/>
  <path d="M746,527c3.7,1.97,5.79,2.04,8,6,2.74,1.69,3.28,1.94,6,4-4.41.07-4.39-1.11-6-4-2.95-1.82-5.72-2.86-8-6Z"/>
  <path d="M772,813c-8.56,8.27-17.63,16.2-28,22,2.45-5.02,10.18-7.16,14.23-10.99,4.33-3.45,8.47-9.23,13.77-11.01Z"/>
  <path d="M789,567c4.56,1.79,6.8,6.97,9,11-1.97.45-2.24-1.11-3.08-2.38-1.82-2.77-4.6-5.99-5.92-8.62Z"/>
  <path d="M795,786l-5.17,8.85c-.5.49-1.72.02-1.83.15.95-3.61,5.14-6.63,7-9Z"/>
  <path d="M789,566c-2.02.1-2.97-1-3-3,.7.71,1.35-1.02,3,3Z"/>
  <path d="M529,825c4.67,1.27,18.04,12.02,22,15-7.91-3.85-15.23-9.4-22-15Z"/>
  <path d="M784,800c-2.87,3.22-6.53,7.52-10,11,.48-3.15,7.24-9.64,10-11Z"/>
  <path d="M518,815c2.4.79,7.04,3.67,7,6-1.92-1.68-4.71-3.83-7-6Z"/>
  <path d="M233,729c-8-2.39-10.44-19.15-11.05-26.45,0,0,.01-494.08.01-494.08.78-9.76,3.52-14.23,9.04-21.46-3,6.33-6.38,12.25-7.04,19.46v499.09c-.06,9.38,4.38,15.97,9.04,23.45Z"/>
  <path d="M499,568c-36.51,47.72-50.45,117.28-27,174h-217.5c-4.76-.73-18.05-5.48-19.5-11,4.73,2.43,13.2,9,18.5,9h215.5c-20.27-56.17-10.4-127.45,30-172Z"/>
  <path d="M660,171h-404,404Z"/>
  <path d="M686,189c.58,1.33,2.35,1.64,2.91,2.8,5.96,12.39,3.92,26.5,4.04,39.65.8,90-.49,180.04.06,270.04l-1-1.5c-3.11-15.01,7.24-303.99-6-311Z"/>
  <path d="M752,798c-40.44,41.67-113.34,55.68-167,31,56.34,20.07,122.82,9.05,167-31Z"/>
  <path d="M502,608c-25.33,51.04-21.71,112.96,9,161-32.43-42.79-38.25-113.73-9-161Z"/>
  <path d="M776,591c38.49,46.95,40.29,128.22,2,177,34.41-57.37,35.46-120.78-2-177Z"/>
  <path d="M552,550c50.4-43.16,130.4-41.71,184,0-57.67-39.84-126.63-40.08-184,0Z"/>
  <path d="M682,499c-61.12-10.05-105.56,3.3-154,38,40.58-35.71,101.01-52.75,154-38Z"/>
  <path d="M534,796c12.67,12,34.1,25.29,50,33-.36-.01-1.46,1.11-2.39,1.03-18.36-11.52-32.55-17.73-47.61-34.03Z"/>
  <path d="M661,172c4.61-3.56,14.48,4.9,17,8-5.25-3.08-10.73-6.87-17-8Z"/>
  <path d="M740,553c6.84,2.03,10.07,6.52,13.98,11.51,3.52,3.56,9.57,6.69,10.02,11.49-6.94-7.63-16.02-16.87-24-23Z"/>
  <path d="M527,538c-1.38,4.15-7.18,7.97-11,10,3.58-3.63,7.42-6.93,11-10Z"/>
  <path d="M520,580l-11.93,19.36c-.45,1.07-1.58.45-2.07.64-.58,1.15-1.49,2.94-2,4v-4.01c.62-.14,1.54.18,2,0,4.03-8.01,8.24-13.21,14-20Z"/>
  <path d="M506,559c2.26-2.78,4.32-5.15,7-8-1.11,2.96-3.7,7.55-7,8Z"/>
  <path d="M771,778c-1.82,5.46-13.75,15.3-18,19l18-19Z"/>
  <path d="M252,172c-6.15,3.45-12.84,6.02-18,11,5.85-6.4,9.38-9.09,18-11Z"/>
  <path d="M541,559c-2.7,2.33-5.45,4.51-8,7,.33-3.76,5.78-3.79,6.02-7.99l1.98.99Z"/>
  <path d="M683,185c2-.19,2.21-.1,2,2h-2s0-2,0-2Z"/>
  <path d="M523,785c2.7.16,4.79,4.93,7,7-2.41-2.36-4.66-4.08-7-7Z"/>
  <path d="M531,568c.33-.33.66-.67,1-1l-1,1Z"/>
  <path d="M526,573c1.01-1.07,2-1.98,3-3l-3,3Z"/>
  <path d="M310,353l294.56-.08c2.21,2.67,4.44,1.22,5.44,3.08,3.05,8.73,3.82,17.31-5.96,21.54l-289.56.48c-5.04-.38-9.21-5.75-9.47-10.54-.19-3.38,1.4-6.8,0-9.48,1.05-1.85,3.1-4.04,5-5Z"/>
  <path d="M604,265c7.76,6.49,7.94,22.22-3.48,24-95.9,1.73-193.33-2.91-288.52,1-12.27-4.29-11.41-23.14,0-26l283.62.07c1.18.58,3.12-1.07,3.38-1.07,1.95-.04,3.44,1.03,5,2Z"/>
  <path d="M308,443c4.02-1.08,8.45-2.55,12.61-2.9,52.38,1.87,105.26.79,157.94.95,16.49-4.9,32.56,6.88,19.45,22.95-58.4,6.77-118.68-.6-177.48,1.99-15.47-.76-19.6-9.36-12.52-22.99Z"/>
  <path d="M610,356c9.74,6.94,1.29,24.89-10.46,24.04l-283.06-.02c-10.4-2.15-17.26-11.81-11.48-22.02,1.4,2.68-.18,6.1,0,9.48.26,4.79,4.44,10.17,9.47,10.54l289.56-.48c9.78-4.23,9-12.81,5.96-21.54Z"/>
  <path d="M609,355c-.22-.15-3.18-.17-4.44-2.08l-294.56.08c97.6-4.83,197.4-1.76,295.29-.79l3.71,2.79Z"/>
  <path d="M312,290c95.19-3.91,192.61.73,288.52-1,11.35-1.77,11.3-17.51,3.48-24,11.99,7.45,8.21,23.99-5.48,26.02-95.47-.71-191.24,1.32-286.52-1.02Z"/>
  <path d="M308,443c1.39-1.19,2.62-2.48,4.45-3.05l179.96-.86c11.66,1.65,16.43,17.13,6.59,23.91,11.26-16.4-4.89-26.53-20.45-21.95-52.67-.16-105.56.91-157.94-.95-4.16.36-8.59,1.82-12.61,2.9Z"/>
  <path d="M599,263c-3.44,3.15-282.96-.09-287,1l287-1Z"/>
  <path d="M498,464c-.39,5.88-181.07.96-183.44,2.94-10.56-3.46-15.82-13.81-7.56-22.94-5.03,14.76-1.8,20.66,13.52,21.98,58.8-2.59,119.08,4.78,177.48-1.98Z"/>
  <path d="M725,608c2.79,0,4.68-1.61,7.5-2.03,5.06-.77,4.17,3.39,7.5,1.03,6.57,5,9.12,10.14,5,18h-2s0,2,0,2c-1.18,1.59-2.13,2.02-3,3-1.68-.07-3.95,2.13-4,4-1.98,1.99-4.03,4.01-6,6-1.9-.32-2.34.09-2,2-1.96,1.96-4.03,4.02-6,6h-2s0,2,0,2c-1.96,2.46-5.37,4.65-7.75,6.28-.49.58-.13,1.57-.25,1.72-6.99,7.83-16.67,14.67-23,23-2.27.91-6.52,3.81-7,7-2.35-1.34-33.47,35.38-35,36h-2s0,2,0,2c-.67.67-1.33,1.33-2,2-1.91-.34-2.32.1-2,2-5.32,5.35-10.7,10.63-16,16-20.1,12.07-37.58-21.63-52-33-6.99-7.04-14.01-13.93-21-21-8.54-6.77-7.63-12.12-6-22,.27-.35.67-.7,1-1,2.67,1.16,3.01-1.83,3.69-1.98,6.3-1,13.85.55,18.31,4.98,2.09,2.28,3.88,3.24,6,6,.95,1.26.4,3.67,3,3,.98.99,2.01,2.03,3,3-.34,1.91.1,2.32,2,2,5.34,5.32,10.66,10.68,16,16,0,2,.97,2.99,3,3,1.64,1.65,3.35,3.37,5,5-.32,1.9.09,2.34,2,2,1.58,1.23,5.26,6.33,6.5,7.98l11.5-12.98c4.4-2.53,7.89-7.18,11-11h2s0-2,0-2c19.7-20.6,42.5-38.93,60-61,1.91.34,2.32-.1,2-2,1.99-1.97,4.01-4.02,6-6,2.92.48,3.37-4.6,6-6,3.56-3.56,7.42-7.44,11-11Z"/>
  <path d="M699,634c-14.25,18.72-33.31,33.91-50,51,13.84-18.53,33.61-34.36,50-51Z"/>
  <path d="M725,608c6.04-4.54,8.6-5.87,15-1-3.33,2.36-2.44-1.8-7.5-1.03-2.82.43-4.71,2.04-7.5,2.03Z"/>
  <path d="M547,669c5.39-6.25,15.37-5.16,20,1-5.17-2.14-10.5-4.24-16.31-2.98-.68.15-1.03,3.14-3.69,1.98Z"/>
  <path d="M706,664c-1.03.46-15.46,18.74-17,17-1.19,1.64-1.34,3.67-3.98,5.57-1.28.92-2.58,1.12-3.02,1.43-7.41,10.51-24.09,25.17-34,35l31.49-34.05c.57-.82,2.1-.66,2.51-.95.48-3.19,4.74-6.09,7-7,4.2-5.8,11.88-11.94,17-17Z"/>
  <path d="M625,746c-5.27,5.09-9.12,5.28-16.37,2.87l-35.63-35.87c14.46,11.41,31.86,45.04,52,33Z"/>
  <path d="M547,687c-4.81-6.17-6.23-10.17-1-17-.57,5.79-2.64,11.74,1,17Z"/>
  <path d="M627,707l-11.5,12.98-4.5-5.98c1.48,1.5,2.64,4.6,5.3,3.89,3.95-3.25,7.14-7.27,10.7-10.89Z"/>
  <path d="M712,658c-.67-2.57,3.5-3.26,5-5-1.55,1.63-2.63,4-5,5Z"/>
  <path d="M647,724c-.67.66-1.33,1.33-2,2v-2s2,0,2,0Z"/>
  <path d="M578,681c-2.6.67-2.05-1.74-3-3,1.64.46,2.11,2.1,3,3Z"/>
  <path d="M722,648c-.65.65-1.38,1.35-2,2v-2s2,0,2,0Z"/>
  <path d="M643,728c-.66.66-1.34,1.34-2,2-.32-1.9.09-2.34,2-2Z"/>
  <path d="M583,686c-1.9.32-2.34-.09-2-2,.68.67,1.33,1.33,2,2Z"/>
  <path d="M640,694v2s-2,0-2,0c.67-.65,1.31-1.33,2-2Z"/>
  <path d="M730,640c-.67.68-1.32,1.33-2,2-.34-1.91.1-2.32,2-2Z"/>
  <path d="M636,698c-1.23,2.93-5.06,6.75-8,8,2.67-2.71,5.29-5.33,8-8Z"/>
  <path d="M609,712c-1.91.34-2.32-.1-2-2,.68.67,1.33,1.33,2,2Z"/>
  <path d="M740,630c-1.47,1.65-2.68,2.63-4,4,.05-1.87,2.32-4.07,4-4Z"/>
  <path d="M702,631c.32,1.9-.09,2.34-2,2,.67-.66,1.33-1.33,2-2Z"/>
  <path d="M745,625c-.69,1.31-1.63,1.5-2,2v-2s2,0,2,0Z"/>
  <path d="M712,621c-1.39,1.57-1.52,4.55-4,4,1.34-1.33,2.63-2.67,4-4Z"/>
  <path d="M726,644l-3,3c.86-.87,2.16-2.16,3-3Z"/>
  <path d="M599,702c1,1,2.01,2,3,3-2.03,0-3-1-3-3Z"/>
  <path d="M643,691c1.67-1.61,3.31-3.36,5-5l-5,5Z"/>
  <path d="M552,692c-.9-.97-1.87-1.7-3-3l3,3Z"/>
  <path d="M641,693c.34-.33.66-.67,1-1l-1,1Z"/>
  <path d="M592,695l-1-1c.33.33.67.67,1,1Z"/>
  <path d="M558,698c-.33-.33-.67-.66-1-1l1,1Z"/>
  <path d="M572,712l-7-7c2.35,2.32,4.67,4.68,7,7Z"/>
  <path d="M717,616c.98-.93,1.83-1.92,3-3l-3,3Z"/>
  <path d="M635,736l1-1c-.34.33-.66.67-1,1Z"/>
  <path d="M627,744c2.35-2.39,4.57-4.66,7-7l-7,7Z"/>
  <path d="M570,673l-1-1c.34.33.67.66,1,1Z"/>
  <path d="M718,652l1-1c-.31.35-.68.66-1,1Z"/>
  <path d="M734,636l1-1c-.34.33-.67.67-1,1Z"/>
  <path d="M722,611c.62-.55,1.09-1.25,2-2l-2,2Z"/>
  <path d="M706,627c.33-.33.67-.67,1-1l-1,1Z"/>
  <path d="M714,619c.67-.65,1.3-1.33,2-2l-2,2Z"/>
</svg>