<?xml version="1.0" encoding="UTF-8"?>
<svg id="Layer_1" xmlns="http://www.w3.org/2000/svg" version="1.1" viewBox="0 0 136 56.86">
  <!-- Generator: Adobe Illustrator 29.5.0, SVG Export Plug-In . SVG Version: 2.1.0 Build 137)  -->
  <defs>
    <style>
      .st0 {
        fill-rule: evenodd;
        stroke: #0f0f0f;
      }
    </style>
  </defs>
  <path class="st0" d="M113.63,38.58l2.18.65,1.69-.19,7.06-.8c.64-.07,1.27-.15,1.9-.24,1.4-.21,2.79-.57,4.07-1.19.69-.34,1.35-.76,1.95-1.24.4-.32.77-.71,1.07-1.13.33-.47.6-1,.79-1.54.2-.57.35-1.17.43-1.77.09-.67.14-1.37.14-2.05l.19-12.13.05-2.62c0-.73.02-1.64-.03-2.39-.03-.66-.14-1.14-.34-1.74-.27-.8-.7-1.5-1.31-2.08-.49-.47-1.06-.85-1.68-1.14-.65-.3-1.33-.53-2.03-.68-.55-.12-1.1-.19-1.67-.22-.59-.03-1.19-.04-1.79-.03h-.63l-9.32-.37c-3.87-.04-7.73.02-11.6.17v.59h-.36l-8.81-.43c-1.61-.11-3.22-.12-4.83-.04l-7.78.23v.52c-.44-.06-.88-.1-1.31-.13-.63-.04-1.25-.06-1.88-.06h-.3l-5.4-.36c-1.64-.05-3.28-.06-4.91-.03-.89,0-1.7.04-2.45.1,2.49-.38,4.98-.73,7.47-1.04,2.79-.35,5.58-.67,8.38-.95.03,0,.05,0,.08,0,.17-.02.34-.04.5-.06.64-.07,2.43-.25,3.26-.33.25-.03.51-.05.76-.08l.2-.03s.08,0,.12-.02c.43-.09.74-.48.74-.92,0-.5-.4-.92-.91-.94h-.06c-.09,0-.19,0-.29,0l-.47.02c-.69.03-3.16.14-4.15.19-.32.02-.65.03-.97.04-.11,0-.22,0-.33,0-2.19.16-4.38.34-6.57.54-2.46.22-4.91.47-7.35.76-5.22.6-10.26,1.36-15.38,2.26-1.82.32-3.64.66-5.45,1.02l-13.96.29-.95,3.86-.17.05-.32.09c-2.5.72-5.21,1.64-7.64,2.54-1,.37-2,.75-2.99,1.16-.98.4-1.95.82-2.91,1.26-1.91.88-3.76,1.84-5.56,2.93-1.25.75-2.44,1.56-3.59,2.44-1.25.96-2.47,2.04-3.55,3.2-.38.4-.74.83-1.08,1.26-.74.93-1.38,1.94-1.89,3-.27.57-.5,1.16-.69,1.77s-.32,1.24-.4,1.87c-.09.7-.11,1.41-.06,2.12.11,1.66.55,3.21,1.42,4.61.32.52.68,1.01,1.09,1.47.57.65,1.2,1.23,1.87,1.77.25.2.49.39.75.58.47.35.96.68,1.45,1,.89.58,1.86,1.16,2.8,1.66.44.23.87.44,1.32.65.95.45,1.94.86,2.92,1.25,1.8.71,3.72,1.37,5.59,1.94,3.84,1.18,7.83,2.15,11.78,2.91,4.51.87,8.84,1.53,13.35,2.01,4.85.52,9.76.83,14.63,1,4.23.16,8.11.22,12.24.23,3.57,0,7.14-.06,10.7-.18,1.87-.06,3.74-.14,5.62-.24,2.04-.1,4.07-.22,6.11-.34,2.17-.13,4.34-.29,6.51-.47,2.38-.2,4.77-.42,7.14-.67,1.77-.18,3.53-.39,5.3-.6,1.95-.24,3.9-.5,5.84-.79,1.46-.22,2.91-.45,4.36-.69l3.28-.64c.51-.1.84-.59.74-1.1-.09-.47-.53-.8-1-.76l-3.43.29c-2.04.21-4.07.4-6.1.58-2.24.19-4.47.37-6.71.52-2.99.21-5.97.39-8.96.56-1.67.09-3.35.18-5.02.25-1.98.09-3.97.17-5.96.23-1.68.05-3.36.09-5.04.11-1.88.03-3.76.03-5.64,0-1.89-.02-3.79-.06-5.68-.14-5.14-.2-10.25-.65-15.34-1.33-2.39-.32-4.77-.7-7.14-1.15-1.24-.23-2.48-.48-3.72-.75-1.37-.3-2.72-.62-4.08-.97-.37-.09-.75-.19-1.13-.29l1.6-9.05.76,4.13,4.52,2.74,2.55,1.55,1.93-.22,10.52-1.19-1.12-4.59,4.07,1.94c.19.15.39.29.6.42.42.25.87.46,1.33.63.49.18,1.01.32,1.53.42,1.24.23,2.5.34,3.76.33,1.33,0,2.75-.13,4.08-.31.53-.07,1.06-.14,1.58-.22.6-.09,1.2-.19,1.8-.31,1.3-.25,2.49-.6,3.67-1.15.35-.16.7-.33,1.04-.52.39-.21.77-.44,1.14-.68.33-.22.64-.46.94-.73l1.78.66,2.42.9,1-.11,9.21-1.03c1.7-.17,3.42-.49,5.06-1,.74-.23,1.49-.51,2.2-.82.49-.22.95-.5,1.37-.84l1.94.57-.02-.05-.03.04h0ZM127.69,6.81c.31,0,.61.03.91.06.91.09,1.85.34,2.69.71,1,.44,1.89,1.12,2.43,2.09.11.2.2.41.28.62.09.24.16.49.22.74.05.23.08.43.11.66.02.26.04.48.04.74,0,.5.02,1.01,0,1.51l-.05,2.97-.19,12.13c-.02,1.17-.09,2.18-.42,3.26-.15.49-.36.97-.63,1.41-.29.47-.66.89-1.09,1.24-.97.78-2.08,1.37-3.27,1.74-.65.21-1.3.36-1.98.47-.82.14-1.45.22-2.28.31l-8.63.98.37-31.5,6.25-.11,3.45-.04c.62,0,1.16,0,1.77,0h.02ZM108.44,7.55c.77.19,1.51.46,2.22.79.36.17.69.37,1.02.59.35.25.66.52.91.86.13.19.23.38.31.6.09.25.15.49.2.76.1.57.15,1.1.17,1.67.04,1.23,0,2.3-.02,3.49-.02.66-.07,1.21-.25,1.83-.18.63-.53,1.18-1.02,1.63-.24.22-.56.43-.86.59-.34.18-.69.35-1.04.49-1.35.55-2.52.86-3.9,1.27l1.76.25c.74.11,1.46.26,2.18.47.39.12.74.25,1.11.42.64.29,1.26.73,1.67,1.3.17.25.29.52.36.8.08.35.13.67.14,1.03.02.43.03.72.03,1.15l-.02,4.11c0,.72-.03,1.34-.14,2.02-.05.33-.13.65-.23.97-.12.36-.26.71-.43,1.05-.25.53-.58.98-1,1.38-.47.45-.99.8-1.59,1.07-2.26.99-4.58,1.5-7.03,1.76l-10.03,1.12.12-33.62,8.23-.17h0c1.06-.05,2.11-.07,3.17-.05.61,0,1.2.03,1.81.07.37.03.64.05,1,.09.39.04.75.11,1.14.19h0v.02h0ZM82.88,21.84c-.62-.42-1.23-.84-1.85-1.26-.51-.35-1.27-.87-1.92-1.34l.75.16v.24l2.97-.14.05,2.34h0ZM80.55,15.67c0-.73-.02-1.46-.05-2.18,0-.25-.05-.65-.1-.89-.04-.18-.08-.37-.19-.53-.09-.13-.26-.27-.39-.35-.14-.09-.28-.16-.44-.22-.62-.24-1.29-.24-1.91,0-.35.14-.67.38-.88.68-.09.13-.16.28-.21.43-.05.14-.08.28-.11.43-.05.27-.08.56-.09.83-.02.51-.02,1.07,0,1.58.03.49.13,1,.28,1.47.18.56.45,1.18.77,1.68.06.09.14.19.21.26.32.33.96.81,1.4,1.13.47.34.95.67,1.43.99l2.45,1.67.91.62c.87.58,1.37.92,2.22,1.52.51.36,1.01.73,1.5,1.12.29.23.5.4.79.65.3.26.56.52.82.82.28.33.51.69.68,1.09.08.21.15.43.2.65.05.25.09.5.12.76.05.57.07,1.09.07,1.66v1.79c0,.95,0,1.7-.11,2.59-.05.44-.13.86-.24,1.29-.13.46-.32.91-.56,1.33-.18.32-.4.62-.66.88-.29.29-.6.56-.94.8-.71.5-1.49.92-2.28,1.28-.49.23-.96.41-1.47.58-1.71.55-3.59.8-5.36,1.04-1.24.17-2.36.27-3.61.29-1.35.03-2.66-.07-3.99-.31-.83-.15-1.62-.42-2.37-.82-.38-.21-.75-.46-1.07-.75-.36-.33-.65-.69-.84-1.13-.16-.37-.27-.75-.34-1.14-.07-.46-.11-.89-.12-1.35-.01-.55,0-.88,0-1.43l.03-1.55v-4.86l9.43-.69v5.55h0c0,.43.02.86.05,1.29.04.46.12,1.09.27,1.53.04.13.11.27.19.37.12.15.29.29.47.37.45.22,1.04.29,1.55.26.52-.02,1.08-.14,1.54-.43.32-.21.55-.48.68-.84.04-.12.08-.25.11-.37.05-.23.08-.48.11-.72.04-.46.05-.95.05-1.4,0-.33,0-.66,0-1,0-.39-.03-.77-.07-1.16-.04-.38-.12-.78-.24-1.15-.14-.42-.37-.84-.65-1.18-.18-.22-.4-.44-.6-.63-1.2-1.11-3.11-2.4-4.66-3.33-.82-.49-1.48-.91-2.28-1.44-1-.65-1.89-1.27-2.85-1.99-.16-.12-.39-.29-.56-.4-.28-.19-.55-.4-.82-.62-.21-.17-.4-.36-.57-.57-.18-.22-.34-.46-.46-.72-.14-.31-.25-.63-.33-.96-.08-.37-.15-.74-.18-1.12-.08-.81-.09-1.61-.08-2.42v-1.29c0-.52.02-.94.06-1.45.04-.43.12-.85.26-1.26.16-.45.37-.87.63-1.28.19-.31.42-.58.69-.82.31-.28.63-.52.97-.73.36-.23.72-.42,1.1-.6.42-.21.84-.39,1.27-.57.47-.19.95-.34,1.45-.46.55-.13,1.09-.23,1.65-.3,1.2-.15,2.29-.22,3.5-.23h0c.55,0,1.1,0,1.66,0,1.23,0,2.44.04,3.66.21.67.09,1.31.23,1.96.43.33.1.63.21.95.33.68.26,1.35.61,1.89,1.09.56.5.94,1.17,1.14,1.89.11.39.17.78.21,1.18.04.46.07.84.08,1.3.02.52.02.88.02,1.4v3.32l-8.69.4-.07-3.18h-.04,0ZM64.18,6.62c-1.14.29-2.26.74-3.56,1.45-2.67,1.45-3.16,3.78-3.05,6.59l.03,2c.02.78.18,1.56.49,2.28.25.54.62,1.01,1.07,1.38.49.42,1,.82,1.54,1.2,1.59,1.17,3.25,2.26,4.95,3.28.86.5,1.69,1.05,2.5,1.62l-.35-.11-8.01.48-4.52-18.52c2.95-.61,5.94-1.16,8.91-1.65h0ZM30.27,42.86l8.45-34.66,15.69-.25,8.88,36.42-11.32,1.28-1.79-10.04-6.65.49-1.89,10.7-.17.02c-1.13-.32-2.25-.65-3.37-1-1.33-.42-2.65-.88-3.96-1.37-1.31-.49-2.6-1.02-3.87-1.59ZM29.97,16.51l-5.69,23.17c-.13-.08-.25-.16-.37-.24-.5-.32-.99-.66-1.47-1.02-.53-.39-1.05-.8-1.54-1.25-.25-.23-.5-.46-.74-.7-.53-.53-1.02-1.09-1.44-1.7-.23-.33-.45-.68-.64-1.04-.35-.65-.61-1.34-.78-2.05-.19-.78-.26-1.59-.2-2.39.04-.6.15-1.2.32-1.78s.4-1.15.68-1.69c.31-.6.68-1.16,1.1-1.69.33-.41.67-.8,1.03-1.19.38-.39.77-.77,1.18-1.14,1.8-1.6,3.91-2.93,6.04-4.06h0c.51-.27,1.03-.54,1.54-.8l.98-.45h0s0,.02,0,.02ZM125.84,33.84c.27-.13.52-.35.66-.62.09-.16.17-.37.21-.56.04-.17.08-.35.11-.53.13-.85.18-2.02.18-2.94l.2-15.79c0-.42-.03-.86-.09-1.27-.04-.26-.1-.52-.17-.77-.07-.24-.17-.49-.32-.7-.08-.13-.21-.26-.35-.33-.16-.08-.4-.15-.57-.18-.65-.13-1.33-.11-1.98-.09l-.17,24.19c.76-.02,1.59-.05,2.28-.4h.01ZM104.64,35.77c.28-.21.48-.47.59-.81.05-.15.09-.31.11-.46.04-.29.07-.59.08-.89.02-.59.03-1.18.02-1.77v-4.02c0-.49,0-.97-.02-1.46,0-.29-.02-.58-.04-.87-.02-.26-.06-.56-.14-.82-.09-.31-.27-.53-.55-.68-.73-.4-1.94-.35-2.8-.31v12.91c.82-.11,1.65-.22,2.39-.6.13-.06.25-.14.36-.23h0ZM49.26,31.15l-2.04-13.04h-.65l-2.02,13.28,4.79-.24h-.08ZM103.19,20.76c.35-.02.73-.09,1.05-.23.4-.17.78-.5.95-.92.08-.2.15-.45.18-.67.09-.53.15-1.25.17-1.83.03-.75.05-1.49.05-2.24,0-.64-.02-1.36-.1-2-.07-.6-.29-1.37-.76-1.82-.12-.12-.27-.22-.43-.27-.16-.06-.36-.11-.54-.13-.59-.07-1.22-.05-1.82-.03l-.06,10.26.43-.05c.29-.03.58-.06.87-.08h.01Z"/>
</svg>