<?xml version="1.0" encoding="UTF-8"?>
<svg id="Layer_1" xmlns="http://www.w3.org/2000/svg" version="1.1" viewBox="0 0 1024 1024">
  <!-- Generator: Adobe Illustrator 29.5.0, SVG Export Plug-In . SVG Version: 2.1.0 Build 137)  -->
  <defs>
    <style>
      .st0 {
        fill: #fff;
      }
    </style>
  </defs>
  <path d="M672.01,411.02l.5,1.99c21.33-.63,43.75,5.08,62.17,15.82,21.71,12.66,35.58,36.84,50.15,56.85,21.43,29.45,48.94,64.12,67,95,1.99,3.4.88,6.81,5.62,7.38,11.91,1.41,30.4-5.55,29.6,13.47-17.18,69.64-28.51,142.2-46.53,211.48-2.61,10.03-3.62,16.94-15.97,18.03H136.46c-10.13-.09-16.52-9.59-11.63-18.72l108.65-219.35c2.26-2.3,4.44-5,8-5l80.36-.14c2-5.2,4.84-10.02,7.74-14.75,21.79-35.47,47.07-76.18,71.19-109.81,25.5-35.54,64.47-52.34,108.22-50.28l-16.81-19.68c-50.65-70.73-12.09-172.36,73.61-189.02,111.37-21.65,189.36,106.28,118.18,195.18-3.23,4.03-7.29,9.6-11.97,11.55ZM583.8,222.3c-89.53,6.26-126.63,118.2-58.33,176.73,55.81,47.82,144.6,19.2,161.85-52.2,15.62-64.64-36.57-129.21-103.52-124.53ZM456,588h133.5l96.48-96.52c11.91-9.68,29.16-7.56,38.25,4.8,11.6,15.78,3.4,30.65-9.79,41.74l.02,1.96,25.55,33.52c4.84,2.68,28.2-1.4,35.29.71,8.09,2.41,8.5,17.48-2.77,18.82-47.08,2.76-98.48-3.74-145.06-.06-41.24,3.26-48.92,54.14-8.01,63.08l182.78-.3c26.7-5.42,43.94-29.29,36.06-56.54-2.32-8.04-8.81-16.53-13.49-23.51-26.27-39.2-56.18-76.19-82.85-115.15-23.29-25.87-67.42-31.78-100.38-27.45-4.22.55-8.49,3.35-12.57,4.43-23.33,6.13-43.4,7.62-67.22,2.2-6.88-1.57-15.95-6.15-22.24-6.76-45.12-4.35-91.64,1.77-120.37,39.74-27.84,36.78-50.28,80.96-77.37,118.63-12.49,32.23.2,45.82,25.88,61.48,13.67,8.34,63.72,39.74,75.91,41.09,23.95,2.66,41.91-14.95,38.15-39.15-2.79-18.01-37.36-36.58-48.78-51.22-4.99-6.4-3.33-8.6-.15-15.19,10.78-22.3,26.03-44.23,37.16-66.56,8.45-7.41,20.18.06,16.45,11.18l-30.44,55.05ZM632,574h21.5c1.3-1.41,2.13-3.15,3.47-4.53,14.09-14.45,38.29-34.41,49.44-49.56,8.17-11.1-.11-19.43-10.44-11.44-21.35,16.53-41.16,44.88-62.48,62.52l-1.49,3.01ZM715,574l-14.5-20.98c-5.1,6.14-13.28,11.81-18.01,17.98-.77,1.01-1.93,1.26-1.49,3.01h34ZM147,811h510l54-135h-29.5l-39.94,92.06c-1.53,3.45-5.1,5.29-8.49,6.51l-294.48.34c-7.71-1.04-10.89-6.49-9.14-13.98l37.56-86.92c-28.08-11.93-52.11-33.79-49-67.02l-69.35.16-101.66,203.84ZM572,607h-106c-.63,2.36.62,1.69,1.28,2.29,10.06,8.99,23.16,17.12,28.8,29.69,14.26-1.37,31.5,1.77,45.47.09,4.56-.55,3.89-4.4,6.44-7.56,6.87-8.49,17.27-15.66,24-24.5ZM859,607v15.5c0,8.35-10.2,25.7-16.03,31.97-29.5,31.73-72.6,18.47-111.01,21.99l-54.96,134.54h142.5l46.45-202.57c.48-2.88-5.21-.88-6.95-1.43ZM583,656.99c-3.83-7.8-8.23-15.19-9.49-23.98-12.59,9.7-17.2,24.66-22.49,38.99l31.99-15.01ZM536,657h-35c3.31,18.08-7.35,38.19-22.7,47.8-17.62,11.04-38.11,10.84-56.62,2.02-11.27-5.37-24.89-17.1-35.72-21.28-1.02-.39-1.79-.78-2.95-.54l-30,71c.37.49,1.27-1,1.49-1h271l34.5-79h-38.5c-1.24,0-7.84-1.09-9.55-1.45-4.85-1-8.56-3.35-13.21-4.39l-63.36,29.79c-25.12-2.86-1.33-29.93.62-42.95Z"/>
  <path d="M336.22,209.78l15.22,4.21c10.45-4.61,17.99-16.76,30.49-8.41,2.92,1.95,17.14,15.16,19.08,17.92,8.6,12.29-2.14,20.16-8,30.01l6.48,13.5c1.58,1.91,8.9.73,11.9,1.1,6.31.78,14.49,5.35,16.18,11.82,1.3,4.96,2.47,18.37,2.43,23.57-.12,14.98-15.7,19.03-27.92,19.58l-4.81,15.43c6.18,6.84,16.55,14.27,12.52,24.77-1.85,4.83-19.63,24.41-24.5,25.51-2.76.62-7.55.48-10.32-.26-4.08-1.08-10.83-8.42-13.46-8.5-3.67-.11-6.67,6.38-14.77,4.73-8.22-1.67-9.26-12.05-3.78-17.32,1.49-1.43,12.14-7.22,14.22-7.77,10.09-2.66,14.34,2.9,22.34,7.33l9.41-9.38c-4.18-4.77-11.36-10.39-11.97-17.14s3.52-9.96,5.52-15.52c1.33-3.7,1.56-8.59,3.02-11.98,3.75-8.71,15.14-10.26,23.51-9.99l-1-15.01c-6.1-.6-15.62-.08-20.53-3.97s-5.28-10.99-7.74-16.26c-2.28-4.86-7.74-10.71-7.75-16.27,0-6.28,7.37-13.2,10.98-18l-8.66-8.4c-2.09-.54-11.89,8.04-15.31,9.38-9.69,3.81-13.36-1.89-21.44-4.54-5.51-1.81-11.25-1.16-16.04-4.96-6.37-5.04-4.7-13.82-6.62-20.88l-14.9.88c-.19,7.76,1.53,16.92-4.97,22.53-4.12,3.56-8.25,3.18-12.7,5.3-8.43,4-13.32,10.3-23.3,6.65-4.95-1.81-8.25-6.06-13.02-8.04l-8.02,10.06c4.41,4.09,11.95,10.95,12.83,17.28.83,5.99-4.41,12.45-6.58,17.95-2.01,5.09-1.47,10.85-5.67,15.33-4.59,4.89-13.32,4.9-19.49,6l-.06,14.96c5.32-.11,10.9-.16,16.04,1.46,11.59,3.66,10.91,16.72,17.53,25.46,1.68,6.35-.89,12.82-8.09,13.15-9.48.43-14.82-12.4-16.59-19.95-11.48-1.01-25.61-1.07-28.44-15.07-.87-4.29-1.52-16.79-1.52-21.55,0-7.37,4.04-13.61,10.71-16.37,5.5-2.28,10.22-1.39,15.36-3.64.62-3.62,5.49-10.5,5.87-13.23.46-3.25-10.54-11.79-12.09-16.52-1.08-3.31-1.31-8.43-.31-11.77.67-2.27,17.25-21.88,19.59-23.41,10.83-7.06,19.92,1.26,28,7.99l14.82-5.67c-.74-10.74.96-26.07,13.86-28.64,5.53-1.1,24.49-2.15,29.57-1.01,11.24,2.51,11.18,16.76,12.93,25.57Z"/>
  <path d="M342.13,447.87c.3.3,3.39.37,4.67.82,9.18,3.21,12.68,7.97,12.18,17.81-.9,17.9-5.28,33.02-26.93,27.53-.05,2.46-3.01,5.15-2.83,7.32.27,3.1,4.07,7.35,3.74,12.05-.58,8.33-13.35,17.68-20.57,20.52-11.01,4.33-16.04-2.36-23.39-8.9-2.47,20.61-17.14,21.69-34.22,16.71-11.24-3.27-13.32-12.03-12.79-22.71-7.15,3.35-11.78,7.97-20.19,4.69-5.02-1.96-18.74-17.21-19.6-22.45-1.64-10.05,6.73-13.6,7.55-17.87,1.5-7.82-10.36-7.16-15.69-10.95-2.68-1.91-5.5-5.7-6-9-.72-4.67.36-20.67,2.09-24.78,2.3-5.44,7.18-7.3,12.6-8.4,5.12-1.05,8.27,1.39,10.04-6.05.85-3.58-1.77-3.96-2.99-6.51-3.65-7.58-4.8-13.6.67-20.72,2.81-3.66,15.99-14.98,20.25-15.74,3.65-.66,6.92-.25,10.28,1.26,6.84,3.07,7.02,10.29,16.27,5.29,3.49-1.88,2.74-5.41,4.23-8.77,6.07-13.73,19.18-11.43,31.54-8.56,6.35,1.47,12.54,5.09,14.26,11.74s-2.21,12.99,6.01,16.07c4.81,1.81,12.62-6.89,23.04-1.12,4.89,2.7,15.3,19.64,15.69,25.32s-1.44,9.9-5.06,14.04c-1.43,1.64-5.35,3.02-5.83,5.2-.15.69.75,5.95.97,6.17ZM337.99,476.01l1.54-9.07c-3.95-2.7-9.96-2.87-13-6.96-1.18-1.59-5.38-19.14-5.45-21.58-.18-6.68,6.39-11.11,10.49-15.4l-5.06-7.96c-12.79,8.88-16.06,3.85-26.17-2.88-3.57-2.38-7.64-2.63-10.19-6.81-3.01-4.93-2.17-10-1.56-15.39-13.36-5.36-9.15,1.2-13.08,9.05-.81,1.62-1.53,2.85-2.99,4.01-1.12.9-17.53,7.15-19.47,7.54-7.73,1.58-12.86-3.1-18.06-8.12-1.88-1.25-7.01,4.58-7.01,6.04.01,3.22,7.38,7.5,5.79,16.78-.26,1.49-9.28,18.85-10.25,19.76-3.44,3.22-10.32,3.96-14.88,4.12l-1.5,1.49c-3.01,12.16,7.94,6.63,14.37,12.35,2.27,2.02,8.51,17.55,8.51,20.51.01,8.16-10.16,11.58-5.02,18,3.92,4.9,5.45.34,9.61-1.39,4.58-1.9,6.93-2.64,11.63-.84,11.4,4.36,16.03,11.15,14.9,23.59l8.41,2.08c2.51-7.36,3.22-14.33,11.46-17.44,12.46-4.7,16.97-2.14,25.48,7.26l6.44-3.87c-1.37-4.81-4.37-8.91-3.87-14.27.19-2.07,7.75-14.2,9.52-16.56,4.69-6.26,12.47-6.09,19.42-4.06Z"/>
  <path d="M307.78,250.28c66.68-7.34,75.85,93.49,10.71,98.71-64.61,5.17-74.49-91.69-10.71-98.71ZM308.76,270.26c-36.76,5.31-30.2,63.87,9.66,58.65,37.79-4.94,30.64-64.47-9.66-58.65Z"/>
  <path class="st0" d="M715,574h-34c-.44-1.75.72-2,1.49-3.01,4.72-6.17,12.91-11.83,18.01-17.98l14.5,20.98Z"/>
  <path d="M266.76,423.26c57.62-8.34,51.81,78.98-.79,66.27-35.12-8.49-32.69-61.43.79-66.27ZM270.73,443.23c-9.52,1.98-12.51,14.44-7.26,21.8,5.04,7.07,16.02,7,21.56.48,8.68-10.2-.79-25.1-14.3-22.29Z"/>
</svg>