<?xml version="1.0" encoding="UTF-8"?>
<svg id="Layer_1" xmlns="http://www.w3.org/2000/svg" version="1.1" viewBox="0 0 1024 1024">
  <!-- Generator: Adobe Illustrator 29.5.0, SVG Export Plug-In . SVG Version: 2.1.0 Build 137)  -->
  <path d="M764.65,355.65c-9.77,11.06-24.57,23.53-35.62,34.88-2.86,2.93-15.7,13.71-16.51,15.49-2.08,4.58,1.64,29.5,3.44,35.53,1.03,3.44,7.7,19.79,9.76,21.5,16.55,7.55,34.3,13.15,52.77,12.92,20.32-16.47,37.77-36.25,57.18-53.81,9.76-7.08,22.71-2.48,25.1,9.57,17.83,89.97-63.46,170.51-153.01,155.01-7.72-1.34-15.03-4.93-22.73-6.3l-277.55,277.53c-48.63,32.94-106.06-24.58-74.91-73.91l278.97-279.1c.96-2.13-4.85-13.47-6-17-18.4-56.45,12.71-121.99,64.44-148.48,24.09-12.34,60.72-19.67,87.04-12,14.48,4.22,17.35,17.16,7.63,28.16ZM733,349.01c-32.07.43-66.05,15.04-85.41,41.08-18.96,25.5-27.79,60-18.07,90.89,3.05,9.7,13.88,23,8.33,32.37l-282.83,282.17c-20.13,24.51,13.63,61.99,38.99,40.99l281.03-280.97c10.35-6.39,23.34,4.13,34.73,6.19,66.65,12.02,128.55-37.48,127.22-105.73l-43.07,40.42c-11.88,8.63-32.56,4.41-46.15,1.31-32.88-7.5-47.5-16.83-56.49-50.51-2.89-10.83-6.05-34.65-3.84-45.27,3.19-15.34,33.8-36.56,44.06-49.94.77-1,1.94-1.27,1.49-3Z"/>
  <path d="M648.65,242.35c16.81,19.51,13.99,24.32.57,44.37-2.83,4.24-13.33,16.49-14.48,19.56-.85,2.27,1.58,9.34,1.32,13.26-.89,13.48-17.4,16.69-23.88,4.78-13.66-25.1,10-39.91,21.42-59.27l-45.31-45.92c-4.73-1.22-27.18,18.27-33.39,21.27-16.22,7.82-25.2-2.92-38.94-8.87-10.7-4.64-24.27-6.73-33.98-12.02-16.9-9.21-11.42-32.44-16.09-48.41l-66.93.36c-5.95,13.9.75,33.41-11.07,44.93-7.55,7.36-26.41,10.61-36.86,15.14-7.23,3.13-18.84,11.42-25.8,12.27-14.52,1.77-31.47-18.97-43.92-24.65-1.08-.49-1.93-1.58-3.28-.71l-46.92,46.19c5.79,12.32,25.9,29.16,25.88,42.86-.01,9.55-11.44,27.75-15.45,37.53-2.82,6.87-6.37,22.83-11.02,26.98-8.26,7.37-46.08,9.05-47.37,11.13v67.22s1.53,1.47,1.53,1.47c12.47,3.23,34.81,1.18,44.83,9.17,6.23,4.96,8.74,20.35,11.75,28.25,4.02,10.54,15.85,30.36,15.74,40.26-.14,12.62-20.08,29.68-25.82,41.01l46.53,46.36c2.13.56,4.28-1.58,6.01-2.65,9.22-5.67,25.69-22.4,35.92-22.87,9.83-.45,25.36,10.46,35.4,14.1,14.19,5.15,32.33,4.27,38.44,20.56,3.16,8.44,4.83,35.44,3.46,44.41s-13.05,12.24-19.91,7.04c-7.27-5.51-4.24-31.46-6.5-40.5-10.19-3.59-20.54-6.16-30.48-10.52-6.11-2.68-11.82-6.18-17.69-9.3-14.21,7.08-35.16,32.9-52.35,25.35-4.61-2.02-14.68-12-19-16-8.71-8.04-39.41-36.83-43.82-45.18-10.4-19.64,16.18-37.51,23.65-53.64-8.13-14.95-13.66-31.04-18.8-47.21-25.46-6.46-53.02,3.21-55.03-31.94-1.03-18.01-1.89-50.61.13-67.94,3.32-28.59,35.68-20.32,55.4-27.6,4.44-15.82,11.6-30.52,18.09-45.51-3.34-5.1-7.39-9.73-10.82-14.78-8.7-12.82-22.36-27.53-10.3-42.74,17.9-15.33,34.02-37.34,52.05-51.95,12.32-9.98,18.74-8.1,31.78-.83,8.89,4.96,18.19,14.53,26.35,18.67,1.32.67,1.94,1.23,3.61.97,3.71-.57,18.3-9.16,23.77-11.3,7.42-2.91,15.04-4.78,22.51-7.49,2.64-18.7.28-49.8,25.92-52.08,24.11-2.15,51.47,1.59,75.93.15,24.57,4.23,19.46,34.46,24.59,52.41,16.66,4,32.6,10.03,47.51,18.41,18.96-8.02,38.57-36.87,60.52-19.44,12.09,9.6,34.36,32.93,44.64,44.86Z"/>
  <path d="M531.65,518.65c-78.93,77.14-217.71,35.73-237.82-73.05-17.43-94.28,58.47-176.02,153.66-166.59,118.6,11.76,169.81,155.92,84.16,239.64ZM508.58,330.42c-62.13-51.99-157.84-28.09-184.85,48.81-31.45,89.53,51.13,175.74,142.06,150.06,86.67-24.48,112.01-140.95,42.79-198.87Z"/>
  <path d="M377.31,814.69c-8.75-7.73-.1-24.13,12.16-23.73,25.68.83,2.44,36.63-12.16,23.73Z"/>
</svg>