<?xml version="1.0" encoding="UTF-8"?>
<svg id="Layer_1" xmlns="http://www.w3.org/2000/svg" xmlns:ev="http://www.w3.org/2001/xml-events" version="1.1" viewBox="0 0 2049.15 536.31">
  <!-- Generator: Adobe Illustrator 29.5.0, SVG Export Plug-In . SVG Version: 2.1.0 Build 137)  -->
  <defs>
    <style>
      .st0 {
        fill: #fff;
      }
    </style>
  </defs>
  <path class="st0" d="M2032.79,513.34c.18-2.98.19-7.08,2.69-8.91.69-.5,3.82-1.88,4.45-1.88h8.69v-3.69h-57.69c-1.78,0-5.62-1.78-6.47-3.55-.88-1.84-1.09-6.57-1.19-8.83-.22-4.88-.72-21.09.52-24.83,1.13-3.42,6.06-4.64,9.34-4.78,14.72-.63,30.12.35,44.69.37,3.56,0,7.18-.25,10.8-.04v-4.22h-9.75c-.48,0-2.92-1.34-3.45-1.82-3.05-2.77-1.85-6.95-2.08-10.57-.4-6.32-1.58-18.28.15-24.12,1.74-5.89,10.19-5.01,15.14-5.15v-3.7l-27.16.03c-10.1-.85-21.94,1.23-31.98-.69-4.73-.9-5.76-2.86-6.18-7.52-.59-6.53-.53-18.2,0-24.77.1-1.23.5-4.38,1.02-5.31.55-.98,4.63-3.4,5.56-3.4h58.74v-3.69c-5.82-.62-13.94,1.38-15.23-6.11-1.16-6.74-1.25-23.83-.01-30.51,1.15-6.19,10.36-5.56,15.25-5.57v-3.17c-10.74-.77-21.62-.63-32.43-.55-7.77.06-15.85,1.2-23.7.57-3.55-.28-7.49-.83-8.53-4.64-1.33-4.86-1.28-25.94-.61-31.44.17-1.39.49-2.77,1.48-3.79.7-.71,4.79-2.34,5.57-2.34h58.21v-4.22h-8.17c-1.8,0-5.53-1.79-6.51-3.5-1.29-2.23-.43-3.26-.59-5.17-.63-7.29-1.45-20.08-.22-27.1.55-3.1,3.8-5.37,6.8-5.37h8.69l-.08-3.36-.69-.73c-4.44,1.21-9.32-.07-13.7-.16-14.4-.29-29.36,1.65-43.69-.03-4.55-.53-6.7-2.49-7.16-7.07-.49-4.86-.63-26.15.63-29.94.67-2.03,3.3-4.6,5.42-4.6h59.27v-3.69h-10.8c-2.74,0-3.91-2.88-4.42-5.07-1.28-5.59-1.19-26.93.05-32.52.5-2.25,5.61-4.59,7.53-4.59h7.64v-3.69h-57.16c-.21,0-3.4-.73-3.86-.88-2.12-.7-3.05-1.59-3.63-3.74-1.29-4.71-1.32-26.15-.68-31.51.43-3.61,3.79-5.25,7.1-5.55,13.83-1.23,32.13-.41,46.36-.53,3.86-.03,8.19-.35,11.87.55v-4.22s-8.69,0-8.69,0c-1.71,0-5.72-1.87-6.28-3.71-.63-9.31-1.46-19.42-.85-28.75.15-2.32.36-6.46,2.15-7.87.43-.34,3.66-1.87,3.93-1.87h9.75v-3.69h-59.8c-.66,0-3.35-1.75-3.87-2.45-.96-1.29-1.5-4.12-1.65-5.73-.62-6.63-.57-19.16,0-25.82.36-4.17.88-6.74,5.36-7.82l40.47-.24,19.5-.12v-3.69h-500.58V.03l21.38.02c4.66.63,5.29,3.38,5.6,7.58.52,7.05.74,21.13-.02,27.97-.75,6.77-5.46,5.78-10.78,6.61h-16.18s0,4.05,0,4.05c22.68.02,46.27-1.92,68.33-.4,4.46.31,9.62.68,10.26,6.07.78,6.53.64,22.86,0,29.56-.41,4.38-2.82,6.21-7.11,6.59-23.14-1.4-48.08,1.21-71.49.53v3.92l23.66.15c1.81,1.12,2.94,2.49,3.25,4.66.89,6.28.56,21.8.07,28.45-.43,5.85-1.82,7.47-7.73,8.09l-19.25.02v3.36c22.9-.86,47.22,1.63,69.91.35,4.73.7,8.07,1.18,8.68,6.61l-.29,31.88c-1.21,2.31-3.68,3.7-6.28,3.74h-72.02v3.7l21.38.02c5.04.68,5.3,4.22,5.6,8.63.47,6.75.71,19.86-.02,26.39-.5,4.49-2.88,6.05-7.17,6.53-6.53.74-13.14.8-19.78.65v3.73l71.49-.12c3.52.11,6.92,2.32,7.09,6.09l-.24,31.4c-3.48,5.93-10.94,3.7-16.33,3.64-20.66-.24-41.34.09-62.01.09v4.19l20.31.02c3.2.77,4.97.66,5.96,4.05,1.24,4.26,1.33,27.08.63,31.97-.85,6.03-7.18,5.41-11.78,6.13h-15.12s0,3.55,0,3.55c22.98.09,47.12-2.11,69.38-.43,4.37.33,8.62,1,9.2,6.09.76,6.77.67,22.67.02,29.55-.41,4.38-2.82,6.21-7.11,6.59-23.14-1.4-48.08,1.21-71.49.53v2.84c5.98-.07,11.92-.03,17.77.29,4.62.26,8.65.71,9.19,6.08.68,6.79.68,21.7.02,28.5-.46,4.75-3.72,6.81-8.2,7.08h-18.78v3.19c23.64-.94,49.25,2.04,72.55.49,2.79.17,5.91,1.27,6.05,4.49l-.25,33.53c-.94,2.04-3.07,3.41-5.28,3.68-23.94-1.11-49,1.04-73.06.37v3.75c5.87-.2,12.02-.57,17.6-.31,2.97.14,7.82,1.21,8.71,4.47,1.23,4.49,1.28,26.43.6,31.48-.52,3.83-3.22,6.01-7.04,6.13h-19.86s0,3.09,0,3.09c24.03-.52,49.35,1.91,73.07.56,3.46.1,5.12,1.61,5.51,5.03,1.01,8.93-.75,19.62,0,28.74h4.21c.45-9.07-.61-18.7.03-27.71.18-2.54.44-4.69,3.11-5.8h90.14c2.1.64,2.84,3.39,3.08,5.36,1.04,8.78-.65,19.2.06,28.15h4.21c-.29-8.19-1.31-17.91-.46-26.04.34-3.22,1.31-5.85,4.52-7.07,28.85-1.32,58.15-.55,87.09-.39,3.7,1.07,3.98,4.53,4.22,7.9.59,8.27-.48,17.25-.02,25.6h4.21c-1.2-7.5-.44-15.38.02-22.92.26-4.17-1.53-8.96,3.65-10.58,26.92.28,54.55-1.22,81.44-.27,3.93.14,9.58-.41,10.74,4.53l.03,29.24h4.21c.66-9.05-.89-19.31,0-28.21.23-2.34.77-4.35,3.13-5.31h91.18c2.24.85,3.28,1.85,3.62,4.29l.05,29.22h4.21c-.55-7.34-.99-15.59-.55-22.96ZM2023.1,411.3c1.16,0,4.08,1.01,4.83,1.75.57.56,1.12,2.42,1.21,3.27,1.09,9.83-.85,21.61,0,31.66-.09,2.08-1.68,3.7-3.55,4.36-29.3,1.49-58.98.2-88.42.66-2.62.04-4.66-1.38-5.8-3.68l-.25-31.95c.65-5.8,6.73-5.86,11.31-6.08,26.53-1.24,54.02,1,80.66,0ZM1630.96,415.92c1.59-4.43,6.93-4.19,10.84-4.44,24.45-1.56,50.1.86,74.68-.18,4.26.81,9.79.14,10.8,5.54-.72,9.52.87,20.2,0,29.57-.45,4.8-3.12,6.2-7.64,6.59-26.75-1.17-54.54,1.43-81.18,0-4.57-.25-7.02-.81-7.61-6.08-1.07-9.58.71-21.2.11-31ZM1687.19,406.87c-3.76-.87-5.31-1.72-5.77-5.83-.73-6.57-.61-21.28-.02-27.97.36-4.11,1.81-5.93,5.89-6.76,3.27-.66,8.38-.57,11.93-.71,23.36-.93,47.48,1.4,70.99.35,5.57.49,6.64,3.06,7.08,8.2.58,6.76.6,19.1.03,25.85-.26,3.09-.96,5.35-4.11,6.43-2.33.8-8.65,1.09-11.43,1.22-24.69,1.11-49.98-.26-74.6-.78ZM1630.82,233.85c.21-2.23,2.67-3.59,4.63-4.33l88.15.11c2.6,1.13,3.39,3.74,3.65,6.36.67,6.74.63,20.64.03,27.44-.24,2.7-1.07,5.18-3.71,6.31-1.88.8-6.95,1.21-9.2,1.34-9.98.57-20.13-.59-30.03-.57-14.59.02-33.41,2.2-47.4-.02-3.55-.56-5.67-1.73-6.1-5.49-1.1-9.68.84-21.25-.03-31.14ZM1681.41,97.81c.47-4.2,3.92-5.15,7.63-5.54,26.07,1.7,54.9-2.2,80.64,0,5.82.5,7.2,2.53,7.64,8.17.53,6.73.5,18.06-.03,24.8-.36,4.54-1.14,8.54-6.56,8.73-26.19-1.58-54.73,2.04-80.64,0-1.52-.12-5.91-.86-6.94-1.75-.85-.74-1.6-3.15-1.73-4.33-.74-6.47-.74-23.6-.01-30.07ZM1637.94,88.09c-3.34-.3-5.64-1.49-6.84-4.75l-.22-32.42c.88-3.78,4.69-4.77,8.12-5.06,26.04-2.23,56.2,1.1,82.5.78,1.11.24,3.21.8,4.02,1.51.78.69,1.62,2.67,1.76,3.78.78,6.41.57,21.88-.02,28.48-.52,5.79-3.7,7.2-9.19,7.67-25.58,2.19-54.22-1.7-80.12,0ZM1781,191.17c.54-6.03,2.85-7.22,8.66-7.67,25.75-2.02,54.09,1.57,80.12,0,1.44.1,4.32.82,5.35,1.77.89.81,1.6,3.08,1.74,4.32.76,6.7.55,21.06,0,27.94-.64,7.84-4.21,7.77-11.3,8.2-9.97.6-20.14-.56-30.03-.57-13.8-.02-27.99,1.21-41.68.56-3.48-.17-10.91-.29-12.11-4.19-.42-9.68-1.62-20.7-.75-30.34ZM1740.67,179.84c-5.74-.52-9.08-1.31-9.72-7.67-.64-6.44-.7-21.53.05-27.88.76-6.43,4.99-6.09,10.37-6.5,25.79-1.93,53.43,1.14,79.42-.18,4.26.41,5.62,2.54,6.03,6.62.68,6.89.64,21.03.03,27.96-.29,3.28-1.48,5.87-4.86,6.74-1.83.47-5.52.8-7.52.91-24.14,1.35-49.52-1.07-73.8,0ZM1822.63,229.64c2.79.92,3.89,2.99,4.2,5.81.72,6.49.59,20.81.02,27.44-.61,7.12-4.38,7.73-10.8,8.18-14.97,1.03-32.11-.65-47.46-.57-8.5.04-17.22,1.09-25.81.57-5.41-.33-11.02-.29-11.77-6.67-.78-6.63-.57-20.02-.08-26.86.23-3.21.59-6.95,4.08-8.04l87.62.14ZM1780.97,281.85c.4-4.69,2.35-6.7,7.11-7.12l84.59.27c2.25.95,3.91,2.15,4.21,4.75.79,6.79.57,22.03,0,29.03-.13,1.62-.58,4.8-1.76,5.88-.63.58-2.99,1.42-3.91,1.62-26.38.02-54.74,2.18-81.04.67-6.56-.38-8.59-1.26-9.18-8.2-.6-7.03-.62-19.88-.03-26.9ZM1831.73,322.89c.21-.29,2.02-1.3,2.48-1.47,3.48-1.28,15.1-1.24,19.72-1.35,19.55-.48,44.63-1.44,63.79,0,4.37.33,8.63,1,9.2,6.09.78,6.89.64,22.52.02,29.55-.4,4.51-2.07,6.19-6.59,6.59-26.57-1.75-55.99,2.25-82.23,0-2.82-.24-5.63-.87-6.86-3.68-.13-6.24-2.47-31.65.45-35.73ZM1892.4,316.96c-4-.25-10.86-.54-11.32-5.55.89-10-1.14-21.9,0-31.66.32-2.74,2.21-4.01,4.61-4.88l86.3-.14c3.98.29,7.11,1.1,7.62,5.56.77,6.83.61,22.03.02,29.02-.75,8.88-7.23,6.71-13.97,7.11-22.14,1.31-51.18,1.94-73.26.54ZM1926.94,263.43c-.1,1.2-.4,3.32-.95,4.32-2.15,3.96-14.2,2.6-18.32,2.75-19.01.71-37.84.3-56.85.57-5.42.08-18.73,1.86-19.73-5.08-1.08-7.51-1.13-20.28-.59-27.92.25-3.54.44-7.88,4.62-8.55l88.13.12c2.54.92,3.37,2.1,3.67,4.76.77,6.85.61,22.01.02,29.02ZM1887.21,225.12c-3.61-.5-5.68-1.63-6.12-5.48-1.09-9.63.79-21.23.03-31.08.84-3.68,4.48-4.52,7.77-4.88,26.2,1.13,54.51-2.04,80.47-.18,4.31.31,9.65.9,10.27,6.07.79,6.64.59,22.19,0,29.04-.22,2.59-1.38,5.08-3.93,6.08-1.48.59-7,.94-8.97,1.04-8.79.44-17.65-.53-26.34-.57-16.52-.08-37.39,2.16-53.18-.03ZM1926.94,172.2c-.09,1.23-.55,4.53-1.22,5.37-.85,1.07-4.41,2.3-5.89,2.28-26.64-1.5-55.31,1.92-81.7,0-7-.51-7.18-2.79-7.61-9.26-.47-6.96-.56-17.89-.02-24.8.6-7.73,3.79-7.75,10.8-8.18,25.11-1.51,51.7,1.19,76.96,0,3.75.59,8.12.19,8.68,5.02.82,7.02.55,22.28,0,29.56ZM1890.29,133.97c-3.6-.25-8.87-.51-9.21-5.02.84-10.05-1.09-21.82.01-31.65.37-3.32,1.96-4.67,5.13-5.41,20.33-.52,40.72.09,60.96.42,8.08.13,18.09-.85,25.84-.02,3.49.37,6.16,2.42,6.6,6.05.77,6.42.63,22.45,0,29.04-.41,4.38-2.82,6.21-7.11,6.59-26.86-1.44-55.59,1.85-82.23,0ZM1926.94,82.02c-.55,5.88-3.78,5.26-8.69,6.06-24.96-1.11-51.08,1.41-75.91,0-1.98-.11-6.2-.46-7.9-1.05-3.08-1.07-3.61-3.19-3.86-6.12-.61-7.29-.62-19.05-.09-26.35.32-4.49.85-7.38,5.68-8.55,26.07.92,53.53-1.65,79.45-.15,2.2.13,6.9.5,8.67,1.34,2.01.95,2.39,2.06,2.63,4.22.79,7.02.69,23.47.02,30.61ZM1838.7,92.31c.83,0,1.63-.39,2.24-.39,9.07-.07,20.56-1.03,29.34-.15,4.69.47,6.21,1.88,6.61,6.57.63,7.41.58,20.54,0,27.99-.52,6.74-3.66,7.32-9.73,7.64-25.91,1.39-53.03-1.09-79.07,0-2.82.03-6.06-1.49-6.54-4.53-1.09-6.86-1.34-24.19-.56-31.08.43-3.79,2.87-5.74,6.56-6.09,15.48-1.46,35.13.17,51.14.04ZM1826.82,81.47c-.52,5.15-3.47,6.01-8.14,6.62-25.13-1.36-52.04,1.74-76.96,0-2.19-.15-7.48-.88-9.03-2.3-1.19-1.08-1.63-4.26-1.76-5.88-.45-5.63-.79-22.9.23-27.88.89-4.35,4.23-6.09,8.46-6.17,24.91,1.42,51.76-1.81,76.43,0,6.73.49,10.24.9,10.8,8.18.55,7.07.67,20.48-.03,27.43ZM1720.16,137.62c3.95.37,6.6,1.23,7.09,5.56,1.11,9.79-.62,21.9-.25,31.92-.86,2.5-2.37,3.51-4.88,4.08-26.2-.19-54.98,2.47-81.03.67-4.57-.31-9.64-.64-10.25-6.09-.73-6.46-.77-24.19-.01-30.6.35-2.96,2.88-4.77,5.67-5.4l83.66-.15ZM1681.45,188.03c.41-2.64,2.64-3.21,4.7-4.26l81.43-.27c6.11.58,9.18,1.57,9.74,8.18.55,6.45.65,20-.08,26.33-.41,3.56-1.33,5.67-4.92,6.67-2.21.62-6.53.92-8.96,1.05-17.31.89-36.16-.7-53.78-.57-1.5.01-2.79.56-4.17.57-4.7.04-19.87.68-22.78-2.81-.75-.9-1.13-3.11-1.23-4.31-.82-9.76.63-20.69.05-30.58ZM1681.4,282.37c.31-3.98,1.15-6.16,5.14-7.51l83.14-.14c5,.43,7.1,2.01,7.61,7.14.67,6.74.63,20.64.03,27.44-.3,3.44-1.66,6.12-5.26,6.86-2.48.51-7.03.67-9.75.77-23.85.95-48.3-.75-72.22,0-3.89-.34-7.98-1.06-8.62-5.61-.89-6.36-.59-22.26-.07-28.98ZM1719.11,320.08c4.67.4,7.69,1.52,8.17,6.59.64,6.8.65,21.19-.03,27.96-.66,6.61-4.99,7.25-10.77,7.67-25.02,1.83-52.23-1.42-77.48,0-2.01-.18-4.97-.84-6.39-2.31-.97-1.01-1.6-2.9-1.76-4.3-.75-6.64-.68-22.82,0-29.53.44-4.35,3-5.58,7.09-6.08,26.25,1.71,55.25-2.21,81.17,0ZM1740.67,362.31c-4.45-.32-8.99-.99-9.68-6.13-.82-6.07-.58-21.04-.04-27.37.49-5.67,1.92-7.83,7.78-8.56,25.75,1.24,53.94-2.16,79.42-.17,4.83.38,8.07,1.23,8.68,6.61.74,6.63.55,20.62.02,27.44-.48,6.25-2.56,7.56-8.69,8.17-25.26-1.42-52.45,1.82-77.48,0ZM1781,373.1c.41-4.12,2.69-6.36,6.72-6.99l85.77.35c2.2,1.01,3.12,2.72,3.39,5.05.76,6.7.52,20.52.02,27.44-.49,6.75-1.9,8.17-8.69,8.7-10.8.84-21.95-.61-32.71-.57-14.35.05-29.33,1.61-43.72.57-6.42-.46-9.96-1.24-10.71-8.26-.67-6.31-.69-19.97-.06-26.29ZM1830.52,421.09c.34-5.17.36-8.47,6.18-9.64l82.61-.14c3.88.64,7.07.29,7.63,5.02.81,6.81.66,23.64,0,30.62-.4,4.28-2.38,5.69-6.58,6.07-26.58-1.75-55.98,2.25-82.23,0-2.28-.2-5.71-.96-6.8-3.21-1.4-2.88-1.1-24.29-.81-28.71ZM1888.71,407.66c-2.89-.31-7.06-1.16-7.59-4.53.92-10.12-1.37-22.82.02-32.62.64-4.55,3.93-4.56,7.75-4.9,23.35-2.1,49.42,2.11,73.1.4,6.36-.07,16.74-2.14,17.62,6.57.69,6.8.61,20.55.03,27.43-.58,6.88-5.34,7.24-11.32,7.65-25.82,1.75-53.57-1.37-79.59,0ZM2021.51,320.08c1.75.15,5.29.93,6.41,2.28.75.9,1.13,3.1,1.23,4.31.6,7.14.76,22.58-.02,29.55-.6,5.32-4.82,5.38-9.2,6.08-26.2-1.58-54.72,2.03-80.64,0-2.5-.2-7.06-.96-7.91-3.68l-.19-32.94c.99-7.11,11.52-4.44,16.53-5.61,23.82,1.61,50.28-2.06,73.8,0ZM2026.27,229.89c1.95.72,2.7,2.57,2.86,4.52l-.24,32.46c-1.12,3.67-8.3,4.02-11.6,4.21-18.7,1.11-39.86-.75-59.05-.57-6.49.06-18.72,2.06-24.48-.76-1.76-.86-2.41-1.69-2.64-3.69-.82-7.08-.62-23.33,0-30.62.25-2.93.66-4.71,3.57-5.92l91.58.36ZM2022.57,137.62c3.02.14,6.31,1.68,6.58,5.02l-.25,33.53c-.88,2.89-5.32,3.48-7.91,3.68-26.78,2.09-56.22-1.62-83.28,0-4.74-.42-6.21-2.03-6.54-6.59-.55-7.72-.87-22.61-.03-30.08.37-3.32,1.96-4.67,5.13-5.41l86.29-.15ZM2015.72,45.86c2.23.11,5.72.31,7.83.6,3.15.42,5.2,2.24,5.59,5.48.79,6.54.64,22.86,0,29.56-.56,5.95-5.15,6.24-10.27,6.59-26.13,1.8-54.3-1.41-80.65,0-3.36-.29-6.66-1.2-7.11-5.02-.81-6.87-.68-24.11.02-31.12.41-4.14,1.74-5,5.65-5.94,26.01.73,53.01-1.41,78.92-.15ZM1881.08,5.52c.54-4.5,3.93-4.95,7.81-5.37,26.15-2.8,56.51,1.79,83.1-.17,4.49.39,7.09,1.82,7.62,6.61.75,6.67.62,21.7.02,28.5-.41,4.63-2.48,6.71-7.11,7.12l-87.6-.43c-1.77-.8-3.47-2.04-3.8-4.11.83-10.12-1.22-22.29-.04-32.15ZM1780.99,6.07c.42-3.68,2.67-5.39,6.2-5.93,25.58.82,52.41-1.56,77.85-.16,1.95.11,6.37.43,8,.95,2.45.79,3.55,2.67,3.83,5.13.76,6.7.61,21.64.02,28.49-.42,4.89-2.02,7.2-7.11,7.65l-84.43-.43c-1.94-.63-3.5-2.62-3.8-4.64-1.08-7.16-1.38-23.93-.56-31.08ZM1681.41,5.52c.13-1.1.98-3.09,1.75-3.78.91-.82,3.54-1.75,4.82-1.77h81.71c5.43.57,7.13,2.34,7.61,7.68.62,6.92.62,19.98.03,26.9-.4,4.66-2.07,7.54-7.11,7.65-26.23-1.72-55.27,2.23-81.17,0-3.77-.32-7.13-1.29-7.63-5.54-.75-6.28-.76-24.87,0-31.14ZM1586.31,42.21c-2.95-.25-6.53-1.14-7.06-4.53-.34-2.12-.47-6.51-.58-8.91-.29-6.47-.53-15.85,0-22.19.3-3.52,1.07-5.32,4.62-6.45l86.83-.14c2.64.01,5.55.67,6.6,3.41,1.71,4.45,1.34,21.46,1.03,26.96-.11,1.94-.54,7.3-1.22,8.8-.95,2.11-3.75,2.94-5.9,3.06-27.26-1.79-57.42,2.31-84.33,0ZM1585.78,133.97c-2.73-.09-6.06-1.54-6.53-4.53-.36-2.27-.47-6.88-.58-9.44-.28-6.62-.23-16.19.54-22.71.38-3.19,2.73-4.38,5.68-4.86l89.19.1c3.18,1.3,3.42,4.97,3.65,7.94.54,6.9.61,18.99.03,25.85-.42,4.89-2.02,7.2-7.11,7.65h-84.86ZM1616.86,225.15c-10.21.06-21.28,1.36-31.54-.02-2.52-.34-5.65-2.31-6.08-4.99-1.46-9.21,1-21.98,0-31.58.83-3.56,3.97-4.47,7.23-4.89,27.16,1.47,57.35-2.46,84.16-.17,2.93.25,5.79.78,6.45,4.09,1.18,5.93,1.38,27.25-.13,32.86-1.62,6.03-9.17,4.44-13.74,4.71-15.52.92-30.81-.09-46.36,0ZM1587.89,316.95c-5.38-.75-8.44-.52-9.13-6.68-1.15-10.21.6-22.08.7-32.39.51-1.62,2.34-2.47,3.84-3.02l86.3-.14c6.62.57,7.64,2.39,8.14,8.73.47,5.93.34,14.58.03,20.58-.1,2-.37,6.49-.8,8.17-1.05,4.1-6.39,4.5-10,4.75-25.62,1.76-53.23-1.38-79.07,0ZM1590,407.66c-2.15-.13-6.81-.56-8.51-1.5-2.23-1.22-2.57-3.82-2.78-6.18-.42-4.7-.65-26.53.56-30.01,1.37-3.96,7.3-4.27,10.92-4.37,8.85-.24,17.89.38,26.69.4,16.43.04,36.22-1.41,52.2-.04,13.88,1.19,7.06,16.06,8.7,25.62-1.49,8.71,2.5,15.24-9.22,16.08-7.7.56-15.59-.61-23.18-.57-18.21.11-37.1,1.66-55.36.57ZM1677.73,488.58c-.17,2.2-.73,6.45-2.28,8-2.03,2.03-5.84,1.7-8.49,2.31-25.01-1.3-51.62,1.65-76.43,0-4.29-.29-10.9-.52-11.32-6.07l.25-31.42c1.35-4.4,9.44-4.29,13.2-4.42,8.44-.29,16.97.27,25.27.26,16.61-.02,37.14-1.48,53.25-.05,2.09.19,5.11.9,5.8,3.16.36,1.19.69,5.1.78,6.6.37,6.19.45,15.5-.03,21.64ZM1777.3,489.11c-.56,7.73-1.95,9.24-9.72,9.78-25.43,1.79-53.17-1.21-78.78-.24-1.79-.64-4.22-.7-5.61-2.07-.96-.94-1.61-2.95-1.76-4.3-.71-6.25-.74-23.33-.01-29.54.5-4.24,4.53-5.26,8.16-5.54,15.31-1.2,34.03-.02,49.52.04,9.81.04,23.43-1.15,32.7-.03,3.87.47,5.22,2.98,5.54,6.58.6,6.76.47,18.48-.03,25.33ZM1739.09,453.01c-7.38-.63-7.71-4.31-8.14-10.83-.38-5.87-.83-19.89.03-25.28.73-4.58,6.72-5.1,10.4-5.41,25.24-2.14,52.87,1.29,78.36-.18,3.8.32,6.6,1.31,7.11,5.54.78,6.55.6,22.3,0,29.04-.45,5.09-2.75,6.7-7.64,7.12-25.58,2.19-54.22-1.69-80.12,0ZM1876.89,490.71c-.45,5.27-2.17,7.69-7.64,8.18-16.99,1.52-37.54-.49-54.78-.57-8.2-.04-16.55,1.17-24.81.57-3.13-.23-7.53-.71-8.12-4.53-1.03-6.75-1.45-24.95-.51-31.56.66-4.63,5.22-5.77,9.26-5.91,12.67-.46,26.2.34,38.87.35,12.85.01,26.03-.81,38.92-.35,4.9.17,8.24,1.08,8.78,6.4.68,6.8.61,20.57.03,27.43ZM1979.36,494.14c-1.48,5.75-11.81,3.97-16.37,4.18-22.15,1.01-49.07,1.9-71.12.57-3.75-.23-10.01-.4-10.75-5.06.95-10.13-1.36-22.88-.06-32.69.34-2.53,3.13-4.06,5.55-4.17l88.8.49c1.9.79,3.82,2.06,4.17,4.26,1.47,9.33-.83,22.68-.22,32.42Z"/>
  <path class="st0" d="M1430.05,508.1c.23-2.34.77-4.35,3.13-5.31h75.98s0-.24,0-.24v-3.69h-19.31c-1.78,0-5.62-1.78-6.47-3.55-.88-1.84-1.09-6.57-1.19-8.83-.22-4.88-.72-21.09.52-24.83,1.13-3.42,6.06-4.64,9.34-4.78,5.64-.24,11.37-.24,17.12-.16v-3.83c-24.29.54-48.76-.27-73.07.11-2.62.04-4.66-1.38-5.8-3.68l-.25-31.95c.65-5.8,6.73-5.86,11.31-6.08,22.29-1.04,45.24.37,67.81.25v-4c-7.04.23-14.27.66-20.76-.58-4.73-.9-5.76-2.86-6.18-7.52-.59-6.53-.53-18.2,0-24.77.1-1.23.5-4.38,1.02-5.31.55-.98,4.63-3.4,5.56-3.4h20.37v-4.04c-23.44-.42-48.2,2.15-70.96.36-2.5-.2-7.06-.96-7.91-3.68l-.19-32.94c.99-7.11,11.52-4.44,16.53-5.61,20.09,1.36,42.05-1.02,62.54-.57v-2.91c-5.9.32-11.89.83-17.75.36-3.55-.28-7.49-.83-8.53-4.64-1.33-4.86-1.28-25.94-.61-31.44.17-1.39.49-2.77,1.48-3.79.7-.71,4.79-2.34,5.57-2.34h19.84v-3.39c-16.86.39-35.19-1.02-52-.85-6.49.06-18.72,2.06-24.48-.76-1.76-.86-2.41-1.69-2.64-3.69-.82-7.08-.62-23.33,0-30.62.25-2.93.66-4.71,3.57-5.92l75.56.3v-4.11c-6.65.18-13.28.17-19.78-.6-4.55-.53-6.7-2.49-7.16-7.07-.49-4.86-.63-26.15.63-29.94.67-2.03,3.3-4.6,5.42-4.6h20.89v-3.13c-23.78.65-49.06-1.95-72.55-.54-4.74-.42-6.21-2.03-6.54-6.59-.55-7.72-.87-22.61-.03-30.08.37-3.32,1.96-4.67,5.13-5.41l73.98-.13v-3.69h-18.79c-.21,0-3.4-.73-3.86-.88-2.12-.7-3.05-1.59-3.63-3.74-1.29-4.71-1.32-26.15-.68-31.51.43-3.61,3.79-5.25,7.1-5.55,6.01-.53,12.87-.68,19.86-.69v-3.07c-23.63.73-48.54-1.67-72.02-.42-3.36-.29-6.66-1.2-7.11-5.02-.81-6.87-.68-24.11.02-31.12.41-4.14,1.74-5,5.65-5.94,24.19.68,49.23-1.12,73.45-.36v-3.46h-21.42c-.66,0-3.35-1.75-3.87-2.45-.96-1.29-1.5-4.12-1.65-5.73-.62-6.63-.57-19.16,0-25.82.36-4.17.88-6.74,5.36-7.82l21.59-.13v-3.92h-468.05V.03l27.23.02c4.66.63,5.29,3.38,5.6,7.58.52,7.05.74,21.13-.02,27.97-.75,6.77-5.46,5.78-10.78,6.61h-22.03s0,4,0,4c24.44.43,50.22-2,74.18-.35,4.46.31,9.62.68,10.26,6.07.78,6.53.64,22.86,0,29.56-.41,4.38-2.82,6.21-7.11,6.59-25.08-1.51-52.27,1.67-77.34.28v4.13l29.51.19c1.81,1.12,2.94,2.49,3.25,4.66.89,6.28.56,21.8.07,28.45-.43,5.85-1.82,7.47-7.73,8.09l-25.1.03v3.67c24.58-1.62,51.12,1.44,75.76.04,4.73.7,8.07,1.18,8.68,6.61l-.29,31.88c-1.21,2.31-3.68,3.7-6.28,3.74h-77.87v3.7l27.23.02c5.04.68,5.3,4.22,5.6,8.63.47,6.75.71,19.86-.02,26.39-.5,4.49-2.88,6.05-7.17,6.53-8.44.96-17.03.78-25.63.46v3.92l77.34-.13c3.52.11,6.92,2.32,7.09,6.09l-.24,31.4c-3.48,5.93-10.94,3.7-16.33,3.64-22.61-.26-45.24.16-67.86.07v4.2l26.16.03c3.2.77,4.97.66,5.96,4.05,1.24,4.26,1.33,27.08.63,31.97-.85,6.03-7.18,5.41-11.78,6.13h-20.97s0,3.48,0,3.48c24.69.57,51.07-2.18,75.23-.36,4.37.33,8.62,1,9.2,6.09.76,6.77.67,22.67.02,29.55-.41,4.38-2.82,6.21-7.11,6.59-25.08-1.51-52.27,1.67-77.34.28v3.18c7.95-.17,15.86-.24,23.62.19,4.62.26,8.65.71,9.19,6.08.68,6.79.68,21.7.02,28.5-.46,4.75-3.72,6.81-8.2,7.08h-24.63v3.52c25.22-1.78,53.17,1.84,78.4.16,2.79.17,5.91,1.27,6.05,4.49l-.25,33.53c-.94,2.04-3.07,3.41-5.28,3.68-25.89-1.2-53.09,1.41-78.91.15v4.08c7.49.02,15.98-.77,23.45-.41,2.97.14,7.82,1.21,8.71,4.47,1.23,4.49,1.28,26.43.6,31.48-.52,3.83-3.22,6.01-7.04,6.13h-25.71s0,3.28,0,3.28c25.74-1.13,53.27,1.83,78.92.37,3.46.1,5.12,1.61,5.51,5.03,1.01,8.93-.75,19.62,0,28.74h4.21c.45-9.07-.61-18.7.03-27.71.18-2.54.44-4.69,3.11-5.8h90.14c2.1.64,2.84,3.39,3.08,5.36,1.04,8.78-.65,19.2.06,28.15h4.21c-.29-8.19-1.31-17.91-.46-26.04.34-3.22,1.31-5.85,4.52-7.07,28.85-1.32,58.15-.55,87.09-.39,3.7,1.07,3.98,4.53,4.22,7.9.59,8.27-.48,17.25-.02,25.6h4.21c-1.2-7.5-.44-15.38.02-22.92.26-4.17-1.53-8.96,3.65-10.58,26.92.28,54.55-1.22,81.44-.27,3.93.14,9.58-.41,10.74,4.53l.03,29.24h4.21c.66-9.05-.89-19.31,0-28.21ZM1460.88,366.01c6.36-.07,16.74-2.14,17.62,6.57.69,6.8.61,20.55.03,27.43-.58,6.88-5.34,7.24-11.32,7.65-25.82,1.75-53.57-1.37-79.59,0-2.89-.31-7.06-1.16-7.59-4.53.92-10.12-1.37-22.82.02-32.62.64-4.55,3.93-4.56,7.75-4.9,23.35-2.1,49.42,2.11,73.1.4ZM1129.86,415.92c1.59-4.43,6.93-4.19,10.84-4.44,24.45-1.56,50.1.86,74.68-.18,4.26.81,9.79.14,10.8,5.54-.72,9.52.87,20.2,0,29.57-.45,4.8-3.12,6.2-7.64,6.59-26.75-1.17-54.54,1.43-81.18,0-4.57-.25-7.02-.81-7.61-6.08-1.07-9.58.71-21.2.11-31ZM1186.09,406.87c-3.76-.87-5.31-1.72-5.77-5.83-.73-6.57-.61-21.28-.02-27.97.36-4.11,1.81-5.93,5.89-6.76,3.27-.66,8.38-.57,11.93-.71,23.36-.93,47.48,1.4,70.99.35,5.57.49,6.64,3.06,7.08,8.2.58,6.76.6,19.1.03,25.85-.26,3.09-.96,5.35-4.11,6.43-2.33.8-8.65,1.09-11.43,1.22-24.69,1.11-49.98-.26-74.6-.78ZM1129.72,233.85c.21-2.23,2.67-3.59,4.63-4.33l88.15.11c2.6,1.13,3.39,3.74,3.65,6.36.67,6.74.63,20.64.03,27.44-.24,2.7-1.07,5.18-3.71,6.31-1.88.8-6.95,1.21-9.2,1.34-9.98.57-20.13-.59-30.03-.57-14.59.02-33.41,2.2-47.4-.02-3.55-.56-5.67-1.73-6.1-5.49-1.1-9.68.84-21.25-.03-31.14ZM1180.31,97.81c.47-4.2,3.92-5.15,7.63-5.54,26.07,1.7,54.9-2.2,80.64,0,5.82.5,7.2,2.53,7.64,8.17.53,6.73.5,18.06-.03,24.8-.36,4.54-1.14,8.54-6.56,8.73-26.19-1.58-54.73,2.04-80.64,0-1.52-.12-5.91-.86-6.94-1.75-.85-.74-1.6-3.15-1.73-4.33-.74-6.47-.74-23.6-.01-30.07ZM1136.84,88.09c-3.34-.3-5.64-1.49-6.84-4.75l-.22-32.42c.88-3.78,4.69-4.77,8.12-5.06,26.04-2.23,56.2,1.1,82.5.78,1.11.24,3.21.8,4.02,1.51.78.69,1.62,2.67,1.76,3.78.78,6.41.57,21.88-.02,28.48-.52,5.79-3.7,7.2-9.19,7.67-25.58,2.19-54.22-1.7-80.12,0ZM1337.6,92.31c.83,0,1.63-.39,2.24-.39,9.07-.07,20.56-1.03,29.34-.15,4.69.47,6.21,1.88,6.61,6.57.63,7.41.58,20.54,0,27.99-.52,6.74-3.66,7.32-9.73,7.64-25.91,1.39-53.03-1.09-79.07,0-2.82.03-6.06-1.49-6.54-4.53-1.09-6.86-1.34-24.19-.56-31.08.43-3.79,2.87-5.74,6.56-6.09,15.48-1.46,35.13.17,51.14.04ZM1329.39,54.56c.32-4.49.85-7.38,5.68-8.55,26.07.92,53.53-1.65,79.45-.15,2.2.13,6.9.5,8.67,1.34,2.01.95,2.39,2.06,2.63,4.22.79,7.02.69,23.47.02,30.61-.55,5.88-3.78,5.26-8.69,6.06-24.96-1.11-51.08,1.41-75.91,0-1.98-.11-6.2-.46-7.9-1.05-3.08-1.07-3.61-3.19-3.86-6.12-.61-7.29-.62-19.05-.09-26.35ZM1375.79,308.78c-.13,1.62-.58,4.8-1.76,5.88-.63.58-2.99,1.42-3.91,1.62-26.38.02-54.74,2.18-81.04.67-6.56-.38-8.59-1.26-9.18-8.2-.6-7.03-.62-19.88-.03-26.9.4-4.69,2.35-6.7,7.11-7.12l84.59.27c2.25.95,3.91,2.15,4.21,4.75.79,6.79.57,22.03,0,29.03ZM1416.63,320.08c4.37.33,8.63,1,9.2,6.09.78,6.89.64,22.52.02,29.55-.4,4.51-2.07,6.19-6.59,6.59-26.57-1.75-55.99,2.25-82.23,0-2.82-.24-5.63-.87-6.86-3.68-.13-6.24-2.47-31.65.45-35.73.21-.29,2.02-1.3,2.48-1.47,3.48-1.28,15.1-1.24,19.72-1.35,19.55-.48,44.63-1.44,63.79,0ZM1267.49,270.5c-8.5.04-17.22,1.09-25.81.57-5.41-.33-11.02-.29-11.77-6.67-.78-6.63-.57-20.02-.08-26.86.23-3.21.59-6.95,4.08-8.04l87.62.14c2.79.92,3.89,2.99,4.2,5.81.72,6.49.59,20.81.02,27.44-.61,7.12-4.38,7.73-10.8,8.18-14.97,1.03-32.11-.65-47.46-.57ZM1349.72,271.08c-5.42.08-18.73,1.86-19.73-5.08-1.08-7.51-1.13-20.28-.59-27.92.25-3.54.44-7.88,4.62-8.55l88.13.12c2.54.92,3.37,2.1,3.67,4.76.77,6.85.61,22.01.02,29.02-.1,1.2-.4,3.32-.95,4.32-2.15,3.96-14.2,2.6-18.32,2.75-19.01.71-37.84.3-56.85.57ZM1375.77,217.52c-.64,7.84-4.21,7.77-11.3,8.2-9.97.6-20.14-.56-30.03-.57-13.8-.02-27.99,1.21-41.68.56-3.48-.17-10.91-.29-12.11-4.19-.42-9.68-1.62-20.7-.75-30.34.54-6.03,2.85-7.22,8.66-7.67,25.75-2.02,54.09,1.57,80.12,0,1.44.1,4.32.82,5.35,1.77.89.81,1.6,3.08,1.74,4.32.76,6.7.55,21.06,0,27.94ZM1239.57,179.84c-5.74-.52-9.08-1.31-9.72-7.67-.64-6.44-.7-21.53.05-27.88.76-6.43,4.99-6.09,10.37-6.5,25.79-1.93,53.43,1.14,79.42-.18,4.26.41,5.62,2.54,6.03,6.62.68,6.89.64,21.03.03,27.96-.29,3.28-1.48,5.87-4.86,6.74-1.83.47-5.52.8-7.52.91-24.14,1.35-49.52-1.07-73.8,0ZM1337.03,179.85c-7-.51-7.18-2.79-7.61-9.26-.47-6.96-.56-17.89-.02-24.8.6-7.73,3.79-7.75,10.8-8.18,25.11-1.51,51.7,1.19,76.96,0,3.75.59,8.12.19,8.68,5.02.82,7.02.55,22.28,0,29.56-.09,1.23-.55,4.53-1.22,5.37-.85,1.07-4.41,2.3-5.89,2.28-26.64-1.5-55.31,1.92-81.7,0ZM1325.72,81.47c-.52,5.15-3.47,6.01-8.14,6.62-25.13-1.36-52.04,1.74-76.96,0-2.19-.15-7.48-.88-9.03-2.3-1.19-1.08-1.63-4.26-1.76-5.88-.45-5.63-.79-22.9.23-27.88.89-4.35,4.23-6.09,8.46-6.17,24.91,1.42,51.76-1.81,76.43,0,6.73.49,10.24.9,10.8,8.18.55,7.07.67,20.48-.03,27.43ZM1219.06,137.62c3.95.37,6.6,1.23,7.09,5.56,1.11,9.79-.62,21.9-.25,31.92-.86,2.5-2.37,3.51-4.88,4.08-26.2-.19-54.98,2.47-81.03.67-4.57-.31-9.64-.64-10.25-6.09-.73-6.46-.77-24.19-.01-30.6.35-2.96,2.88-4.77,5.67-5.4l83.66-.15ZM1180.35,188.03c.41-2.64,2.64-3.21,4.7-4.26l81.43-.27c6.11.58,9.18,1.57,9.74,8.18.55,6.45.65,20-.08,26.33-.41,3.56-1.33,5.67-4.92,6.67-2.21.62-6.53.92-8.96,1.05-17.31.89-36.16-.7-53.78-.57-1.5.01-2.79.56-4.17.57-4.7.04-19.87.68-22.78-2.81-.75-.9-1.13-3.11-1.23-4.31-.82-9.76.63-20.69.05-30.58ZM1180.3,282.37c.31-3.98,1.15-6.16,5.14-7.51l83.14-.14c5,.43,7.1,2.01,7.61,7.14.67,6.74.63,20.64.03,27.44-.3,3.44-1.66,6.12-5.26,6.86-2.48.51-7.03.67-9.75.77-23.85.95-48.3-.75-72.22,0-3.89-.34-7.98-1.06-8.62-5.61-.89-6.36-.59-22.26-.07-28.98ZM1218.01,320.08c4.67.4,7.69,1.52,8.17,6.59.64,6.8.65,21.19-.03,27.96-.66,6.61-4.99,7.25-10.77,7.67-25.02,1.83-52.23-1.42-77.48,0-2.01-.18-4.97-.84-6.39-2.31-.97-1.01-1.6-2.9-1.76-4.3-.75-6.64-.68-22.82,0-29.53.44-4.35,3-5.58,7.09-6.08,26.25,1.71,55.25-2.21,81.17,0ZM1239.57,362.31c-4.45-.32-8.99-.99-9.68-6.13-.82-6.07-.58-21.04-.04-27.37.49-5.67,1.92-7.83,7.78-8.56,25.75,1.24,53.94-2.16,79.42-.17,4.83.38,8.07,1.23,8.68,6.61.74,6.63.55,20.62.02,27.44-.48,6.25-2.56,7.56-8.69,8.17-25.26-1.42-52.45,1.82-77.48,0ZM1279.9,373.1c.41-4.12,2.69-6.36,6.72-6.99l85.77.35c2.2,1.01,3.12,2.72,3.39,5.05.76,6.7.52,20.52.02,27.44-.49,6.75-1.9,8.17-8.69,8.7-10.8.84-21.95-.61-32.71-.57-14.35.05-29.33,1.61-43.72.57-6.42-.46-9.96-1.24-10.71-8.26-.67-6.31-.69-19.97-.06-26.29ZM1329.42,421.09c.34-5.17.36-8.47,6.18-9.64l82.61-.14c3.88.64,7.07.29,7.63,5.02.81,6.81.66,23.64,0,30.62-.4,4.28-2.38,5.69-6.58,6.07-26.58-1.75-55.98,2.25-82.23,0-2.28-.2-5.71-.96-6.8-3.21-1.4-2.88-1.1-24.29-.81-28.71ZM1470.89,274.72c3.98.29,7.11,1.1,7.62,5.56.77,6.83.61,22.03.02,29.02-.75,8.88-7.23,6.71-13.97,7.11-22.14,1.31-51.18,1.94-73.26.54-4-.25-10.86-.54-11.32-5.55.89-10-1.14-21.9,0-31.66.32-2.74,2.21-4.01,4.61-4.88l86.3-.14ZM1468.26,183.5c4.31.31,9.65.9,10.27,6.07.79,6.64.59,22.19,0,29.04-.22,2.59-1.38,5.08-3.93,6.08-1.48.59-7,.94-8.97,1.04-8.79.44-17.65-.53-26.34-.57-16.52-.08-37.39,2.16-53.18-.03-3.61-.5-5.68-1.63-6.12-5.48-1.09-9.63.79-21.23.03-31.08.84-3.68,4.48-4.52,7.77-4.88,26.2,1.13,54.51-2.04,80.47-.18ZM1446.09,92.31c8.08.13,18.09-.85,25.84-.02,3.49.37,6.16,2.42,6.6,6.05.77,6.42.63,22.45,0,29.04-.41,4.38-2.82,6.21-7.11,6.59-26.86-1.44-55.59,1.85-82.23,0-3.6-.25-8.87-.51-9.21-5.02.84-10.05-1.09-21.82.01-31.65.37-3.32,1.96-4.67,5.13-5.41,20.33-.52,40.72.09,60.96.42ZM1379.98,5.52c.54-4.5,3.93-4.95,7.81-5.37,26.15-2.8,56.51,1.79,83.1-.17,4.49.39,7.09,1.82,7.62,6.61.75,6.67.62,21.7.02,28.5-.41,4.63-2.48,6.71-7.11,7.12l-87.6-.43c-1.77-.8-3.47-2.04-3.8-4.11.83-10.12-1.22-22.29-.04-32.15ZM1279.89,6.07c.42-3.68,2.67-5.39,6.2-5.93,25.58.82,52.41-1.56,77.85-.16,1.95.11,6.37.43,8,.95,2.45.79,3.55,2.67,3.83,5.13.76,6.7.61,21.64.02,28.49-.42,4.89-2.02,7.2-7.11,7.65l-84.43-.43c-1.94-.63-3.5-2.62-3.8-4.64-1.08-7.16-1.38-23.93-.56-31.08ZM1180.31,5.52c.13-1.1.98-3.09,1.75-3.78.91-.82,3.54-1.75,4.82-1.77h81.71c5.43.57,7.13,2.34,7.61,7.68.62,6.92.62,19.98.03,26.9-.4,4.66-2.07,7.54-7.11,7.65-26.23-1.72-55.27,2.23-81.17,0-3.77-.32-7.13-1.29-7.63-5.54-.75-6.28-.76-24.87,0-31.14ZM1085.21,42.21c-2.95-.25-6.53-1.14-7.06-4.53-.34-2.12-.47-6.51-.58-8.91-.29-6.47-.53-15.85,0-22.19.3-3.52,1.07-5.32,4.62-6.45l86.83-.14c2.64.01,5.55.67,6.6,3.41,1.71,4.45,1.34,21.46,1.03,26.96-.11,1.94-.54,7.3-1.22,8.8-.95,2.11-3.75,2.94-5.9,3.06-27.26-1.79-57.42,2.31-84.33,0ZM1084.68,133.97c-2.73-.09-6.06-1.54-6.53-4.53-.36-2.27-.47-6.88-.58-9.44-.28-6.62-.23-16.19.54-22.71.38-3.19,2.73-4.38,5.68-4.86l89.19.1c3.18,1.3,3.42,4.97,3.65,7.94.54,6.9.61,18.99.03,25.85-.42,4.89-2.02,7.2-7.11,7.65h-84.86ZM1115.76,225.15c-10.21.06-21.28,1.36-31.54-.02-2.52-.34-5.65-2.31-6.08-4.99-1.46-9.21,1-21.98,0-31.58.83-3.56,3.97-4.47,7.23-4.89,27.16,1.47,57.35-2.46,84.16-.17,2.93.25,5.79.78,6.45,4.09,1.18,5.93,1.38,27.25-.13,32.86-1.62,6.03-9.17,4.44-13.74,4.71-15.52.92-30.81-.09-46.36,0ZM1086.79,316.95c-5.38-.75-8.44-.52-9.13-6.68-1.15-10.21.6-22.08.7-32.39.51-1.62,2.34-2.47,3.84-3.02l86.3-.14c6.62.57,7.64,2.39,8.14,8.73.47,5.93.34,14.58.03,20.58-.1,2-.37,6.49-.8,8.17-1.05,4.1-6.39,4.5-10,4.75-25.62,1.76-53.23-1.38-79.07,0ZM1088.9,407.66c-2.15-.13-6.81-.56-8.51-1.5-2.23-1.22-2.57-3.82-2.78-6.18-.42-4.7-.65-26.53.56-30.01,1.37-3.96,7.3-4.27,10.92-4.37,8.85-.24,17.89.38,26.69.4,16.43.04,36.22-1.41,52.2-.04,13.88,1.19,7.06,16.06,8.7,25.62-1.49,8.71,2.5,15.24-9.22,16.08-7.7.56-15.59-.61-23.18-.57-18.21.11-37.1,1.66-55.36.57ZM1176.63,488.58c-.17,2.2-.73,6.45-2.28,8-2.03,2.03-5.84,1.7-8.49,2.31-25.01-1.3-51.62,1.65-76.43,0-4.29-.29-10.9-.52-11.32-6.07l.25-31.42c1.35-4.4,9.44-4.29,13.2-4.42,8.44-.29,16.97.27,25.27.26,16.61-.02,37.14-1.48,53.25-.05,2.09.19,5.11.9,5.8,3.16.36,1.19.69,5.1.78,6.6.37,6.19.45,15.5-.03,21.64ZM1276.2,489.11c-.56,7.73-1.95,9.24-9.72,9.78-25.43,1.79-53.17-1.21-78.78-.24-1.79-.64-4.22-.7-5.61-2.07-.96-.94-1.61-2.95-1.76-4.3-.71-6.25-.74-23.33-.01-29.54.5-4.24,4.53-5.26,8.16-5.54,15.31-1.2,34.03-.02,49.52.04,9.81.04,23.43-1.15,32.7-.03,3.87.47,5.22,2.98,5.54,6.58.6,6.76.47,18.48-.03,25.33ZM1237.99,453.01c-7.38-.63-7.71-4.31-8.14-10.83-.38-5.87-.83-19.89.03-25.28.73-4.58,6.72-5.1,10.4-5.41,25.24-2.14,52.87,1.29,78.36-.18,3.8.32,6.6,1.31,7.11,5.54.78,6.55.6,22.3,0,29.04-.45,5.09-2.75,6.7-7.64,7.12-25.58,2.19-54.22-1.69-80.12,0ZM1375.79,490.71c-.45,5.27-2.17,7.69-7.64,8.18-16.99,1.52-37.54-.49-54.78-.57-8.2-.04-16.55,1.17-24.81.57-3.13-.23-7.53-.71-8.12-4.53-1.03-6.75-1.45-24.95-.51-31.56.66-4.63,5.22-5.77,9.26-5.91,12.67-.46,26.2.34,38.87.35,12.85.01,26.03-.81,38.92-.35,4.9.17,8.24,1.08,8.78,6.4.68,6.8.61,20.57.03,27.43ZM1390.77,498.89c-3.75-.23-10.01-.4-10.75-5.06.95-10.13-1.36-22.88-.06-32.69.34-2.53,3.13-4.06,5.55-4.17l88.8.49c1.9.79,3.82,2.06,4.17,4.26,1.47,9.33-.83,22.68-.22,32.42-1.48,5.75-11.81,3.97-16.37,4.18-22.15,1.01-49.07,1.9-71.12.57Z"/>
  <path class="st0" d="M1547.52,365.68v-2.86c-3.26-.1-6.49-.26-9.68-.51-5.44-.43-8.61-1.23-9.19-7.14-.12-1.2-.2-2.55-.26-3.97-.09,1.92-.2,3.65-.36,5.03-.6,5.32-4.82,5.38-9.2,6.08-.29-.02-.58-.03-.87-.04-2.85.29-6.09-.08-8.81.02v3.69h24.24c4.71-.11,9.43-.24,14.13-.3Z"/>
  <path class="st0" d="M1522.45,46.45c3.15.42,5.2,2.24,5.59,5.48.34,2.8.5,7.41.53,12.28.06-4.44.23-9.01.6-12.26.42-3.7,2.77-5.24,6.2-5.93.62.03,1.24.04,1.85.06.29-.12.5-.2.56-.2h9.75v-3.68l-38.37-.02v3.46c1.83.06,3.65.13,5.47.21,2.23.11,5.72.31,7.83.6Z"/>
  <path class="st0" d="M1547.52,270.59c-3.75,0-7.51-.01-11.26-.04-2.85.01-6.6-2.08-7.06-5.06-.3-1.91-.48-5.74-.58-7.86-.39-8.18.22-16.42.8-24.56.63-1.96,1.88-2.99,3.82-3.56h4.41c.39-.08.79-.12,1.18-.12h8.69l-.08-3.36-.28-.3c-.76-.02-1.51-.04-2.27-.07-3,.39-6.14-.08-9.14-.35-1.86-.07-3.72-.14-5.57-.2-5.99,0-12.05.29-18.12.5-.93.15-1.87.24-2.84.09-.02,0-.05,0-.07,0v3.68c5.02.37,9.59-1.01,12.53.48h3.49c1.95.73,2.7,2.59,2.86,4.53l-.24,32.46c-1.12,3.67-8.3,4.02-11.6,4.21-2.31.14-4.67.23-7.05.28v3.39h38.37v-4.16Z"/>
  <path class="st0" d="M1535.65,91.74c3.86-.03,8.19-.35,11.87.55v-3.68c-3.25-.1-6.48-.26-9.68-.51-4.15-.33-8.15-.84-8.67-5.56-.27-2.44-.49-6.43-.55-8.94-.03-1.29-.05-2.78-.06-4.36-.06,4.83-.24,9.41-.51,12.26-.56,5.95-5.15,6.24-10.27,6.59-2.85.2-5.73.32-8.63.41v3.07c9.11,0,18.45.22,26.5.16Z"/>
  <path class="st0" d="M1547.52,179.85h-11.79c-4.18-.5-6.6-1.63-7.09-6.08-.7-6.35-.69-22.63.06-28.95.73-6.18,4.77-6.56,10-6.99.46-.12.87-.19,1.18-.19h1.42c2.06-.15,4.13-.26,6.22-.35v-3.35h-38.37v3.69l12.32-.02c3.02.14,6.31,1.68,6.58,5.02l-.25,33.53c-.88,2.89-5.32,3.48-7.91,3.68-3.53.28-7.12.45-10.73.54v3.13h38.37v-3.67Z"/>
  <polygon class="st0" points="1543.58 .03 1547.53 0 1547.52 -3.69 1509.15 -3.69 1509.15 0 1543.58 .03"/>
  <path class="st0" d="M1526.82,322.36c.75.9,1.13,3.1,1.23,4.31.2,2.43.36,5.82.44,9.51.04-1.12.09-2.2.13-3.18.08-1.82.56-9.03,1.13-9.94,1.16-1.87,4.68-2.41,6.67-2.81,1.09.05,2.19.08,3.29.12,2.74-.38,5.68-.26,7.8-.26v-3.15s-38.38-.02-38.38-.02v2.57c3.81.08,7.57.25,11.26.58,1.75.15,5.29.93,6.41,2.28Z"/>
  <path class="st0" d="M1529.28,506.1c.88-2.93,3.79-3.37,6.45-3.56,3.88-.29,7.82-.45,11.79-.55v-3.11h-38.37s0,3.68,0,3.68c4.07.33,8.22-.56,11.26.25h3.95c2.24.84,3.28,1.84,3.62,4.28l.05,29.22h1.14c-1.05-10.05-.43-20.14.11-30.21Z"/>
  <path class="st0" d="M1535.97,457.25c.8,0,1.6-.01,2.4-.01,2.59-.04,5.21-.14,7.83-.06.44-.01.88-.02,1.33-.04v-3.78c-2.72-.08-5.42-.19-8.11-.35-.13,0-.26-.01-.39-.02h-1.25c-.07,0-.2-.04-.36-.1-3.58-.24-7.61-.89-8.22-4.95-.3-2.04-.48-5.65-.58-7.85-.39-8.11.76-16.17.56-24.27,1.35-3.53,5.51-4.01,8.84-4.34,3.12-.3,6.3-.51,9.51-.64v-3.21l-27.16.03c-.12-.01-.25-.02-.38-.02h-10.84v3.69c2.73.22,6.6-.34,9.84.06,1-.03,2.01-.05,3.01-.09,1.16,0,4.08,1.01,4.83,1.75.57.56,1.12,2.42,1.21,3.27,1.09,9.83-.85,21.61,0,31.66-.09,2.08-1.68,3.7-3.55,4.36-1.47.08-2.95.14-4.43.2-2.91.82-6.82.26-10.92.44v3.69c.26.02.53.04.79.06,8.75.15,17.52.48,26.03.51Z"/>
  <path class="st0" d="M1531.69,513.34c.18-2.98.19-7.08,2.69-8.91.69-.5,3.82-1.88,4.45-1.88h8.69v-.57c-3.97.09-7.91.26-11.79.55-2.66.2-5.57.64-6.45,3.56-.55,10.07-1.16,20.16-.11,30.21h3.08c-.55-7.34-.99-15.59-.55-22.96Z"/>
  <polygon class="st0" points="1547.52 42.19 1509.15 42.19 1547.52 42.2 1547.52 42.19"/>
  <polygon class="st0" points="1509.15 0 1509.15 .23 1543.58 .03 1509.15 0"/>
  <path class="st0" d="M1547.53,316.93c-10.75-.77-21.62-.63-32.43-.55-1.97.02-3.95.1-5.95.21v.35l38.38.02v-.02Z"/>
  <path class="st0" d="M1512.06,225.62c-.95.03-1.89.06-2.84.09.97.16,1.91.06,2.84-.09Z"/>
  <path class="st0" d="M1546.76,225.31c-.61.17-1.23.28-1.86.36.76.02,1.51.04,2.27.07l-.41-.43Z"/>
  <path class="st0" d="M1533.06,225.15c-.96-.02-1.91-.03-2.88-.03,1.86.06,3.71.12,5.57.2-.91-.08-1.82-.15-2.7-.17Z"/>
  <path class="st0" d="M1509.15,456.68v.04c.26,0,.53.01.79.02-.26-.02-.53-.03-.79-.06Z"/>
  <polygon class="st0" points="1509.15 498.87 1547.52 498.88 1547.52 498.87 1509.15 498.87"/>
  <path class="st0" d="M1547.53,457.21v-.07c-.45.01-.89.02-1.33.04.44.01.88.01,1.33.04Z"/>
  <path class="st0" d="M1536.72,457.25c.55,0,1.1-.01,1.65-.02-.8,0-1.6,0-2.4.01.25,0,.5,0,.75,0Z"/>
  <path class="st0" d="M1547.52,365.98v-.3c-4.7.06-9.42.19-14.13.3h14.13Z"/>
  <path class="st0" d="M1509.15,407.55v.08h10.84c-3.46-.27-7.13-.21-10.84-.08Z"/>
  <path class="st0" d="M1517.96,362.26c-2.91-.16-5.85-.27-8.81-.32v.34c2.72-.11,5.97.26,8.81-.02Z"/>
  <path class="st0" d="M1520.07,452.55c-3.63.15-7.27.26-10.92.35v.09c4.1-.17,8.01.39,10.92-.44Z"/>
  <path class="st0" d="M1509.15,411.33v.23c3.29-.02,6.57-.07,9.84-.16-3.24-.41-7.11.15-9.84-.06Z"/>
  <path class="st0" d="M1509.15,229.39v.43l12.53.05c-2.94-1.48-7.51-.11-12.53-.48Z"/>
  <path class="st0" d="M1520.41,502.81c-3.04-.81-7.19.08-11.26-.25v.25h11.26Z"/>
  <path class="st0" d="M1528.7,144.81c-.75,6.32-.76,22.6-.06,28.95.49,4.45,2.91,5.58,7.09,6.08h11.79v-.02h-10.8c-2.74,0-3.91-2.88-4.42-5.07-1.28-5.59-1.19-26.93.05-32.52.42-1.88,4.04-3.81,6.34-4.41-5.23.43-9.26.81-10,6.99Z"/>
  <path class="st0" d="M1547.52,137.64v-.35c-2.09.08-4.16.2-6.22.35h6.22Z"/>
  <path class="st0" d="M1529.75,323.06c-.57.91-1.05,8.12-1.13,9.94-.04.98-.09,2.06-.13,3.18.11,5,.1,10.55-.1,15.01.06,1.43.14,2.77.26,3.97.59,5.91,3.76,6.72,9.19,7.14,3.19.25,6.42.41,9.68.51v-.54c-5.82-.62-13.95,1.38-15.24-6.11-1.16-6.74-1.25-23.83-.01-30.51.65-3.5,3.88-4.82,7.44-5.31-1.1-.04-2.2-.07-3.29-.12-2,.4-5.51.94-6.67,2.81Z"/>
  <path class="st0" d="M1529.17,51.94c-.37,3.25-.54,7.82-.6,12.26,0,1.66,0,3.36-.02,5.02,0,1.58.03,3.07.06,4.36.06,2.51.28,6.5.55,8.94.52,4.72,4.53,5.23,8.67,5.56,3.19.25,6.42.41,9.68.51v-.53s-8.69,0-8.69,0c-1.71,0-5.72-1.87-6.28-3.71-.63-9.31-1.46-19.42-.85-28.75.15-2.32.36-6.46,2.15-7.87.34-.26,2.36-1.25,3.37-1.67-.62-.02-1.24-.03-1.85-.06-3.42.69-5.78,2.22-6.2,5.93Z"/>
  <path class="st0" d="M1547.52,453.36v-.37h-8.49c.13,0,.26.01.39.02,2.68.16,5.39.27,8.1.35Z"/>
  <path class="st0" d="M1529.18,415.82c.19,8.1-.96,16.16-.56,24.27.11,2.2.28,5.82.58,7.85.6,4.06,4.64,4.71,8.22,4.95-.84-.31-2.65-1.32-3.09-1.72-3.05-2.77-1.85-6.95-2.08-10.57-.4-6.32-1.58-18.28.15-24.12,1.74-5.89,10.19-5.01,15.14-5.15v-.49c-3.21.14-6.38.34-9.51.64-3.33.32-7.49.81-8.84,4.34Z"/>
  <path class="st0" d="M1529.42,233.07c-.58,8.14-1.18,16.37-.8,24.56.1,2.12.28,5.95.58,7.86.46,2.98,4.21,5.08,7.06,5.06,3.75.03,7.51.04,11.26.04v-.06h-8.17c-1.8,0-5.53-1.79-6.51-3.5-1.29-2.23-.43-3.26-.59-5.17-.63-7.29-1.45-20.08-.22-27.1.47-2.7,3-4.76,5.62-5.26h-4.41c-1.95.57-3.2,1.6-3.82,3.56Z"/>
  <path class="st0" d="M923.1,508.1c.23-2.34.77-4.35,3.13-5.31h81.83s0-.24,0-.24v-3.69h-25.16c-1.78,0-5.62-1.78-6.47-3.55-.88-1.84-1.09-6.57-1.19-8.83-.22-4.88-.72-21.09.52-24.83,1.13-3.42,6.06-4.64,9.34-4.78,7.55-.32,15.27-.22,22.97-.04v-4.1c-26.21.84-52.66-.14-78.92.27-2.62.04-4.66-1.38-5.8-3.68l-.25-31.95c.65-5.8,6.73-5.86,11.31-6.08,24.22-1.13,49.22.63,73.66.18v-4.04c-8.77-.04-18.3,1.11-26.61-.48-4.73-.9-5.76-2.86-6.18-7.52-.59-6.53-.53-18.2,0-24.77.1-1.23.5-4.38,1.02-5.31.55-.98,4.63-3.4,5.56-3.4h26.22v-3.86c-25.13-1.05-52.15,2.12-76.81.18-2.5-.2-7.06-.96-7.91-3.68l-.19-32.94c.99-7.11,11.52-4.44,16.53-5.61,22.02,1.48,46.27-1.52,68.39-.36v-3.33c-7.74.07-15.79,1.19-23.6.57-3.55-.28-7.49-.83-8.53-4.64-1.33-4.86-1.28-25.94-.61-31.44.17-1.39.49-2.77,1.48-3.79.7-.71,4.79-2.34,5.57-2.34h25.69v-3.61c-18.41.96-39.07-.81-57.85-.63-6.49.06-18.72,2.06-24.48-.76-1.76-.86-2.41-1.69-2.64-3.69-.82-7.08-.62-23.33,0-30.62.25-2.93.66-4.71,3.57-5.92l81.41.32v-4.33c-8.6.32-17.22.59-25.63-.4-4.55-.53-6.7-2.49-7.16-7.07-.49-4.86-.63-26.15.63-29.94.67-2.03,3.3-4.6,5.42-4.6h26.74v-3.36c-25.45,1.34-52.97-1.84-78.4-.31-4.74-.42-6.21-2.03-6.54-6.59-.55-7.72-.87-22.61-.03-30.08.37-3.32,1.96-4.67,5.13-5.41l79.83-.14v-3.68h-24.64c-.21,0-3.4-.73-3.86-.88-2.12-.7-3.05-1.59-3.63-3.74-1.29-4.71-1.32-26.15-.68-31.51.43-3.61,3.79-5.25,7.1-5.55,7.68-.68,16.74-.73,25.71-.66v-3.35c-25.34,1.41-52.45-1.52-77.87-.16-3.36-.29-6.66-1.2-7.11-5.02-.81-6.87-.68-24.11.02-31.12.41-4.14,1.74-5,5.65-5.94,26.01.73,53.01-1.41,78.92-.15.12,0,.26.01.38.02v-3.69h-27.27c-.66,0-3.35-1.75-3.87-2.45-.96-1.29-1.5-4.12-1.65-5.73-.62-6.63-.57-19.16,0-25.82.36-4.17.88-6.74,5.36-7.82l27.44-.16v-3.89h-468.05V.03l21.38.02c4.66.63,5.29,3.38,5.6,7.58.52,7.05.74,21.13-.02,27.97-.75,6.77-5.46,5.78-10.78,6.61h-16.18s0,4.05,0,4.05c22.68.02,46.27-1.92,68.33-.4,4.46.31,9.62.68,10.26,6.07.78,6.53.64,22.86,0,29.56-.41,4.38-2.82,6.21-7.11,6.59-23.14-1.4-48.08,1.21-71.49.53v3.92l23.66.15c1.81,1.12,2.94,2.49,3.25,4.66.89,6.28.56,21.8.07,28.45-.43,5.85-1.82,7.47-7.73,8.09l-19.25.02v3.36c22.9-.86,47.22,1.63,69.91.35,4.73.7,8.07,1.18,8.68,6.61l-.29,31.88c-1.21,2.31-3.68,3.7-6.28,3.74h-72.02v3.7l21.38.02c5.04.68,5.3,4.22,5.6,8.63.47,6.75.71,19.86-.02,26.39-.5,4.49-2.88,6.05-7.17,6.53-6.53.74-13.14.8-19.78.65v3.73l71.49-.12c3.52.11,6.92,2.32,7.09,6.09l-.24,31.4c-3.48,5.93-10.94,3.7-16.33,3.64-20.66-.24-41.34.09-62.01.09v4.19l20.31.02c3.2.77,4.97.66,5.96,4.05,1.24,4.26,1.33,27.08.63,31.97-.85,6.03-7.18,5.41-11.78,6.13h-15.12s0,3.55,0,3.55c22.98.09,47.12-2.11,69.38-.43,4.37.33,8.62,1,9.2,6.09.76,6.77.67,22.67.02,29.55-.41,4.38-2.82,6.21-7.11,6.59-23.14-1.4-48.08,1.21-71.49.53v2.84c5.98-.07,11.92-.03,17.77.29,4.62.26,8.65.71,9.19,6.08.68,6.79.68,21.7.02,28.5-.46,4.75-3.72,6.81-8.2,7.08h-18.78v3.19c23.64-.94,49.25,2.04,72.55.49,2.79.17,5.91,1.27,6.05,4.49l-.25,33.53c-.94,2.04-3.07,3.41-5.28,3.68-23.94-1.11-49,1.04-73.06.37v3.75c5.87-.2,12.02-.57,17.6-.31,2.97.14,7.82,1.21,8.71,4.47,1.23,4.49,1.28,26.43.6,31.48-.52,3.83-3.22,6.01-7.04,6.13h-19.86s0,3.09,0,3.09c24.03-.52,49.35,1.91,73.07.56,3.46.1,5.12,1.61,5.51,5.03,1.01,8.93-.75,19.62,0,28.74h4.21c.45-9.07-.61-18.7.03-27.71.18-2.54.44-4.69,3.11-5.8h90.14c2.1.64,2.84,3.39,3.08,5.36,1.04,8.78-.65,19.2.06,28.15h4.21c-.29-8.19-1.31-17.91-.46-26.04.34-3.22,1.31-5.85,4.52-7.07,28.85-1.32,58.15-.55,87.09-.39,3.7,1.07,3.98,4.53,4.22,7.9.59,8.27-.48,17.25-.02,25.6h4.21c-1.2-7.5-.44-15.38.02-22.92.26-4.17-1.53-8.96,3.65-10.58,26.92.28,54.55-1.22,81.44-.27,3.93.14,9.58-.41,10.74,4.53l.03,29.24h4.21c.66-9.05-.89-19.31,0-28.21ZM953.93,366.01c6.36-.07,16.74-2.14,17.62,6.57.69,6.8.61,20.55.03,27.43-.58,6.88-5.34,7.24-11.32,7.65-25.82,1.75-53.57-1.37-79.59,0-2.89-.31-7.06-1.16-7.59-4.53.92-10.12-1.37-22.82.02-32.62.64-4.55,3.93-4.56,7.75-4.9,23.35-2.1,49.42,2.11,73.1.4ZM622.91,415.92c1.59-4.43,6.93-4.19,10.84-4.44,24.45-1.56,50.1.86,74.68-.18,4.26.81,9.79.14,10.8,5.54-.72,9.52.87,20.2,0,29.57-.45,4.8-3.12,6.2-7.64,6.59-26.75-1.17-54.54,1.43-81.18,0-4.57-.25-7.02-.81-7.61-6.08-1.07-9.58.71-21.2.11-31ZM679.14,406.87c-3.76-.87-5.31-1.72-5.77-5.83-.73-6.57-.61-21.28-.02-27.97.36-4.11,1.81-5.93,5.89-6.76,3.27-.66,8.38-.57,11.93-.71,23.36-.93,47.48,1.4,70.99.35,5.57.49,6.64,3.06,7.08,8.2.58,6.76.6,19.1.03,25.85-.26,3.09-.96,5.35-4.11,6.43-2.33.8-8.65,1.09-11.43,1.22-24.69,1.11-49.98-.26-74.6-.78ZM622.77,233.85c.21-2.23,2.67-3.59,4.63-4.33l88.15.11c2.6,1.13,3.39,3.74,3.65,6.36.67,6.74.63,20.64.03,27.44-.24,2.7-1.07,5.18-3.71,6.31-1.88.8-6.95,1.21-9.2,1.34-9.98.57-20.14-.59-30.03-.57-14.59.02-33.41,2.2-47.4-.02-3.55-.56-5.67-1.73-6.1-5.49-1.1-9.68.84-21.25-.03-31.14ZM673.36,97.81c.47-4.2,3.92-5.15,7.63-5.54,26.07,1.7,54.9-2.2,80.64,0,5.82.5,7.2,2.53,7.64,8.17.53,6.73.5,18.06-.03,24.8-.36,4.54-1.14,8.54-6.56,8.73-26.19-1.58-54.73,2.04-80.64,0-1.52-.12-5.91-.86-6.94-1.75-.85-.74-1.6-3.15-1.73-4.33-.74-6.47-.74-23.6-.01-30.07ZM629.89,88.09c-3.34-.3-5.64-1.49-6.84-4.75l-.22-32.42c.88-3.78,4.69-4.77,8.12-5.06,26.04-2.23,56.2,1.1,82.5.78,1.11.24,3.21.8,4.02,1.51.78.69,1.62,2.67,1.76,3.78.78,6.41.57,21.88-.02,28.48-.52,5.79-3.7,7.2-9.19,7.67-25.58,2.19-54.22-1.7-80.12,0ZM830.65,92.31c.83,0,1.63-.39,2.24-.39,9.07-.07,20.56-1.03,29.34-.15,4.69.47,6.21,1.88,6.61,6.57.63,7.41.58,20.54,0,27.99-.52,6.74-3.66,7.32-9.73,7.64-25.91,1.39-53.03-1.09-79.07,0-2.82.03-6.06-1.49-6.54-4.53-1.09-6.86-1.34-24.19-.56-31.08.43-3.79,2.87-5.74,6.56-6.09,15.48-1.46,35.13.17,51.14.04ZM822.44,54.56c.32-4.49.85-7.38,5.68-8.55,26.07.92,53.53-1.65,79.45-.15,2.2.13,6.9.5,8.67,1.34,2.01.95,2.39,2.06,2.63,4.22.79,7.02.69,23.47.02,30.61-.55,5.88-3.78,5.26-8.69,6.06-24.96-1.11-51.08,1.41-75.91,0-1.98-.11-6.2-.46-7.9-1.05-3.08-1.07-3.61-3.19-3.86-6.12-.61-7.29-.62-19.05-.09-26.35ZM868.85,308.78c-.13,1.62-.58,4.8-1.76,5.88-.63.58-2.99,1.42-3.91,1.62-26.38.02-54.74,2.18-81.04.67-6.56-.38-8.59-1.26-9.18-8.2-.6-7.03-.62-19.88-.03-26.9.4-4.69,2.35-6.7,7.11-7.12l84.59.27c2.25.95,3.91,2.15,4.21,4.75.79,6.79.57,22.03,0,29.03ZM909.68,320.08c4.37.33,8.63,1,9.2,6.09.78,6.89.64,22.52.02,29.55-.4,4.51-2.07,6.19-6.59,6.59-26.57-1.75-55.99,2.25-82.23,0-2.82-.24-5.63-.87-6.86-3.68-.13-6.24-2.47-31.65.45-35.73.21-.29,2.02-1.3,2.48-1.47,3.48-1.28,15.1-1.24,19.72-1.35,19.55-.48,44.63-1.44,63.79,0ZM760.54,270.5c-8.5.04-17.22,1.09-25.81.57-5.41-.33-11.02-.29-11.77-6.67-.78-6.63-.57-20.02-.08-26.86.23-3.21.59-6.95,4.08-8.04l87.62.14c2.79.92,3.89,2.99,4.2,5.81.72,6.49.59,20.81.02,27.44-.61,7.12-4.38,7.73-10.8,8.18-14.97,1.03-32.11-.65-47.46-.57ZM842.77,271.08c-5.42.08-18.73,1.86-19.73-5.08-1.08-7.51-1.13-20.28-.59-27.92.25-3.54.44-7.88,4.62-8.55l88.13.12c2.54.92,3.37,2.1,3.67,4.76.77,6.85.61,22.01.02,29.02-.1,1.2-.4,3.32-.95,4.32-2.15,3.96-14.2,2.6-18.32,2.75-19.01.71-37.84.3-56.85.57ZM868.82,217.52c-.64,7.84-4.21,7.77-11.3,8.2-9.97.6-20.14-.56-30.03-.57-13.8-.02-27.99,1.21-41.68.56-3.48-.17-10.91-.29-12.11-4.19-.42-9.68-1.62-20.7-.75-30.34.54-6.03,2.85-7.22,8.66-7.67,25.75-2.02,54.09,1.57,80.12,0,1.44.1,4.32.82,5.35,1.77.89.81,1.6,3.08,1.74,4.32.76,6.7.55,21.06,0,27.94ZM732.62,179.84c-5.74-.52-9.08-1.31-9.72-7.67-.64-6.44-.7-21.53.05-27.88.76-6.43,4.99-6.09,10.37-6.5,25.79-1.93,53.43,1.14,79.42-.18,4.26.41,5.62,2.54,6.03,6.62.68,6.89.64,21.03.03,27.96-.29,3.28-1.48,5.87-4.86,6.74-1.83.47-5.52.8-7.52.91-24.14,1.35-49.52-1.07-73.8,0ZM830.08,179.85c-7-.51-7.18-2.79-7.61-9.26-.47-6.96-.56-17.89-.02-24.8.6-7.73,3.79-7.75,10.8-8.18,25.11-1.51,51.7,1.19,76.96,0,3.75.59,8.12.19,8.68,5.02.82,7.02.55,22.28,0,29.56-.09,1.23-.55,4.53-1.22,5.37-.85,1.07-4.41,2.3-5.89,2.28-26.64-1.5-55.31,1.92-81.7,0ZM818.77,81.47c-.52,5.15-3.47,6.01-8.14,6.62-25.13-1.36-52.04,1.74-76.96,0-2.19-.15-7.48-.88-9.03-2.3-1.19-1.08-1.63-4.26-1.76-5.88-.45-5.63-.79-22.9.23-27.88.89-4.35,4.23-6.09,8.46-6.17,24.91,1.42,51.76-1.81,76.43,0,6.73.49,10.24.9,10.8,8.18.55,7.07.67,20.48-.03,27.43ZM712.11,137.62c3.95.37,6.6,1.23,7.09,5.56,1.11,9.79-.62,21.9-.25,31.92-.86,2.5-2.37,3.51-4.88,4.08-26.2-.19-54.98,2.47-81.03.67-4.57-.31-9.64-.64-10.25-6.09-.73-6.46-.77-24.19-.01-30.6.35-2.96,2.88-4.77,5.67-5.4l83.66-.15ZM673.4,188.03c.41-2.64,2.64-3.21,4.7-4.26l81.43-.27c6.11.58,9.18,1.57,9.74,8.18.55,6.45.65,20-.08,26.33-.41,3.56-1.33,5.67-4.92,6.67-2.21.62-6.53.92-8.96,1.05-17.31.89-36.16-.7-53.78-.57-1.5.01-2.79.56-4.17.57-4.7.04-19.87.68-22.78-2.81-.75-.9-1.13-3.11-1.23-4.31-.82-9.76.63-20.69.05-30.58ZM673.35,282.37c.31-3.98,1.15-6.16,5.14-7.51l83.14-.14c5,.43,7.1,2.01,7.61,7.14.67,6.74.63,20.64.03,27.44-.3,3.44-1.66,6.12-5.26,6.86-2.48.51-7.03.67-9.75.77-23.85.95-48.3-.75-72.22,0-3.89-.34-7.98-1.06-8.62-5.61-.89-6.36-.59-22.26-.07-28.98ZM711.06,320.08c4.67.4,7.69,1.52,8.17,6.59.64,6.8.65,21.19-.03,27.96-.66,6.61-4.99,7.25-10.77,7.67-25.02,1.83-52.23-1.42-77.48,0-2.01-.18-4.97-.84-6.39-2.31-.97-1.01-1.6-2.9-1.76-4.3-.75-6.64-.68-22.82,0-29.53.44-4.35,3-5.58,7.09-6.08,26.25,1.71,55.25-2.21,81.17,0ZM732.62,362.31c-4.45-.32-8.99-.99-9.68-6.13-.82-6.07-.58-21.04-.04-27.37.49-5.67,1.92-7.83,7.78-8.56,25.75,1.24,53.94-2.16,79.42-.17,4.83.38,8.07,1.23,8.68,6.61.74,6.63.55,20.62.02,27.44-.48,6.25-2.56,7.56-8.69,8.17-25.26-1.42-52.45,1.82-77.48,0ZM772.95,373.1c.41-4.12,2.69-6.36,6.72-6.99l85.77.35c2.2,1.01,3.12,2.72,3.39,5.05.76,6.7.52,20.52.02,27.44-.49,6.75-1.9,8.17-8.69,8.7-10.8.84-21.95-.61-32.71-.57-14.35.05-29.33,1.61-43.72.57-6.42-.46-9.96-1.24-10.71-8.26-.67-6.31-.69-19.97-.06-26.29ZM822.47,421.09c.34-5.17.36-8.47,6.18-9.64l82.61-.14c3.88.64,7.07.29,7.63,5.02.81,6.81.66,23.64,0,30.62-.4,4.28-2.38,5.69-6.58,6.07-26.58-1.75-55.98,2.25-82.23,0-2.28-.2-5.71-.96-6.8-3.21-1.4-2.88-1.1-24.29-.81-28.71ZM963.94,274.72c3.98.29,7.11,1.1,7.62,5.56.77,6.83.61,22.03.02,29.02-.75,8.88-7.23,6.71-13.97,7.11-22.14,1.31-51.18,1.94-73.26.54-4-.25-10.86-.54-11.32-5.55.89-10-1.14-21.9,0-31.66.32-2.74,2.21-4.01,4.61-4.88l86.3-.14ZM961.31,183.5c4.31.31,9.65.9,10.27,6.07.79,6.64.59,22.19,0,29.04-.22,2.59-1.38,5.08-3.93,6.08-1.48.59-7,.94-8.97,1.04-8.79.44-17.65-.53-26.34-.57-16.52-.08-37.39,2.16-53.18-.03-3.61-.5-5.68-1.63-6.12-5.48-1.09-9.63.79-21.23.03-31.08.84-3.68,4.48-4.52,7.77-4.88,26.2,1.13,54.51-2.04,80.47-.18ZM939.14,92.31c8.08.13,18.09-.85,25.84-.02,3.49.37,6.16,2.42,6.6,6.05.77,6.42.62,22.45,0,29.04-.41,4.38-2.82,6.21-7.11,6.59-26.86-1.44-55.59,1.85-82.23,0-3.6-.25-8.87-.51-9.21-5.02.84-10.05-1.09-21.82.01-31.65.37-3.32,1.96-4.67,5.13-5.41,20.33-.52,40.72.09,60.96.42ZM873.03,5.52c.54-4.5,3.93-4.95,7.81-5.37,26.15-2.8,56.51,1.79,83.1-.17,4.49.39,7.09,1.82,7.62,6.61.75,6.67.62,21.7.02,28.5-.41,4.63-2.48,6.71-7.11,7.12l-87.6-.43c-1.77-.8-3.47-2.04-3.8-4.11.83-10.12-1.22-22.29-.04-32.15ZM772.94,6.07c.42-3.68,2.67-5.39,6.2-5.93,25.58.82,52.41-1.56,77.85-.16,1.95.11,6.37.43,8,.95,2.45.79,3.55,2.67,3.83,5.13.76,6.7.61,21.64.02,28.49-.42,4.89-2.02,7.2-7.11,7.65l-84.43-.43c-1.94-.63-3.5-2.62-3.8-4.64-1.08-7.16-1.38-23.93-.56-31.08ZM673.36,5.52c.13-1.1.98-3.09,1.75-3.78.91-.82,3.54-1.75,4.82-1.77h81.71c5.43.57,7.13,2.34,7.61,7.68.62,6.92.62,19.98.03,26.9-.4,4.66-2.07,7.54-7.11,7.65-26.23-1.72-55.27,2.23-81.17,0-3.77-.32-7.13-1.29-7.63-5.54-.75-6.28-.76-24.87,0-31.14ZM578.26,42.21c-2.95-.25-6.53-1.14-7.06-4.53-.34-2.12-.47-6.51-.58-8.91-.29-6.47-.53-15.85,0-22.19.3-3.52,1.07-5.32,4.62-6.45l86.83-.14c2.64.01,5.55.67,6.6,3.41,1.71,4.45,1.34,21.46,1.03,26.96-.11,1.94-.54,7.3-1.22,8.8-.95,2.11-3.75,2.94-5.9,3.06-27.26-1.79-57.42,2.31-84.33,0ZM577.73,133.97c-2.73-.09-6.06-1.54-6.53-4.53-.36-2.27-.47-6.88-.58-9.44-.28-6.62-.23-16.19.54-22.71.38-3.19,2.73-4.38,5.68-4.86l89.19.1c3.18,1.3,3.42,4.97,3.65,7.94.54,6.9.61,18.99.03,25.85-.42,4.89-2.02,7.2-7.11,7.65h-84.86ZM608.81,225.15c-10.21.06-21.28,1.36-31.54-.02-2.52-.34-5.65-2.31-6.08-4.99-1.46-9.21,1-21.98,0-31.58.83-3.56,3.97-4.47,7.23-4.89,27.16,1.47,57.35-2.46,84.16-.17,2.93.25,5.79.78,6.45,4.09,1.18,5.93,1.38,27.25-.13,32.86-1.62,6.03-9.17,4.44-13.74,4.71-15.52.92-30.81-.09-46.36,0ZM579.84,316.95c-5.38-.75-8.44-.52-9.13-6.68-1.15-10.21.6-22.08.7-32.39.51-1.62,2.34-2.47,3.84-3.02l86.3-.14c6.62.57,7.64,2.39,8.14,8.73.47,5.93.34,14.58.03,20.58-.1,2-.37,6.49-.8,8.17-1.05,4.1-6.39,4.5-10,4.75-25.62,1.76-53.23-1.38-79.07,0ZM581.95,407.66c-2.15-.13-6.81-.56-8.51-1.5-2.23-1.22-2.57-3.82-2.78-6.18-.42-4.7-.65-26.53.56-30.01,1.37-3.96,7.3-4.27,10.92-4.37,8.85-.24,17.89.38,26.69.4,16.43.04,36.22-1.41,52.2-.04,13.88,1.19,7.06,16.06,8.7,25.62-1.49,8.71,2.5,15.24-9.22,16.08-7.7.56-15.59-.61-23.18-.57-18.21.11-37.1,1.66-55.36.57ZM669.68,488.58c-.17,2.2-.73,6.45-2.28,8-2.03,2.03-5.84,1.7-8.49,2.31-25.01-1.3-51.62,1.65-76.43,0-4.29-.29-10.9-.52-11.32-6.07l.25-31.42c1.35-4.4,9.44-4.29,13.2-4.42,8.44-.29,16.97.27,25.27.26,16.61-.02,37.14-1.48,53.25-.05,2.09.19,5.11.9,5.8,3.16.36,1.19.69,5.1.78,6.6.37,6.19.45,15.5-.03,21.64ZM769.25,489.11c-.56,7.73-1.95,9.24-9.72,9.78-25.43,1.79-53.17-1.21-78.78-.24-1.79-.64-4.22-.7-5.61-2.07-.96-.94-1.61-2.95-1.76-4.3-.71-6.25-.74-23.33-.01-29.54.5-4.24,4.53-5.26,8.16-5.54,15.31-1.2,34.03-.02,49.52.04,9.81.04,23.43-1.15,32.7-.03,3.87.47,5.22,2.98,5.54,6.58.6,6.76.47,18.48-.03,25.33ZM731.04,453.01c-7.38-.63-7.71-4.31-8.14-10.83-.38-5.87-.83-19.89.02-25.28.73-4.58,6.72-5.1,10.4-5.41,25.24-2.14,52.87,1.29,78.36-.18,3.8.32,6.6,1.31,7.11,5.54.78,6.55.6,22.3,0,29.04-.45,5.09-2.75,6.7-7.64,7.12-25.58,2.19-54.22-1.69-80.12,0ZM868.85,490.71c-.45,5.27-2.17,7.69-7.64,8.18-16.99,1.52-37.54-.49-54.78-.57-8.2-.04-16.55,1.17-24.81.57-3.13-.23-7.53-.71-8.12-4.53-1.03-6.75-1.45-24.95-.51-31.56.66-4.63,5.22-5.77,9.26-5.91,12.67-.46,26.2.34,38.87.35,12.85.01,26.03-.81,38.92-.35,4.9.17,8.24,1.08,8.78,6.4.68,6.8.61,20.57.03,27.43ZM883.82,498.89c-3.75-.23-10.01-.4-10.75-5.06.95-10.13-1.36-22.88-.06-32.69.34-2.53,3.13-4.06,5.55-4.17l88.8.49c1.9.79,3.82,2.06,4.17,4.26,1.47,9.33-.83,22.68-.22,32.42-1.48,5.75-11.81,3.97-16.37,4.18-22.15,1.01-49.07,1.9-71.12.57Z"/>
  <polygon class="st0" points="1037.3 .02 1040.58 0 1040.57 -3.69 1008.05 -3.69 1008.05 0 1037.3 .02"/>
  <path class="st0" d="M1040.57,365.78v-3.23c-1.28-.07-2.56-.15-3.83-.25-.73-.06-1.42-.12-2.07-.21-4.36-.12-8.45-.79-9.34-5.92-1.16-6.74-1.25-23.83-.01-30.51,1.15-6.19,10.36-5.56,15.25-5.57v-3.15s-32.53-.01-32.53-.01v2.78c1.82.1,3.62.21,5.41.37.7.06,1.69.23,2.69.48,3.88.2,7.26,1.15,7.73,6.1.67,6.99.68,22.08,0,29.06-.83,8.54-9.67,6.32-15.83,6.57v3.69h24.24c2.76-.07,5.52-.13,8.28-.19Z"/>
  <path class="st0" d="M1024.74,513.34c.18-2.98.19-7.08,2.69-8.91.69-.5,3.82-1.88,4.45-1.88h2.47c.09,0,.19-.02.28-.02,1.97-.15,3.95-.26,5.94-.35v-3.31h-32.52s0,3.68,0,3.68c7.36.6,14.97-2.82,15.82,7.1.73,8.51-.58,18.03-.02,26.65h1.44c-.55-7.34-.99-15.59-.55-22.96Z"/>
  <path class="st0" d="M1040.57,179.85h-5.94c-.05,0-.11-.01-.16-.02h-4.7c-2.74,0-3.91-2.88-4.42-5.07-1.28-5.59-1.19-26.93.05-32.52.5-2.25,5.61-4.59,7.53-4.59h7.27c.12,0,.25-.02.37-.03v-3.67h-32.52v3.68h6.47c.47.01.95.07,1.42.16,3.96.23,7.51,1.3,7.95,5.89.68,7.18.63,21.83,0,29.05-.54,6.13-4.92,6.91-9.74,7-.43.05-.83.09-1.2.12-1.62.13-3.25.23-4.88.32v3.36h32.52v-3.67Z"/>
  <path class="st0" d="M1040.57,270.57c-1.8,0-3.61-.01-5.41-.03-.18,0-.36,0-.54-.02h-2.21c-1.8,0-5.53-1.79-6.51-3.5-1.29-2.23-.43-3.26-.59-5.17-.63-7.29-1.45-20.08-.22-27.1.55-3.1,3.8-5.37,6.8-5.37h8.69l-.08-3.36-.48-.5c-.33-.01-.67-.03-1-.04-4.23.88-8.79-.26-12.91-.35-4.49-.09-9.04.03-13.61.2-1.45.25-2.92.62-4.45.35v3.69c8.13.6,15.09-3.39,15.83,7.62.47,6.99.71,20.14-.02,26.92-.85,7.87-8.09,7.21-14.33,7.12-.09,0-.19.01-.28.02-.4.02-.8.04-1.2.06v3.61h32.52v-4.17Z"/>
  <path class="st0" d="M1029.77,457.25c3.56,0,7.18-.25,10.8-.04v-4.09c-.75-.04-1.51-.07-2.26-.11-.13,0-.26-.01-.39-.02h-7.1c-.48,0-2.92-1.34-3.45-1.82-3.05-2.77-1.85-6.95-2.08-10.57-.4-6.32-1.58-18.28.15-24.12,1.52-5.15,8.19-5.12,13.15-5.13.66-.06,1.33-.11,1.99-.16v-3.56l-27.16.03c-.12-.01-.24-.01-.36-.02h-5.01v3.69c5.35.43,15.13-2.16,15.83,5.51.69,7.51.46,20.35-.02,28.01-.65,10.23-7.87,7.8-15.81,8.13v3.69c1.07.1,2.15.17,3.23.24,6.24.16,12.44.33,18.5.34Z"/>
  <path class="st0" d="M1028.7,91.74c3.86-.03,8.19-.35,11.87.55v-3.95c-1.28-.07-2.56-.15-3.83-.25-.08,0-.15-.01-.23-.02h-4.63c-1.71,0-5.72-1.87-6.28-3.71-.63-9.31-1.46-19.42-.85-28.75.15-2.32.36-6.46,2.15-7.87.43-.34,3.66-1.87,3.93-1.87h9.75v-3.68h-32.52s0,3.68,0,3.68c.26.01.53.03.82.04,7.12.29,14.35-1.06,15.01,8.11.49,6.8.72,20.33-.02,26.92-.86,7.65-7.09,7.29-13.07,7.14-.91.06-1.82.11-2.73.16v3.35c7.19.06,14.32.19,20.65.14Z"/>
  <path class="st0" d="M1034.35,502.56h6.22v-.37c-1.99.09-3.97.2-5.94.35-.09,0-.18.01-.28.02Z"/>
  <polygon class="st0" points="1040.57 42.19 1008.05 42.19 1040.57 42.2 1040.57 42.19"/>
  <polygon class="st0" points="1008.05 0 1008.05 .2 1037.3 .02 1008.05 0"/>
  <path class="st0" d="M1040.58,316.93c-10.75-.77-21.62-.63-32.43-.55-.03,0-.07,0-.1,0v.55h32.53s0,0,0,0Z"/>
  <path class="st0" d="M1012.5,225.35c-1.48.05-2.97.11-4.45.17v.19c1.53.27,3-.1,4.45-.35Z"/>
  <path class="st0" d="M1039.81,225.31c-.26.07-.52.13-.79.19.33.01.67.03,1,.04l-.21-.23Z"/>
  <path class="st0" d="M1008.05,456.68v.16c1.08.02,2.15.05,3.23.08-1.08-.07-2.16-.14-3.23-.24Z"/>
  <polygon class="st0" points="1008.05 498.87 1040.57 498.88 1040.57 498.87 1008.05 498.87"/>
  <path class="st0" d="M1008.05,407.45v.19h5.01c-1.63-.13-3.3-.18-5.01-.19Z"/>
  <path class="st0" d="M1040.57,365.98v-.19c-2.76.06-5.52.13-8.28.19h8.28Z"/>
  <path class="st0" d="M1021.09,142.63l-.25,33.53c-.75,2.48-4.13,3.27-6.71,3.57,4.82-.09,9.2-.87,9.74-7,.64-7.22.69-21.87,0-29.05-.44-4.59-3.99-5.66-7.95-5.89,2.55.49,4.93,2.03,5.16,4.85Z"/>
  <path class="st0" d="M1023.88,355.72c.68-6.98.67-22.07,0-29.06-.47-4.95-3.85-5.9-7.73-6.1,1.51.39,3.05.99,3.72,1.79.75.9,1.13,3.1,1.23,4.31.6,7.14.76,22.58-.02,29.55-.6,5.32-4.82,5.38-9.2,6.08-1.27-.08-2.55-.13-3.83-.18v.17c6.16-.24,15.01,1.97,15.83-6.57Z"/>
  <path class="st0" d="M1021.09,51.93c.79,6.54.64,22.86,0,29.56-.56,5.95-5.15,6.24-10.27,6.59-.02,0-.03,0-.05,0,5.98.15,12.21.51,13.07-7.14.74-6.59.51-20.12.02-26.92-.66-9.17-7.89-7.82-15.01-8.11,2.15.12,4.87.3,6.64.53,3.15.42,5.2,2.24,5.59,5.48Z"/>
  <path class="st0" d="M1023.86,444.85c.49-7.66.71-20.5.02-28.01-.7-7.67-10.48-5.08-15.83-5.51v.16c2.34-.04,4.67-.1,7-.19,1.16,0,4.08,1.01,4.83,1.75.57.56,1.12,2.42,1.21,3.27,1.09,9.83-.85,21.61,0,31.66-.09,2.08-1.68,3.7-3.55,4.36-3.16.16-6.33.28-9.5.39v.25c7.93-.34,15.16,2.09,15.81-8.13Z"/>
  <path class="st0" d="M1021.08,234.4l-.24,32.46c-1.09,3.58-7.92,4-11.32,4.2,6.25.09,13.48.75,14.33-7.12.73-6.78.49-19.93.02-26.92-.74-11.01-7.7-7.02-15.83-7.62v.45l10.17.04c1.95.72,2.7,2.57,2.86,4.52Z"/>
  <path class="st0" d="M1023.87,509.66c-.85-9.92-8.47-6.5-15.82-7.1v.25h9.36c2.24.84,3.28,1.84,3.62,4.28l.05,29.22h2.77c-.56-8.62.75-18.14.02-26.65Z"/>
  <path class="st0" d="M1040.57,137.64v-.03c-.12,0-.25.02-.37.03h.37Z"/>
  <path class="st0" d="M1040.57,179.85v-.02h-6.1c.05,0,.1.01.16.02h5.94Z"/>
  <path class="st0" d="M1040.58,362.55v-.27c-1.83-.2-3.9-.13-5.9-.18.65.08,1.34.15,2.07.21,1.27.1,2.55.17,3.83.25Z"/>
  <path class="st0" d="M1040.57,88.33v-.27s-4.06,0-4.06,0c.08,0,.15.01.23.02,1.27.1,2.55.18,3.83.25Z"/>
  <path class="st0" d="M1040.58,411.33v-.14c-.67.05-1.33.1-1.99.16.71,0,1.38,0,1.99-.02Z"/>
  <path class="st0" d="M1040.57,453.12v-.13h-2.64c.13,0,.26.01.39.02.75.04,1.5.07,2.25.11Z"/>
  <path class="st0" d="M1040.57,270.57v-.05h-5.95c.18.02.36.02.54.02,1.8.01,3.61.02,5.41.03Z"/>
  <path class="st0" d="M422,508.1c.23-2.34.77-4.35,3.13-5.31h75.98s0-.24,0-.24v-3.69h-19.31c-1.78,0-5.62-1.78-6.47-3.55-.88-1.84-1.09-6.57-1.19-8.83-.22-4.88-.72-21.09.52-24.83,1.13-3.42,6.06-4.64,9.34-4.78,5.64-.24,11.37-.24,17.12-.16v-3.83c-24.29.54-48.76-.27-73.07.11-2.62.04-4.66-1.38-5.8-3.68l-.25-31.95c.65-5.8,6.73-5.86,11.31-6.08,22.29-1.04,45.24.37,67.81.25v-4c-7.04.23-14.27.66-20.76-.58-4.73-.9-5.76-2.86-6.18-7.52-.59-6.53-.53-18.2,0-24.77.1-1.23.5-4.38,1.02-5.31.55-.98,4.63-3.4,5.56-3.4h20.37v-4.04c-23.44-.42-48.2,2.15-70.96.36-2.5-.2-7.06-.96-7.91-3.68l-.19-32.94c.99-7.11,11.52-4.44,16.53-5.61,20.09,1.36,42.05-1.02,62.54-.57v-2.91c-5.9.32-11.89.83-17.75.36-3.55-.28-7.49-.83-8.53-4.64-1.33-4.86-1.28-25.94-.61-31.44.17-1.39.49-2.77,1.48-3.79.7-.71,4.79-2.34,5.57-2.34h19.84v-3.39c-16.86.39-35.19-1.02-52-.85-6.49.06-18.72,2.06-24.48-.76-1.76-.86-2.41-1.69-2.64-3.69-.82-7.08-.62-23.33,0-30.62.25-2.93.66-4.71,3.57-5.92l75.56.3v-4.11c-6.65.18-13.28.17-19.78-.6-4.55-.53-6.7-2.49-7.16-7.07-.49-4.86-.63-26.15.63-29.94.67-2.03,3.3-4.6,5.42-4.6h20.89v-3.13c-23.78.65-49.06-1.95-72.55-.54-4.74-.42-6.21-2.03-6.54-6.59-.55-7.72-.87-22.61-.03-30.08.37-3.32,1.96-4.67,5.13-5.41l73.98-.13v-3.69h-18.79c-.21,0-3.4-.73-3.86-.88-2.12-.7-3.05-1.59-3.63-3.74-1.29-4.71-1.32-26.15-.68-31.51.43-3.61,3.79-5.25,7.1-5.55,6.01-.53,12.87-.68,19.86-.69v-3.07c-23.63.73-48.54-1.67-72.02-.42-3.36-.29-6.66-1.2-7.11-5.02-.81-6.87-.68-24.11.02-31.12.41-4.14,1.74-5,5.65-5.94,24.19.68,49.23-1.12,73.45-.36v-3.46h-21.42c-.66,0-3.35-1.75-3.87-2.45-.96-1.29-1.5-4.12-1.65-5.73-.62-6.63-.57-19.16,0-25.82.36-4.17.88-6.74,5.36-7.82l21.59-.13v-3.92H0V0l60.28.05c4.66.63,5.29,3.38,5.6,7.58.52,7.05.74,21.13-.02,27.97-.75,6.77-5.46,5.78-10.78,6.61L0,42.19v3.69c7.37.45,15.14-1.37,15.83,8.15.49,6.8.72,20.33-.02,26.92C14.81,89.78,6.66,87.94,0,88.07v4.22l62.56.4c1.81,1.12,2.94,2.49,3.25,4.66.89,6.28.56,21.8.07,28.45-.43,5.85-1.82,7.47-7.73,8.09L0,133.95v3.69c5.46.57,15.1-1.71,15.83,6.04.68,7.18.63,21.83,0,29.05C15.06,181.44,6.52,179.34,0,179.82v3.69l60.28.05c5.04.68,5.3,4.22,5.6,8.63.47,6.75.71,19.86-.02,26.39-.5,4.49-2.88,6.05-7.17,6.53-17.33,1.96-35.29-.82-52.65.03-1.97.1-3.94.91-6.04.55v3.69c8.13.6,15.09-3.39,15.83,7.62.47,6.99.71,20.14-.02,26.92-.92,8.5-9.28,7.05-15.81,7.12v3.69l59.21.06c3.2.77,4.97.66,5.96,4.05,1.24,4.26,1.33,27.08.63,31.97-.85,6.03-7.18,5.41-11.78,6.13L0,316.93v3.16c5.77,1.32,15.03-1.88,15.83,6.56.67,6.99.68,22.08,0,29.06-.83,8.54-9.67,6.32-15.83,6.57v3.69c18.64.78,38.12-1.04,56.67-.02,4.62.26,8.65.71,9.19,6.08.68,6.79.68,21.7.02,28.5-.46,4.75-3.72,6.81-8.2,7.08H0v3.7c5.35.43,15.13-2.16,15.83,5.51.69,7.51.46,20.35-.02,28.01-.65,10.23-7.87,7.8-15.81,8.13v3.69c10.85.96,21.99.51,32.95.55,7.52.03,16.05-.77,23.55-.41,2.97.14,7.82,1.21,8.71,4.47,1.23,4.49,1.28,26.43.6,31.48-.52,3.83-3.22,6.01-7.04,6.13L0,498.87v3.69c7.36.6,14.97-2.82,15.82,7.1.73,8.51-.58,18.03-.02,26.65h4.21c-1.05-10.05-.43-20.14.11-30.21.88-2.93,3.79-3.37,6.45-3.56,27.56-2.04,57.57,1.59,85.39,0,3.46.1,5.12,1.61,5.51,5.03,1.01,8.93-.75,19.62,0,28.74h4.21c.45-9.07-.61-18.7.03-27.71.18-2.54.44-4.69,3.11-5.8h90.14c2.1.64,2.84,3.39,3.08,5.36,1.04,8.78-.65,19.2.06,28.15h4.21c-.29-8.19-1.31-17.91-.46-26.04.34-3.22,1.31-5.85,4.52-7.07,28.85-1.32,58.15-.55,87.09-.39,3.7,1.07,3.98,4.53,4.22,7.9.59,8.27-.48,17.25-.02,25.6h4.21c-1.2-7.5-.44-15.38.02-22.92.26-4.17-1.53-8.96,3.65-10.58,26.92.28,54.55-1.22,81.44-.27,3.93.14,9.58-.41,10.74,4.53l.03,29.24h4.21c.66-9.05-.89-19.31,0-28.21ZM452.83,366.01c6.36-.07,16.74-2.14,17.62,6.57.69,6.8.61,20.55.03,27.43-.58,6.88-5.34,7.24-11.32,7.65-25.82,1.75-53.57-1.37-79.59,0-2.89-.31-7.06-1.16-7.59-4.53.92-10.12-1.37-22.82.02-32.62.64-4.55,3.93-4.56,7.75-4.9,23.35-2.1,49.42,2.11,73.1.4ZM70.1,188.56c.83-3.56,3.97-4.47,7.23-4.89,27.16,1.47,57.35-2.46,84.16-.17,2.93.25,5.79.78,6.45,4.09,1.18,5.93,1.38,27.25-.13,32.86-1.62,6.03-9.17,4.44-13.74,4.71-15.52.92-30.81-.09-46.36,0-10.21.06-21.28,1.36-31.54-.02-2.52-.34-5.65-2.31-6.08-4.99-1.46-9.21,1-21.98,0-31.58ZM329.55,92.31c.83,0,1.63-.39,2.24-.39,9.07-.07,20.56-1.03,29.34-.15,4.69.47,6.21,1.88,6.61,6.57.63,7.41.58,20.54,0,27.99-.52,6.74-3.66,7.32-9.73,7.64-25.91,1.39-53.03-1.09-79.07,0-2.82.03-6.06-1.49-6.54-4.53-1.09-6.86-1.34-24.19-.56-31.08.43-3.79,2.87-5.74,6.56-6.09,15.48-1.46,35.13.17,51.14.04ZM321.35,54.56c.32-4.49.85-7.38,5.68-8.55,26.07.92,53.53-1.65,79.45-.15,2.2.13,6.9.5,8.67,1.34,2.01.95,2.39,2.06,2.63,4.22.79,7.02.69,23.47.02,30.61-.55,5.88-3.78,5.26-8.69,6.06-24.96-1.11-51.08,1.41-75.91,0-1.98-.11-6.2-.46-7.9-1.05-3.08-1.07-3.61-3.19-3.86-6.12-.61-7.29-.62-19.05-.09-26.35ZM367.75,308.78c-.13,1.62-.58,4.8-1.76,5.88-.63.58-2.99,1.42-3.91,1.62-26.38.02-54.74,2.18-81.04.67-6.56-.38-8.59-1.26-9.18-8.2-.6-7.03-.62-19.88-.03-26.9.4-4.69,2.35-6.7,7.11-7.12l84.59.27c2.25.95,3.91,2.15,4.21,4.75.79,6.79.57,22.03,0,29.03ZM408.58,320.08c4.37.33,8.63,1,9.2,6.09.78,6.89.64,22.52.02,29.55-.4,4.51-2.07,6.19-6.59,6.59-26.57-1.75-55.99,2.25-82.23,0-2.82-.24-5.63-.87-6.86-3.68-.13-6.24-2.47-31.65.45-35.73.21-.29,2.02-1.3,2.48-1.47,3.48-1.28,15.1-1.24,19.72-1.35,19.55-.48,44.63-1.44,63.79,0ZM259.44,270.5c-8.5.04-17.22,1.09-25.81.57-5.41-.33-11.02-.29-11.77-6.67-.78-6.63-.57-20.02-.08-26.86.23-3.21.59-6.95,4.08-8.04l87.62.14c2.79.92,3.89,2.99,4.2,5.81.72,6.49.59,20.81.02,27.44-.61,7.12-4.38,7.73-10.8,8.18-14.97,1.03-32.11-.65-47.46-.57ZM268.18,309.31c-.3,3.44-1.66,6.12-5.26,6.86-2.48.51-7.03.67-9.75.77-23.85.95-48.3-.75-72.22,0-3.89-.34-7.98-1.06-8.62-5.61-.89-6.36-.59-22.26-.07-28.98.31-3.98,1.15-6.16,5.14-7.51l83.14-.14c5,.43,7.1,2.01,7.61,7.14.67,6.74.63,20.64.03,27.44ZM172.3,188.03c.41-2.64,2.64-3.21,4.7-4.26l81.43-.27c6.11.58,9.18,1.57,9.74,8.18.55,6.45.65,20-.08,26.33-.41,3.56-1.33,5.67-4.92,6.67-2.21.62-6.53.92-8.96,1.05-17.31.89-36.16-.7-53.78-.57-1.5.01-2.79.56-4.17.57-4.7.04-19.87.68-22.78-2.81-.75-.9-1.13-3.11-1.23-4.31-.82-9.76.63-20.69.05-30.58ZM221.85,144.29c.76-6.43,4.99-6.09,10.37-6.5,25.79-1.93,53.43,1.14,79.42-.18,4.26.41,5.62,2.54,6.03,6.62.68,6.89.64,21.03.03,27.96-.29,3.28-1.48,5.87-4.86,6.74-1.83.47-5.52.8-7.52.91-24.14,1.35-49.52-1.07-73.8,0-5.74-.52-9.08-1.31-9.72-7.67-.64-6.44-.7-21.53.05-27.88ZM341.67,271.08c-5.42.08-18.73,1.86-19.73-5.08-1.08-7.51-1.13-20.28-.59-27.92.25-3.54.44-7.88,4.62-8.55l88.13.12c2.54.92,3.37,2.1,3.67,4.76.77,6.85.61,22.01.02,29.02-.1,1.2-.4,3.32-.95,4.32-2.15,3.96-14.2,2.6-18.32,2.75-19.01.71-37.84.3-56.85.57ZM367.72,217.52c-.64,7.84-4.21,7.77-11.3,8.2-9.97.6-20.14-.56-30.03-.57-13.8-.02-27.99,1.21-41.68.56-3.48-.17-10.91-.29-12.11-4.19-.42-9.68-1.62-20.7-.75-30.34.54-6.03,2.85-7.22,8.66-7.67,25.75-2.02,54.09,1.57,80.12,0,1.44.1,4.32.82,5.35,1.77.89.81,1.6,3.08,1.74,4.32.76,6.7.55,21.06,0,27.94ZM328.98,179.85c-7-.51-7.18-2.79-7.61-9.26-.47-6.96-.56-17.89-.02-24.8.6-7.73,3.79-7.75,10.8-8.18,25.11-1.51,51.7,1.19,76.96,0,3.75.59,8.12.19,8.68,5.02.82,7.02.55,22.28,0,29.56-.09,1.23-.55,4.53-1.22,5.37-.85,1.07-4.41,2.3-5.89,2.28-26.64-1.5-55.31,1.92-81.7,0ZM317.67,81.47c-.52,5.15-3.47,6.01-8.14,6.62-25.13-1.36-52.04,1.74-76.96,0-2.19-.15-7.48-.88-9.03-2.3-1.19-1.08-1.63-4.26-1.76-5.88-.45-5.63-.79-22.9.23-27.88.89-4.35,4.23-6.09,8.46-6.17,24.91,1.42,51.76-1.81,76.43,0,6.73.49,10.24.9,10.8,8.18.55,7.07.67,20.48-.03,27.43ZM260.54,92.27c5.82.5,7.2,2.53,7.64,8.17.53,6.73.5,18.06-.03,24.8-.36,4.54-1.14,8.54-6.56,8.73-26.19-1.58-54.73,2.04-80.64,0-1.52-.12-5.91-.86-6.94-1.75-.85-.74-1.6-3.15-1.73-4.33-.74-6.47-.74-23.6-.01-30.07.47-4.2,3.92-5.15,7.63-5.54,26.07,1.7,54.9-2.2,80.64,0ZM218.1,80.41c-.52,5.79-3.7,7.2-9.19,7.67-25.58,2.19-54.22-1.7-80.12,0-3.34-.3-5.64-1.49-6.84-4.75l-.22-32.42c.88-3.78,4.69-4.77,8.12-5.06,26.04-2.23,56.2,1.1,82.5.78,1.11.24,3.21.8,4.02,1.51.78.69,1.62,2.67,1.76,3.78.78,6.41.57,21.88-.02,28.48ZM164.93,92.52c3.18,1.3,3.42,4.97,3.65,7.94.54,6.9.61,18.99.03,25.85-.42,4.89-2.02,7.2-7.11,7.65h-84.86c-2.73-.09-6.06-1.54-6.53-4.53-.36-2.27-.47-6.88-.58-9.44-.28-6.62-.23-16.19.54-22.71.38-3.19,2.73-4.38,5.68-4.86l89.19.1ZM121.69,143.16c.35-2.96,2.88-4.77,5.67-5.4l83.66-.15c3.95.37,6.6,1.23,7.09,5.56,1.11,9.79-.62,21.9-.25,31.92-.86,2.5-2.37,3.51-4.88,4.08-26.2-.19-54.98,2.47-81.03.67-4.57-.31-9.64-.64-10.25-6.09-.73-6.46-.77-24.19-.01-30.6ZM121.67,233.85c.21-2.23,2.67-3.59,4.63-4.33l88.15.11c2.6,1.13,3.39,3.74,3.65,6.36.67,6.74.63,20.64.03,27.44-.24,2.7-1.07,5.18-3.71,6.31-1.88.8-6.95,1.21-9.2,1.34-9.98.57-20.14-.59-30.03-.57-14.59.02-33.41,2.2-47.4-.02-3.55-.56-5.67-1.73-6.1-5.49-1.1-9.68.84-21.25-.03-31.14ZM160.44,274.73c6.62.57,7.64,2.39,8.14,8.73.47,5.93.34,14.58.03,20.58-.1,2-.37,6.49-.8,8.17-1.05,4.1-6.39,4.5-10,4.75-25.62,1.76-53.23-1.38-79.07,0-5.38-.75-8.44-.52-9.13-6.68-1.15-10.21.6-22.08.7-32.39.51-1.62,2.34-2.47,3.84-3.02l86.3-.14ZM121.69,326.16c.44-4.35,3-5.58,7.09-6.08,26.25,1.71,55.25-2.21,81.17,0,4.67.4,7.69,1.52,8.17,6.59.64,6.8.65,21.19-.03,27.96-.66,6.61-4.99,7.25-10.77,7.67-25.02,1.83-52.23-1.42-77.48,0-2.01-.18-4.97-.84-6.39-2.31-.97-1.01-1.6-2.9-1.76-4.3-.75-6.64-.68-22.82,0-29.53ZM159.91,365.96c13.88,1.19,7.06,16.06,8.7,25.62-1.49,8.71,2.5,15.24-9.22,16.08-7.7.56-15.59-.61-23.18-.57-18.21.11-37.1,1.66-55.36.57-2.15-.13-6.81-.56-8.51-1.5-2.23-1.22-2.57-3.82-2.78-6.18-.42-4.7-.65-26.53.56-30.01,1.37-3.96,7.3-4.27,10.92-4.37,8.85-.24,17.89.38,26.69.4,16.43.04,36.22-1.41,52.2-.04ZM121.81,415.92c1.59-4.43,6.93-4.19,10.84-4.44,24.45-1.56,50.1.86,74.68-.18,4.26.81,9.79.14,10.8,5.54-.72,9.52.87,20.2,0,29.57-.45,4.8-3.12,6.2-7.64,6.59-26.75-1.17-54.54,1.43-81.18,0-4.57-.25-7.02-.81-7.61-6.08-1.07-9.58.71-21.2.11-31ZM178.04,406.87c-3.76-.87-5.31-1.72-5.77-5.83-.73-6.57-.61-21.28-.02-27.97.36-4.11,1.81-5.93,5.89-6.76,3.27-.66,8.38-.57,11.93-.71,23.36-.93,47.48,1.4,70.99.35,5.57.49,6.64,3.06,7.08,8.2.58,6.76.6,19.1.03,25.85-.26,3.09-.96,5.35-4.11,6.43-2.33.8-8.65,1.09-11.43,1.22-24.69,1.11-49.98-.26-74.6-.78ZM231.52,362.31c-4.45-.32-8.99-.99-9.68-6.13-.82-6.07-.58-21.04-.04-27.37.49-5.67,1.92-7.83,7.78-8.56,25.75,1.24,53.94-2.16,79.42-.17,4.83.38,8.07,1.23,8.68,6.61.74,6.63.55,20.62.02,27.44-.48,6.25-2.56,7.56-8.69,8.17-25.26-1.42-52.45,1.82-77.48,0ZM271.85,373.1c.41-4.12,2.69-6.36,6.72-6.99l85.77.35c2.2,1.01,3.12,2.72,3.39,5.05.76,6.7.52,20.52.02,27.44-.49,6.75-1.9,8.17-8.69,8.7-10.8.84-21.95-.61-32.71-.57-14.35.05-29.33,1.61-43.72.57-6.42-.46-9.96-1.24-10.71-8.26-.67-6.31-.69-19.97-.06-26.29ZM321.37,421.09c.34-5.17.36-8.47,6.18-9.64l82.61-.14c3.88.64,7.07.29,7.63,5.02.81,6.81.66,23.64,0,30.62-.4,4.28-2.38,5.69-6.58,6.07-26.58-1.75-55.98,2.25-82.23,0-2.28-.2-5.71-.96-6.8-3.21-1.4-2.88-1.1-24.29-.81-28.71ZM462.84,274.72c3.98.29,7.11,1.1,7.62,5.56.77,6.83.61,22.03.02,29.02-.75,8.88-7.23,6.71-13.97,7.11-22.14,1.31-51.18,1.94-73.26.54-4-.25-10.86-.54-11.32-5.55.89-10-1.14-21.9,0-31.66.32-2.74,2.21-4.01,4.61-4.88l86.3-.14ZM460.21,183.5c4.31.31,9.65.9,10.27,6.07.79,6.64.59,22.19,0,29.04-.22,2.59-1.38,5.08-3.93,6.08-1.48.59-7,.94-8.97,1.04-8.79.44-17.65-.53-26.34-.57-16.52-.08-37.39,2.16-53.18-.03-3.61-.5-5.68-1.63-6.12-5.48-1.09-9.63.79-21.23.03-31.08.84-3.68,4.48-4.52,7.77-4.88,26.2,1.13,54.51-2.04,80.47-.18ZM438.04,92.31c8.08.13,18.09-.85,25.84-.02,3.49.37,6.16,2.42,6.6,6.05.77,6.42.62,22.45,0,29.04-.41,4.38-2.82,6.21-7.11,6.59-26.86-1.44-55.59,1.85-82.23,0-3.6-.25-8.87-.51-9.21-5.02.84-10.05-1.09-21.82.01-31.65.37-3.32,1.96-4.67,5.13-5.41,20.33-.52,40.72.09,60.96.42ZM371.93,5.52c.54-4.5,3.93-4.95,7.81-5.37,26.15-2.8,56.51,1.79,83.1-.17,4.49.39,7.09,1.82,7.62,6.61.75,6.67.62,21.7.02,28.5-.41,4.63-2.48,6.71-7.11,7.12l-87.6-.43c-1.77-.8-3.47-2.04-3.8-4.11.83-10.12-1.22-22.29-.04-32.15ZM271.84,6.07c.42-3.68,2.67-5.39,6.2-5.93,25.58.82,52.41-1.56,77.85-.16,1.95.11,6.37.43,8,.95,2.45.79,3.55,2.67,3.83,5.13.76,6.7.61,21.64.02,28.49-.42,4.89-2.02,7.2-7.11,7.65l-84.43-.43c-1.94-.63-3.5-2.62-3.8-4.64-1.08-7.16-1.38-23.93-.56-31.08ZM172.26,5.52c.13-1.1.98-3.09,1.75-3.78.91-.82,3.54-1.75,4.82-1.77h81.71c5.43.57,7.13,2.34,7.61,7.68.62,6.92.62,19.98.03,26.9-.4,4.66-2.07,7.54-7.11,7.65-26.23-1.72-55.27,2.23-81.17,0-3.77-.32-7.13-1.29-7.63-5.54-.75-6.28-.76-24.87,0-31.14ZM69.52,6.57c.3-3.52,1.07-5.32,4.62-6.45L160.97-.02c2.64.01,5.55.67,6.6,3.41,1.71,4.45,1.34,21.46,1.03,26.96-.11,1.94-.54,7.3-1.22,8.8-.95,2.11-3.75,2.94-5.9,3.06-27.26-1.79-57.42,2.31-84.33,0-2.95-.25-6.53-1.14-7.06-4.53-.34-2.12-.47-6.51-.58-8.91-.29-6.47-.53-15.85,0-22.19ZM28.69,88.09c-4.15-.33-8.15-.84-8.67-5.56-.27-2.44-.49-6.43-.55-8.94-.14-5.96-.1-15.88.55-21.65.42-3.7,2.77-5.24,6.2-5.93,26.43,1.12,54.81-1.96,81.02-.16,4.46.31,9.62.68,10.26,6.07.78,6.53.64,22.86,0,29.56-.41,4.38-2.82,6.21-7.11,6.59-26.54-1.6-55.44,2.06-81.7,0ZM26.58,179.85c-4.18-.5-6.6-1.63-7.09-6.08-.7-6.35-.69-22.63.06-28.95.75-6.33,4.96-6.57,10.37-7.02,25.44-2.12,53.2,1.28,78.89-.17,4.73.7,8.07,1.18,8.68,6.61l-.29,31.88c-1.21,2.31-3.68,3.7-6.28,3.74H26.58ZM27.11,270.55c-2.85.01-6.6-2.08-7.06-5.06-.3-1.91-.48-5.74-.58-7.86-.39-8.18.22-16.42.8-24.56.63-1.96,1.88-2.99,3.82-3.56l86.3-.14c3.52.11,6.92,2.32,7.09,6.09l-.24,31.4c-3.48,5.93-10.94,3.7-16.33,3.64-24.59-.28-49.21.25-73.8.05ZM28.69,362.3c-5.44-.43-8.61-1.23-9.19-7.14-.61-6.11-.31-15.86-.03-22.16.08-1.82.56-9.03,1.13-9.94,1.16-1.87,4.68-2.41,6.67-2.81,26.32,1.22,54.95-2.13,81.01-.17,4.37.33,8.62,1,9.2,6.09.76,6.77.67,22.67.02,29.55-.41,4.38-2.82,6.21-7.11,6.59-26.54-1.6-55.44,2.06-81.7,0ZM30.27,453.01c-3.89-.23-9.5-.22-10.22-5.06-.3-2.04-.48-5.65-.58-7.85-.39-8.11.76-16.17.56-24.27,1.35-3.53,5.51-4.01,8.84-4.34,26.28-2.55,55.94,1.6,82.58-.18,2.79.17,5.91,1.27,6.05,4.49l-.25,33.53c-.94,2.04-3.07,3.41-5.28,3.68-26.82-1.24-55.04,1.61-81.69,0ZM168.58,488.58c-.17,2.2-.73,6.45-2.28,8-2.03,2.03-5.84,1.7-8.49,2.31-25.01-1.3-51.62,1.65-76.43,0-4.29-.29-10.9-.52-11.32-6.07l.25-31.42c1.35-4.4,9.44-4.29,13.2-4.42,8.44-.29,16.97.27,25.27.26,16.61-.02,37.14-1.48,53.25-.05,2.09.19,5.11.9,5.8,3.16.36,1.19.69,5.1.78,6.6.37,6.19.45,15.5-.03,21.64ZM268.15,489.11c-.56,7.73-1.95,9.24-9.72,9.78-25.43,1.79-53.17-1.21-78.78-.24-1.79-.64-4.22-.7-5.61-2.07-.96-.94-1.61-2.95-1.76-4.3-.71-6.25-.74-23.33-.01-29.54.5-4.24,4.53-5.26,8.16-5.54,15.31-1.2,34.03-.02,49.52.04,9.81.04,23.43-1.15,32.7-.03,3.87.47,5.22,2.98,5.54,6.58.6,6.76.47,18.48-.03,25.33ZM229.94,453.01c-7.38-.63-7.71-4.31-8.14-10.83-.38-5.87-.83-19.89.02-25.28.73-4.58,6.72-5.1,10.4-5.41,25.24-2.14,52.87,1.29,78.36-.18,3.8.32,6.6,1.31,7.11,5.54.78,6.55.6,22.3,0,29.04-.45,5.09-2.75,6.7-7.64,7.12-25.58,2.19-54.22-1.69-80.12,0ZM367.75,490.71c-.45,5.27-2.17,7.69-7.64,8.18-16.99,1.52-37.54-.49-54.78-.57-8.2-.04-16.55,1.17-24.81.57-3.13-.23-7.53-.71-8.12-4.53-1.03-6.75-1.45-24.95-.51-31.56.66-4.63,5.22-5.77,9.26-5.91,12.67-.46,26.2.34,38.87.35,12.85.01,26.03-.81,38.92-.35,4.9.17,8.24,1.08,8.78,6.4.68,6.8.61,20.57.03,27.43ZM382.72,498.89c-3.75-.23-10.01-.4-10.75-5.06.95-10.13-1.36-22.88-.06-32.69.34-2.53,3.13-4.06,5.55-4.17l88.8.49c1.9.79,3.82,2.06,4.17,4.26,1.47,9.33-.83,22.68-.22,32.42-1.48,5.75-11.81,3.97-16.37,4.18-22.15,1.01-49.07,1.9-71.12.57Z"/>
  <polygon class="st0" points="535.53 .03 539.48 0 539.47 -3.69 501.1 -3.69 501.1 0 535.53 .03"/>
  <path class="st0" d="M527.6,91.74c3.86-.03,8.19-.35,11.87.55v-3.68c-3.25-.1-6.48-.26-9.68-.51-4.15-.33-8.15-.84-8.67-5.56-.27-2.44-.49-6.43-.55-8.94-.03-1.29-.05-2.78-.06-4.36-.06,4.83-.24,9.42-.51,12.26-.56,5.95-5.15,6.24-10.27,6.59-2.85.2-5.73.32-8.63.41v3.07c9.11,0,18.45.22,26.5.16Z"/>
  <path class="st0" d="M521.23,506.1c.88-2.93,3.79-3.37,6.45-3.56,3.88-.29,7.82-.45,11.79-.55v-3.11h-38.37s0,3.68,0,3.68c4.07.33,8.22-.56,11.26.25h3.95c2.24.84,3.28,1.84,3.62,4.28l.05,29.22h1.14c-1.05-10.05-.43-20.14.11-30.21Z"/>
  <path class="st0" d="M518.77,322.36c.75.9,1.13,3.1,1.23,4.31.2,2.43.36,5.82.44,9.51.04-1.12.09-2.2.13-3.18.08-1.82.56-9.03,1.13-9.94,1.16-1.87,4.68-2.41,6.67-2.81,1.09.05,2.19.08,3.29.12,2.74-.38,5.68-.26,7.8-.26v-3.15s-38.38-.02-38.38-.02v2.57c3.81.08,7.57.25,11.26.58,1.75.15,5.29.93,6.41,2.28Z"/>
  <path class="st0" d="M539.47,365.68v-2.86c-3.26-.1-6.49-.26-9.68-.51-5.44-.43-8.61-1.23-9.19-7.14-.12-1.2-.2-2.55-.26-3.97-.09,1.92-.2,3.65-.36,5.03-.6,5.32-4.82,5.38-9.2,6.08-.29-.02-.58-.03-.87-.04-2.85.29-6.09-.08-8.81.02v3.69h24.24c4.71-.11,9.43-.24,14.13-.3Z"/>
  <path class="st0" d="M539.47,270.59c-3.75,0-7.51-.01-11.26-.04-2.85.01-6.6-2.08-7.06-5.06-.3-1.91-.48-5.74-.58-7.86-.39-8.18.22-16.42.8-24.56.63-1.96,1.88-2.99,3.82-3.56h4.41c.39-.08.79-.12,1.18-.12h8.69l-.08-3.36-.28-.3c-.76-.02-1.51-.04-2.27-.07-3,.39-6.14-.08-9.14-.35-1.86-.07-3.72-.14-5.57-.2-5.99,0-12.05.29-18.12.5-.93.15-1.87.24-2.84.09-.02,0-.05,0-.07,0v3.68c5.02.37,9.59-1.01,12.53.48h3.49c1.95.73,2.7,2.59,2.86,4.53l-.24,32.46c-1.12,3.67-8.3,4.02-11.6,4.21-2.31.14-4.67.23-7.05.28v3.39h38.37v-4.16Z"/>
  <path class="st0" d="M527.92,457.25c.8,0,1.6-.01,2.4-.01,2.59-.04,5.21-.14,7.83-.06.44-.01.88-.02,1.33-.04v-3.78c-2.72-.08-5.42-.19-8.11-.35-.13,0-.26-.01-.39-.02h-1.25c-.07,0-.2-.04-.36-.1-3.58-.24-7.61-.89-8.22-4.95-.3-2.04-.48-5.65-.58-7.85-.39-8.11.76-16.17.56-24.27,1.35-3.53,5.51-4.01,8.84-4.34,3.12-.3,6.3-.51,9.51-.64v-3.21s-27.16.03-27.16.03c-.12-.01-.25-.02-.38-.02h-10.84v3.69c2.73.22,6.6-.34,9.84.06,1-.03,2.01-.05,3.01-.09,1.16,0,4.08,1.01,4.83,1.75.57.56,1.12,2.42,1.21,3.27,1.09,9.83-.85,21.61,0,31.66-.09,2.08-1.68,3.7-3.55,4.36-1.47.08-2.95.14-4.43.2-2.91.82-6.82.26-10.92.44v3.69c.26.02.53.04.79.06,8.75.15,17.52.48,26.03.51Z"/>
  <path class="st0" d="M514.4,46.45c3.15.42,5.2,2.24,5.59,5.48.34,2.8.5,7.41.53,12.28.06-4.44.23-9.01.6-12.26.42-3.7,2.77-5.24,6.2-5.93.62.03,1.24.04,1.85.06.29-.12.5-.2.56-.2h9.75v-3.68l-38.37-.02v3.46c1.83.06,3.65.13,5.47.21,2.23.11,5.72.31,7.83.6Z"/>
  <path class="st0" d="M539.47,179.85h-11.79c-4.18-.5-6.6-1.63-7.09-6.08-.7-6.35-.69-22.63.06-28.95.73-6.18,4.77-6.56,10-6.99.46-.12.87-.19,1.18-.19h1.42c2.06-.15,4.13-.26,6.22-.35v-3.35h-38.37v3.69l12.32-.02c3.02.14,6.31,1.68,6.58,5.02l-.25,33.53c-.88,2.89-5.32,3.48-7.91,3.68-3.53.28-7.12.45-10.73.54v3.13h38.37v-3.67Z"/>
  <path class="st0" d="M523.64,513.34c.18-2.98.19-7.08,2.69-8.91.69-.5,3.82-1.88,4.45-1.88h8.69v-.57c-3.97.09-7.91.26-11.79.55-2.66.2-5.57.64-6.45,3.56-.55,10.07-1.16,20.16-.11,30.21h3.08c-.55-7.34-.99-15.59-.55-22.96Z"/>
  <polygon class="st0" points="539.47 42.19 501.1 42.19 539.47 42.2 539.47 42.19"/>
  <polygon class="st0" points="501.1 0 501.1 .23 535.53 .03 501.1 0"/>
  <path class="st0" d="M539.48,316.93c-10.75-.77-21.62-.63-32.43-.55-1.97.02-3.95.1-5.95.21v.35l38.38.02v-.02Z"/>
  <path class="st0" d="M525.01,225.15c-.96-.02-1.91-.03-2.88-.03,1.86.06,3.71.12,5.57.2-.91-.08-1.82-.15-2.7-.17Z"/>
  <path class="st0" d="M538.71,225.31c-.61.17-1.23.28-1.86.36.76.02,1.51.04,2.27.07l-.41-.43Z"/>
  <path class="st0" d="M504.01,225.62c-.95.03-1.89.06-2.84.09.97.16,1.91.06,2.84-.09Z"/>
  <path class="st0" d="M528.68,457.25c.55,0,1.1-.01,1.65-.02-.8,0-1.6,0-2.4.01.25,0,.5,0,.75,0Z"/>
  <path class="st0" d="M539.48,457.21v-.07c-.45.01-.89.02-1.33.04.44.01.88.01,1.33.04Z"/>
  <polygon class="st0" points="501.1 498.87 539.47 498.88 539.47 498.87 501.1 498.87"/>
  <path class="st0" d="M501.1,456.68v.04c.26,0,.53.01.79.02-.26-.02-.53-.03-.79-.06Z"/>
  <path class="st0" d="M539.47,365.98v-.3c-4.7.06-9.42.19-14.13.3h14.13Z"/>
  <path class="st0" d="M501.1,407.55v.08h10.84c-3.46-.27-7.13-.21-10.84-.08Z"/>
  <path class="st0" d="M509.91,362.26c-2.91-.16-5.85-.27-8.81-.32v.34c2.72-.11,5.97.26,8.81-.02Z"/>
  <path class="st0" d="M512.02,452.55c-3.63.15-7.27.26-10.92.35v.09c4.1-.17,8.01.39,10.92-.44Z"/>
  <path class="st0" d="M501.1,411.33v.23c3.29-.02,6.57-.07,9.84-.16-3.24-.41-7.11.15-9.84-.06Z"/>
  <path class="st0" d="M501.1,229.39v.43l12.53.05c-2.94-1.48-7.51-.11-12.53-.48Z"/>
  <path class="st0" d="M512.36,502.81c-3.04-.81-7.19.08-11.26-.25v.25h11.26Z"/>
  <path class="st0" d="M520.65,144.81c-.75,6.32-.76,22.6-.06,28.95.49,4.45,2.91,5.58,7.09,6.08h11.79v-.02h-10.8c-2.74,0-3.91-2.88-4.42-5.07-1.28-5.59-1.19-26.93.05-32.52.42-1.88,4.04-3.81,6.34-4.41-5.23.43-9.26.81-10,6.99Z"/>
  <path class="st0" d="M539.47,137.64v-.35c-2.09.08-4.16.2-6.22.35h6.22Z"/>
  <path class="st0" d="M521.7,323.06c-.57.91-1.05,8.12-1.13,9.94-.04.98-.09,2.06-.13,3.18.11,5,.1,10.55-.1,15.01.06,1.43.14,2.77.26,3.97.59,5.91,3.76,6.72,9.19,7.14,3.19.25,6.42.41,9.68.51v-.54c-5.82-.62-13.95,1.38-15.24-6.11-1.16-6.74-1.25-23.83-.01-30.51.65-3.5,3.88-4.82,7.44-5.31-1.1-.04-2.2-.07-3.29-.12-2,.4-5.51.94-6.67,2.81Z"/>
  <path class="st0" d="M521.12,51.94c-.37,3.25-.54,7.82-.6,12.26,0,1.66,0,3.36-.02,5.02,0,1.58.03,3.07.06,4.36.06,2.51.28,6.5.55,8.94.52,4.72,4.53,5.23,8.67,5.56,3.19.25,6.42.41,9.68.51v-.53s-8.69,0-8.69,0c-1.71,0-5.72-1.87-6.28-3.71-.63-9.31-1.46-19.42-.85-28.75.15-2.32.36-6.46,2.15-7.87.34-.26,2.36-1.25,3.37-1.67-.62-.02-1.24-.03-1.85-.06-3.42.69-5.78,2.22-6.2,5.93Z"/>
  <path class="st0" d="M521.13,415.82c.19,8.1-.96,16.16-.56,24.27.11,2.2.28,5.82.58,7.85.6,4.06,4.64,4.71,8.22,4.95-.84-.31-2.65-1.32-3.09-1.72-3.05-2.77-1.85-6.95-2.08-10.57-.4-6.32-1.58-18.28.15-24.12,1.74-5.89,10.19-5.01,15.14-5.15v-.49c-3.21.14-6.38.34-9.51.64-3.33.32-7.49.81-8.84,4.34Z"/>
  <path class="st0" d="M539.47,453.36v-.37h-8.49c.13,0,.26.01.39.02,2.68.16,5.39.27,8.1.35Z"/>
  <path class="st0" d="M521.37,233.07c-.58,8.14-1.18,16.37-.8,24.56.1,2.12.28,5.95.58,7.86.46,2.98,4.21,5.08,7.06,5.06,3.75.03,7.51.04,11.26.04v-.06h-8.17c-1.8,0-5.53-1.79-6.51-3.5-1.29-2.23-.43-3.26-.59-5.17-.63-7.29-1.45-20.08-.22-27.1.47-2.7,3-4.76,5.62-5.26h-4.41c-1.95.57-3.2,1.6-3.82,3.56Z"/>
</svg>